<svg width="176" height="340" viewBox="0 0 176 340" fill="none" xmlns="http://www.w3.org/2000/svg">
<path d="M-0.000976562 18.4043L121.689 49.7975V339.428L-0.000976562 310.035V18.4043Z" fill="#060E18"/>
<path d="M36.2969 14.8755C36.2969 13.9917 36.8769 13.2127 37.7236 12.9594L61.9557 5.70989C62.32 5.60091 62.7077 5.59802 63.0736 5.70156L168.308 35.4832C169.169 35.7269 169.764 36.5128 169.764 37.4076V301.545V317.375C169.764 318.278 169.159 319.069 168.288 319.305L136.411 327.966C136.092 328.052 135.757 328.059 135.435 327.984L37.8455 305.376C36.9388 305.166 36.2969 304.358 36.2969 303.428V14.8755Z" fill="#0B2948"/>
<path d="M59.8506 6.63887C59.8506 5.31388 61.1157 4.35513 62.3913 4.71337L168.305 34.4565C169.168 34.6988 169.764 35.4857 169.764 36.382V318.887C169.764 320.176 168.563 321.128 167.308 320.834L61.3939 295.993C60.4898 295.781 59.8506 294.974 59.8506 294.046V6.63887Z" fill="#1856A1"/>
<path fill-rule="evenodd" clip-rule="evenodd" d="M168.035 35.4192L62.121 5.67612C61.4831 5.497 60.8506 5.97638 60.8506 6.63887V294.046C60.8506 294.51 61.1702 294.913 61.6222 295.019L167.536 319.86C168.164 320.008 168.764 319.531 168.764 318.887V36.382C168.764 35.9338 168.466 35.5404 168.035 35.4192ZM62.3913 4.71337C61.1157 4.35513 59.8506 5.31388 59.8506 6.63887V294.046C59.8506 294.974 60.4898 295.781 61.3939 295.993L167.308 320.834C168.563 321.128 169.764 320.176 169.764 318.887V36.382C169.764 35.4857 169.168 34.6988 168.305 34.4565L62.3913 4.71337Z" fill="black"/>
<g filter="url(#filter0_f_1008_22694)">
<path d="M64.2344 11.7868C64.2344 10.4608 65.5013 9.50187 66.7776 9.86201L164.866 37.5419C165.728 37.7851 166.323 38.5714 166.323 39.4668V313.753C166.323 315.038 165.127 315.99 163.873 315.701L65.7853 293.098C64.8775 292.888 64.2344 292.08 64.2344 291.149V11.7868Z" fill="white"/>
</g>
<g filter="url(#filter1_f_1008_22694)">
<path d="M59.999 8.60804C59.999 7.29247 61.2473 6.33522 62.5179 6.67651L168.518 35.1498C169.392 35.3845 169.999 36.1766 169.999 37.0813V318.514C169.999 319.791 168.818 320.741 167.57 320.467L61.5705 297.215C60.6529 297.014 59.999 296.201 59.999 295.262V8.60804Z" fill="#E7374D"/>
</g>
<defs>
<filter id="filter0_f_1008_22694" x="58.2344" y="3.78564" width="114.088" height="317.968" filterUnits="userSpaceOnUse" color-interpolation-filters="sRGB">
<feFlood flood-opacity="0" result="BackgroundImageFix"/>
<feBlend mode="normal" in="SourceGraphic" in2="BackgroundImageFix" result="shape"/>
<feGaussianBlur stdDeviation="3" result="effect1_foregroundBlur_1008_22694"/>
</filter>
<filter id="filter1_f_1008_22694" x="53.999" y="0.606934" width="122" height="325.908" filterUnits="userSpaceOnUse" color-interpolation-filters="sRGB">
<feFlood flood-opacity="0" result="BackgroundImageFix"/>
<feBlend mode="normal" in="SourceGraphic" in2="BackgroundImageFix" result="shape"/>
<feGaussianBlur stdDeviation="3" result="effect1_foregroundBlur_1008_22694"/>
</filter>
</defs>
</svg>
