<svg width="146" height="246" viewBox="0 0 146 246" fill="none" xmlns="http://www.w3.org/2000/svg">
<g filter="url(#filter0_f_1102_1874)">
<path d="M51.9307 10.9837C45.1611 11.1155 39.7399 17.0683 39.8469 24.3018C39.8469 24.3041 39.847 24.3063 39.847 24.3086L40.8942 126.461L24.8593 126.428C14.4507 125.247 7.43784 137.001 12.816 146.118L61.7929 229.148C66.5996 237.296 77.7694 237.386 82.6544 229.269C82.6548 229.268 82.6553 229.267 82.6557 229.267L132.831 146.375L132.834 146.369C135.281 142.301 135.268 137.461 133.629 133.643C131.992 129.83 128.515 126.637 123.788 126.627L105.316 126.59L105.523 24.3176L105.523 24.296L105.523 24.2744C105.48 21.4753 104.152 18.9783 102.479 17.0317C100.793 15.0704 98.5953 13.4703 96.3985 12.4314C94.4063 11.4892 92.2926 11.3435 90.5528 11.34L56.8987 11.272C56.2388 11.2706 55.5668 11.2084 54.7554 11.1332L54.6667 11.125C53.8585 11.0503 52.9088 10.9647 51.9307 10.9837Z" stroke="white" stroke-opacity="0.5" stroke-width="5"/>
</g>
<g filter="url(#filter1_f_1102_1874)">
<path d="M51.9307 10.9837C45.1611 11.1155 39.7399 17.0683 39.8469 24.3018C39.8469 24.3041 39.847 24.3063 39.847 24.3086L40.8942 126.461L24.8593 126.428C14.4507 125.247 7.43784 137.001 12.816 146.118L61.7929 229.148C66.5996 237.296 77.7694 237.386 82.6544 229.269C82.6548 229.268 82.6553 229.267 82.6557 229.267L132.831 146.375L132.834 146.369C135.281 142.301 135.268 137.461 133.629 133.643C131.992 129.83 128.515 126.637 123.788 126.627L105.316 126.59L105.523 24.3176L105.523 24.296L105.523 24.2744C105.48 21.4753 104.152 18.9783 102.479 17.0317C100.793 15.0704 98.5953 13.4703 96.3985 12.4314C94.4063 11.4892 92.2926 11.3435 90.5528 11.34L56.8987 11.272C56.2388 11.2706 55.5668 11.2084 54.7554 11.1332L54.6667 11.125C53.8585 11.0503 52.9088 10.9647 51.9307 10.9837Z" stroke="white" stroke-opacity="0.5" stroke-width="5"/>
</g>
<g filter="url(#filter2_f_1102_1874)">
<path d="M51.9307 10.9837C45.1611 11.1155 39.7399 17.0683 39.8469 24.3018C39.8469 24.3041 39.847 24.3063 39.847 24.3086L40.8942 126.461L24.8593 126.428C14.4507 125.247 7.43784 137.001 12.816 146.118L61.7929 229.148C66.5996 237.296 77.7694 237.386 82.6544 229.269C82.6548 229.268 82.6553 229.267 82.6557 229.267L132.831 146.375L132.834 146.369C135.281 142.301 135.268 137.461 133.629 133.643C131.992 129.83 128.515 126.637 123.788 126.627L105.316 126.59L105.523 24.3176L105.523 24.296L105.523 24.2744C105.48 21.4753 104.152 18.9783 102.479 17.0317C100.793 15.0704 98.5953 13.4703 96.3985 12.4314C94.4063 11.4892 92.2926 11.3435 90.5528 11.34L56.8987 11.272C56.2388 11.2706 55.5668 11.2084 54.7554 11.1332L54.6667 11.125C53.8585 11.0503 52.9088 10.9647 51.9307 10.9837Z" stroke="white" stroke-opacity="0.5" stroke-width="5"/>
</g>
<path d="M51.9496 11.9836C45.7838 12.1036 40.7459 17.5492 40.8468 24.2889C40.8468 24.2902 40.8469 24.2914 40.8469 24.2927L41.9045 127.463L24.7999 127.428C15.2587 126.304 8.66855 137.119 13.6774 145.61L62.6543 228.639C67.0795 236.141 77.3082 236.217 81.7988 228.752L131.976 145.857L131.978 145.854C134.241 142.091 134.236 137.593 132.71 134.038C131.185 130.486 128.01 127.636 123.786 127.627L104.314 127.588L104.523 24.3162L104.523 24.3032L104.523 24.2902C104.485 21.8017 103.3 19.5216 101.72 17.6838C100.133 15.8372 98.0512 14.3195 95.9706 13.3354C94.1825 12.4898 92.2499 12.3434 90.5502 12.34L56.8961 12.272C56.1898 12.2705 55.4768 12.2045 54.6822 12.1308L54.574 12.1208C53.7616 12.0456 52.8643 11.9657 51.9496 11.9836Z" stroke="white" stroke-opacity="0.5" stroke-width="3"/>
<defs>
<filter id="filter0_f_1102_1874" x="4.47266" y="4.48096" width="136.805" height="237.328" filterUnits="userSpaceOnUse" color-interpolation-filters="sRGB">
<feFlood flood-opacity="0" result="BackgroundImageFix"/>
<feBlend mode="normal" in="SourceGraphic" in2="BackgroundImageFix" result="shape"/>
<feGaussianBlur stdDeviation="2" result="effect1_foregroundBlur_1102_1874"/>
</filter>
<filter id="filter1_f_1102_1874" x="4.47266" y="4.48096" width="136.805" height="237.328" filterUnits="userSpaceOnUse" color-interpolation-filters="sRGB">
<feFlood flood-opacity="0" result="BackgroundImageFix"/>
<feBlend mode="normal" in="SourceGraphic" in2="BackgroundImageFix" result="shape"/>
<feGaussianBlur stdDeviation="2" result="effect1_foregroundBlur_1102_1874"/>
</filter>
<filter id="filter2_f_1102_1874" x="0.472656" y="0.480957" width="144.805" height="245.328" filterUnits="userSpaceOnUse" color-interpolation-filters="sRGB">
<feFlood flood-opacity="0" result="BackgroundImageFix"/>
<feBlend mode="normal" in="SourceGraphic" in2="BackgroundImageFix" result="shape"/>
<feGaussianBlur stdDeviation="4" result="effect1_foregroundBlur_1102_1874"/>
</filter>
</defs>
</svg>
