<svg width="822" height="4301" viewBox="0 0 822 4301" fill="none" xmlns="http://www.w3.org/2000/svg">
<path d="M289.195 658.274H409.171V4835.56H289.195V658.274Z" fill="url(#paint0_linear_1008_22744)"/>
<mask id="path-2-inside-1_1008_22744" fill="white">
<path d="M317.229 589H391.06V1260.53H317.229V589Z"/>
</mask>
<path d="M317.229 589V583H311.229V589H317.229ZM391.06 589H397.06V583H391.06V589ZM317.229 595H391.06V583H317.229V595ZM385.06 589V1260.53H397.06V589H385.06ZM323.229 1260.53V589H311.229V1260.53H323.229Z" fill="black" mask="url(#path-2-inside-1_1008_22744)"/>
<path d="M308 775.735L317.229 775.735L340.301 779.162L363.917 780.542L382.33 779.162L417.189 772.773C418.388 772.554 418.244 770.788 417.027 770.789L386.446 770.798" stroke="black" stroke-width="6"/>
<path d="M308 815.237L317.229 815.237L340.301 818.663L363.917 820.043L382.33 818.663L417.189 812.275C418.388 812.055 418.244 810.29 417.027 810.29L386.446 810.299" stroke="black" stroke-width="6"/>
<path d="M308 854.738L317.229 854.738L340.301 858.165L363.917 859.545L382.33 858.165L417.189 851.776C418.388 851.557 418.244 849.791 417.027 849.791L386.446 849.801" stroke="black" stroke-width="6"/>
<path d="M308 894.24L317.229 894.24L340.301 897.666L363.917 899.046L382.33 897.666L417.189 891.278C418.388 891.058 418.244 889.293 417.027 889.293L386.446 889.302" stroke="black" stroke-width="6"/>
<path d="M308 933.741L317.229 933.741L340.301 937.167L363.917 938.548L382.33 937.167L417.189 930.779C418.388 930.56 418.244 928.794 417.027 928.794L386.446 928.804" stroke="black" stroke-width="6"/>
<path d="M308 973.243L317.229 973.243L340.301 976.669L363.917 978.049L382.33 976.669L417.189 970.281C418.388 970.061 418.244 968.295 417.027 968.296L386.446 968.305" stroke="black" stroke-width="6"/>
<path d="M308 1012.74L317.229 1012.74L340.301 1016.17L363.917 1017.55L382.33 1016.17L417.189 1009.78C418.388 1009.56 418.244 1007.8 417.027 1007.8L386.446 1007.81" stroke="black" stroke-width="6"/>
<path d="M308 1052.25L317.229 1052.25L340.301 1055.67L363.917 1057.05L382.33 1055.67L417.189 1049.28C418.388 1049.06 418.244 1047.3 417.027 1047.3L386.446 1047.31" stroke="black" stroke-width="6"/>
<path d="M308 1091.75L317.229 1091.75L340.301 1095.17L363.917 1096.55L382.33 1095.17L417.189 1088.79C418.388 1088.57 418.244 1086.8 417.027 1086.8L386.446 1086.81" stroke="black" stroke-width="6"/>
<path d="M308 1131.25L317.229 1131.25L340.301 1134.67L363.917 1136.06L382.33 1134.67L417.189 1128.29C418.388 1128.07 418.244 1126.3 417.027 1126.3L386.446 1126.31" stroke="black" stroke-width="6"/>
<path d="M308 1170.75L317.229 1170.75L340.301 1174.18L363.917 1175.56L382.33 1174.18L417.189 1167.79C418.389 1167.57 418.244 1165.8 417.028 1165.8L386.446 1165.81" stroke="black" stroke-width="6"/>
<path d="M308 1210.25L317.229 1210.25L340.301 1213.68L363.917 1215.06L382.33 1213.68L417.189 1207.29C418.388 1207.07 418.244 1205.3 417.027 1205.3L386.446 1205.31" stroke="black" stroke-width="6"/>
<path fill-rule="evenodd" clip-rule="evenodd" d="M173.805 131.996L174.743 134.835L137.653 147.393L128.43 176.538L125.569 175.66L135.256 145.048L173.805 131.996Z" fill="black"/>
<path d="M169.801 106.789C171.493 102.588 177.45 102.616 179.097 106.833L192.942 142.292C193.04 142.544 192.916 142.831 192.665 142.934C179.639 148.322 170.927 146.034 155.973 142.694C155.672 142.627 155.499 142.305 155.614 142.019L169.801 106.789Z" fill="black"/>
<path fill-rule="evenodd" clip-rule="evenodd" d="M287.081 132.001L288.019 134.84L250.929 147.398L241.706 176.543L238.845 175.665L248.532 145.053L287.081 132.001Z" fill="black"/>
<path d="M283.075 106.791C284.768 102.589 290.725 102.616 292.371 106.833L306.207 142.289C306.306 142.541 306.181 142.828 305.931 142.931C292.904 148.321 284.192 146.035 269.239 142.699C268.938 142.631 268.764 142.309 268.88 142.023L283.075 106.791Z" fill="black"/>
<path fill-rule="evenodd" clip-rule="evenodd" d="M400.353 132.001L401.291 134.84L364.201 147.398L354.978 176.543L352.117 175.665L361.804 145.053L400.353 132.001Z" fill="black"/>
<path d="M396.347 106.791C398.039 102.59 403.997 102.617 405.642 106.834L419.48 142.29C419.579 142.542 419.454 142.829 419.204 142.933C406.177 148.322 397.465 146.036 382.512 142.699C382.211 142.631 382.038 142.309 382.153 142.023L396.347 106.791Z" fill="black"/>
<path fill-rule="evenodd" clip-rule="evenodd" d="M505.342 132.001L506.28 134.84L469.19 147.398L459.967 176.543L457.106 175.665L466.793 145.053L505.342 132.001Z" fill="black"/>
<path d="M501.337 106.793C503.029 102.592 508.987 102.62 510.633 106.837L524.477 142.296C524.576 142.548 524.451 142.835 524.201 142.938C511.175 148.326 502.463 146.038 487.509 142.699C487.208 142.631 487.034 142.309 487.15 142.023L501.337 106.793Z" fill="black"/>
<path fill-rule="evenodd" clip-rule="evenodd" d="M618.431 132.001L619.369 134.84L582.279 147.398L573.056 176.543L570.195 175.665L579.882 145.053L618.431 132.001Z" fill="black"/>
<path d="M614.425 106.791C616.117 102.589 622.075 102.617 623.72 106.833L637.557 142.289C637.656 142.541 637.531 142.828 637.281 142.932C624.254 148.321 615.542 146.035 600.589 142.699C600.288 142.631 600.114 142.309 600.23 142.023L614.425 106.791Z" fill="black"/>
<path d="M27.458 174.501H756.542V760.001H27.458V174.501Z" fill="url(#paint1_linear_1008_22744)"/>
<path fill-rule="evenodd" clip-rule="evenodd" d="M198.948 218.735C214.391 210.441 231.89 206.372 249.426 206.798C268.272 206.934 287.264 212.274 303.923 223.213C295.81 195.103 283.55 152.384 283.164 149.58C283.151 149.487 283.142 149.401 283.135 149.323C283.328 148.912 283.305 148.634 283.245 148.598C283.185 148.562 283.089 148.767 283.135 149.323C282.313 151.074 277.564 155.244 254.998 153.449L198.948 218.735ZM319.933 224.308C352.946 207.515 394.84 209.543 426.53 233.416C415.627 202.881 400.378 159.911 398.536 153.296C399.814 151.761 398.093 150.634 398.357 152.553C398.376 152.691 398.437 152.941 398.536 153.296C397.014 155.123 391.243 157.528 372.816 156.063L319.933 224.308ZM443.162 225.409C475.73 203.164 520.652 201.644 555.325 224.428C533.194 194.702 506.739 158.792 503.833 153.138C504.954 151.656 503.315 150.622 503.574 152.498C503.591 152.622 503.679 152.837 503.833 153.138C502.443 154.975 496.806 157.5 478.032 156.007L443.162 225.409ZM563.5 230C598 200 654 192 699.5 232C675.969 207.868 640.907 148.558 637.5 143C637.243 141.137 638.575 141.535 637.5 143C633 144.5 624 149.5 600 142.5L563.5 230ZM168.634 151.48C169.022 154.302 176.842 195.513 181.938 222.291C148.827 197.712 105.016 196.705 71.6115 215.92L140.469 155.35C163.034 157.144 167.783 152.974 168.605 151.223C168.612 151.302 168.621 151.387 168.634 151.48ZM168.715 150.498C168.655 150.462 168.559 150.668 168.605 151.223C168.798 150.812 168.775 150.535 168.715 150.498ZM42.8737 241.199L42.3257 241.681L42.5078 241.685C42.6293 241.522 42.7513 241.36 42.8737 241.199Z" fill="url(#paint2_radial_1008_22744)"/>
<g style="mix-blend-mode:hard-light" opacity="0.4">
<mask id="mask0_1008_22744" style="mask-type:alpha" maskUnits="userSpaceOnUse" x="29" y="168" width="727" height="585">
<path d="M29.5011 168.501L755.306 168.501L755.306 752.001L29.5007 752L29.5011 168.501Z" fill="url(#paint3_linear_1008_22744)"/>
</mask>
<g mask="url(#mask0_1008_22744)">
<g style="mix-blend-mode:overlay" filter="url(#filter0_d_1008_22744)">
<path d="M27.7326 267.375C53.8913 194.461 150.484 179.14 199.859 240.072L471.979 575.882C520.437 635.682 486.945 724.414 411.39 736.399L-4.89554 802.431C-80.45 814.416 -142.107 740.777 -116.434 669.218L27.7326 267.375Z" fill="url(#paint4_linear_1008_22744)" shape-rendering="crispEdges"/>
<path d="M153.94 273.027C179.372 198.407 278.23 182.758 327.558 245.542L587.403 576.265C634.539 636.257 600.782 723.669 525.902 735.524L132.09 797.868C57.2093 809.722 -4.3279 737.396 19.9733 666.094L153.94 273.027Z" fill="url(#paint5_linear_1008_22744)" shape-rendering="crispEdges"/>
<path d="M270.079 283.244C293.568 204.27 398.267 187.695 447.231 255.2L679.979 576.082C723.752 636.43 689.313 720.629 616.118 732.217L271.717 786.739C198.522 798.326 137.427 729.251 158.426 658.649L270.079 283.244Z" fill="url(#paint6_linear_1008_22744)" shape-rendering="crispEdges"/>
<path d="M404.345 277.186C428.251 199.1 531.744 182.716 580.801 249.251L817.754 570.626C862.205 630.914 827.898 715.761 754.362 727.402L401.944 783.193C328.409 794.835 267.218 725.106 288.879 654.352L404.345 277.186Z" fill="url(#paint7_linear_1008_22744)" shape-rendering="crispEdges"/>
<path d="M535.265 274.354C559.091 196.097 662.816 179.676 711.856 246.398L948.495 568.359C992.815 628.659 958.483 713.381 885.013 725.012L533.403 780.675C459.933 792.306 398.761 722.704 420.294 651.978L535.265 274.354Z" fill="url(#paint8_linear_1008_22744)" shape-rendering="crispEdges"/>
<path d="M27.7326 267.375C53.8913 194.461 150.484 179.14 199.859 240.072L471.979 575.882C520.437 635.682 486.945 724.414 411.39 736.399L-4.89554 802.431C-80.45 814.416 -142.107 740.777 -116.434 669.218L27.7326 267.375Z" fill="url(#paint9_linear_1008_22744)" shape-rendering="crispEdges"/>
<path d="M151.749 274.436C177.123 195.994 282.278 181.958 329.578 250.699L622.261 676.059C664.507 737.456 628.024 820.749 554.593 830.551L104.901 890.576C31.4695 900.378 -27.9229 829.883 -5.26006 759.822L151.749 274.436Z" fill="url(#paint10_linear_1008_22744)" shape-rendering="crispEdges"/>
<path d="M270.079 283.244C293.568 204.27 398.267 187.695 447.231 255.2L679.979 576.082C723.752 636.43 689.313 720.629 616.118 732.217L271.717 786.739C198.522 798.326 137.427 729.251 158.426 658.649L270.079 283.244Z" fill="url(#paint11_linear_1008_22744)" shape-rendering="crispEdges"/>
<path d="M404.345 277.186C428.251 199.1 531.744 182.716 580.801 249.251L817.754 570.626C862.205 630.914 827.898 715.761 754.362 727.402L401.944 783.193C328.409 794.835 267.218 725.106 288.879 654.352L404.345 277.186Z" fill="url(#paint12_linear_1008_22744)" shape-rendering="crispEdges"/>
<path d="M535.265 274.354C559.091 196.097 662.816 179.676 711.856 246.398L948.495 568.359C992.815 628.659 958.483 713.381 885.013 725.012L533.403 780.675C459.933 792.306 398.761 722.704 420.294 651.978L535.265 274.354Z" fill="url(#paint13_linear_1008_22744)" shape-rendering="crispEdges"/>
</g>
</g>
</g>
<defs>
<filter id="filter0_d_1008_22744" x="-126.353" y="202.268" width="1098.57" height="697.225" filterUnits="userSpaceOnUse" color-interpolation-filters="sRGB">
<feFlood flood-opacity="0" result="BackgroundImageFix"/>
<feColorMatrix in="SourceAlpha" type="matrix" values="0 0 0 0 0 0 0 0 0 0 0 0 0 0 0 0 0 0 127 0" result="hardAlpha"/>
<feOffset dy="4"/>
<feGaussianBlur stdDeviation="2"/>
<feComposite in2="hardAlpha" operator="out"/>
<feColorMatrix type="matrix" values="0 0 0 0 0 0 0 0 0 0 0 0 0 0 0 0 0 0 0.25 0"/>
<feBlend mode="normal" in2="BackgroundImageFix" result="effect1_dropShadow_1008_22744"/>
<feBlend mode="normal" in="SourceGraphic" in2="effect1_dropShadow_1008_22744" result="shape"/>
</filter>
<linearGradient id="paint0_linear_1008_22744" x1="349.183" y1="658.274" x2="349.183" y2="4835.56" gradientUnits="userSpaceOnUse">
<stop stop-color="#3B0036"/>
<stop offset="0.101742" stop-color="#E35F78"/>
<stop offset="0.227102" stop-color="#420712"/>
</linearGradient>
<linearGradient id="paint1_linear_1008_22744" x1="392" y1="139.001" x2="392" y2="776.779" gradientUnits="userSpaceOnUse">
<stop stop-color="#226096"/>
<stop offset="0.712741" stop-color="#634A84"/>
<stop offset="0.855744" stop-color="#834E7A"/>
<stop offset="1" stop-color="#E35F78"/>
</linearGradient>
<radialGradient id="paint2_radial_1008_22744" cx="0" cy="0" r="1" gradientUnits="userSpaceOnUse" gradientTransform="translate(354.837 84.8171) rotate(87.439) scale(261.603 881.336)">
<stop stop-color="#AEBCD2"/>
<stop offset="1" stop-color="#AEBCD2" stop-opacity="0"/>
</radialGradient>
<linearGradient id="paint3_linear_1008_22744" x1="403.204" y1="146.824" x2="406.241" y2="776.817" gradientUnits="userSpaceOnUse">
<stop offset="0.243332" stop-color="white"/>
<stop offset="0.933233" stop-color="#FFB7BF" stop-opacity="0.53"/>
</linearGradient>
<linearGradient id="paint4_linear_1008_22744" x1="354.773" y1="169.197" x2="447.679" y2="845.245" gradientUnits="userSpaceOnUse">
<stop offset="0.243332" stop-color="white"/>
<stop offset="0.933233" stop-color="#FFB7BF" stop-opacity="0.53"/>
</linearGradient>
<linearGradient id="paint5_linear_1008_22744" x1="354.773" y1="169.197" x2="447.679" y2="845.245" gradientUnits="userSpaceOnUse">
<stop offset="0.243332" stop-color="white"/>
<stop offset="0.933233" stop-color="#FFB7BF" stop-opacity="0.53"/>
</linearGradient>
<linearGradient id="paint6_linear_1008_22744" x1="354.773" y1="169.197" x2="447.679" y2="845.245" gradientUnits="userSpaceOnUse">
<stop offset="0.243332" stop-color="white"/>
<stop offset="0.933233" stop-color="#FFB7BF" stop-opacity="0.53"/>
</linearGradient>
<linearGradient id="paint7_linear_1008_22744" x1="354.773" y1="169.197" x2="447.679" y2="845.245" gradientUnits="userSpaceOnUse">
<stop offset="0.243332" stop-color="white"/>
<stop offset="0.933233" stop-color="#FFB7BF" stop-opacity="0.53"/>
</linearGradient>
<linearGradient id="paint8_linear_1008_22744" x1="354.773" y1="169.197" x2="447.679" y2="845.245" gradientUnits="userSpaceOnUse">
<stop offset="0.243332" stop-color="white"/>
<stop offset="0.933233" stop-color="#FFB7BF" stop-opacity="0.53"/>
</linearGradient>
<linearGradient id="paint9_linear_1008_22744" x1="354.773" y1="169.197" x2="447.679" y2="845.245" gradientUnits="userSpaceOnUse">
<stop offset="0.243332" stop-color="white"/>
<stop offset="0.933233" stop-color="#FFB7BF" stop-opacity="0.53"/>
</linearGradient>
<linearGradient id="paint10_linear_1008_22744" x1="354.773" y1="169.197" x2="447.679" y2="845.245" gradientUnits="userSpaceOnUse">
<stop offset="0.243332" stop-color="white"/>
<stop offset="0.933233" stop-color="#FFB7BF" stop-opacity="0.53"/>
</linearGradient>
<linearGradient id="paint11_linear_1008_22744" x1="354.773" y1="169.197" x2="447.679" y2="845.245" gradientUnits="userSpaceOnUse">
<stop offset="0.243332" stop-color="white"/>
<stop offset="0.933233" stop-color="#FFB7BF" stop-opacity="0.53"/>
</linearGradient>
<linearGradient id="paint12_linear_1008_22744" x1="354.773" y1="169.197" x2="447.679" y2="845.245" gradientUnits="userSpaceOnUse">
<stop offset="0.243332" stop-color="white"/>
<stop offset="0.933233" stop-color="#FFB7BF" stop-opacity="0.53"/>
</linearGradient>
<linearGradient id="paint13_linear_1008_22744" x1="354.773" y1="169.197" x2="447.679" y2="845.245" gradientUnits="userSpaceOnUse">
<stop offset="0.243332" stop-color="white"/>
<stop offset="0.933233" stop-color="#FFB7BF" stop-opacity="0.53"/>
</linearGradient>
</defs>
</svg>
