<svg width="230" height="676" viewBox="0 0 230 676" fill="none" xmlns="http://www.w3.org/2000/svg">
<path d="M41.861 88.7376C40.0677 88.2196 38.4089 87.2737 36.8845 85.9C35.3602 84.5263 34.1497 82.9166 33.253 81.0709C32.3564 79.2252 31.908 77.369 31.908 75.5023V70.8123L42.3318 73.8236V77.9536L69.7698 85.8802V77.0602L41.861 68.9976C40.0677 68.4796 38.4089 67.5337 36.8845 66.16C35.3602 64.7863 34.1497 63.1999 33.253 61.4009C32.3564 59.5552 31.908 57.6757 31.908 55.7623V45.8223C31.908 43.909 32.3564 42.3118 33.253 41.0309C34.1497 39.7032 35.3602 38.7929 36.8845 38.3C38.4089 37.807 40.0677 37.8196 41.861 38.3376L70.375 46.575C72.1684 47.0931 73.8048 48.0325 75.2843 49.3932C76.8086 50.7669 78.0191 52.3766 78.9158 54.2223C79.8573 56.0343 80.328 57.897 80.328 59.8103V64.5003L69.7698 61.4502V57.3202L42.3318 49.3936V58.2136L70.375 66.315C72.1684 66.8331 73.8048 67.7725 75.2843 69.1332C76.8086 70.5069 78.0191 72.1166 78.9158 73.9623C79.8573 75.7743 80.328 77.637 80.328 79.5503V89.4903C80.328 91.357 79.8573 92.9477 78.9158 94.2623C78.0191 95.59 76.8086 96.5003 75.2843 96.9932C73.8048 97.4992 72.1684 97.4931 70.375 96.975L41.861 88.7376ZM87.8684 102.029V51.6287L132.59 64.5481V75.4681L98.4267 65.5988V74.4188L125.932 82.3648V93.2848L98.4267 85.3388V94.1588L132.59 104.028V114.948L87.8684 102.029ZM139.222 116.864V66.5342L177.622 77.6275C179.46 78.1585 181.119 79.1044 182.598 80.4651C184.123 81.8388 185.333 83.4485 186.23 85.2942C187.171 87.1529 187.642 89.0155 187.642 90.8822V103.902C187.642 105.769 187.171 107.36 186.23 108.674C185.333 110.002 184.123 110.912 182.598 111.405C181.119 111.911 179.46 111.898 177.622 111.367L149.646 103.356V119.876L139.222 116.864ZM149.646 92.3655L177.084 100.292V88.322L149.646 80.3955V92.3655ZM35.7221 174.964C33.9288 174.446 32.2924 173.507 30.8129 172.146C29.3334 170.785 28.1453 169.205 27.2486 167.406C26.3519 165.607 25.9036 163.798 25.9036 161.978V151.338C25.9036 150.544 26.0157 149.783 26.2399 149.055C26.464 148.28 26.733 147.564 27.0469 146.908C26.733 146.071 26.464 145.223 26.2399 144.365C26.0157 143.46 25.9036 142.588 25.9036 141.748V131.878C25.9036 130.011 26.3519 128.437 27.2486 127.156C28.1453 125.875 29.3334 125.005 30.8129 124.546C32.2924 124.04 33.9288 124.046 35.7221 124.564L63.6309 132.627C65.2449 133.093 66.7468 133.9 68.1366 135.048C69.5264 136.15 70.6921 137.467 71.6336 138.999C72.5751 140.531 73.1804 142.129 73.4494 143.793V155.483C73.4494 157.116 73.0683 158.616 72.3061 159.983C73.0683 161.603 73.4494 163.3 73.4494 165.073V175.713C73.4494 177.533 73.001 179.084 72.1044 180.365C71.2077 181.646 70.0196 182.539 68.5401 183.045C67.0606 183.551 65.4242 183.545 63.6309 183.027L35.7221 174.964ZM36.1929 164.39L63.1601 172.181V162.731L36.1929 154.94V164.39ZM36.1929 144.86L63.1601 152.651V143.271L36.1929 135.48V144.86ZM82.1236 173.039V162.329L110.167 170.43V181.14L82.1236 173.039ZM128.836 201.864V167.774L126.616 170.002L112.965 166.059L128.432 151.347L139.125 154.436V204.836L128.836 201.864ZM152.751 208.773C150.958 208.255 149.299 207.309 147.775 205.935C146.25 204.561 145.04 202.952 144.143 201.106C143.247 199.26 142.798 197.404 142.798 195.537V165.857C142.798 163.944 143.247 162.347 144.143 161.066C145.04 159.738 146.25 158.828 147.775 158.335C149.299 157.842 150.958 157.855 152.751 158.373L181.265 166.61C183.059 167.128 184.695 168.067 186.175 169.428C187.699 170.802 188.909 172.412 189.806 174.257C190.748 176.069 191.218 177.932 191.218 179.845V209.525C191.218 211.392 190.748 212.983 189.806 214.297C188.909 215.625 187.699 216.535 186.175 217.028C184.695 217.534 183.059 217.528 181.265 217.01L152.751 208.773ZM153.222 197.989L180.66 205.915V177.355L153.222 169.429V197.989Z" fill="#060E18"/>
<g filter="url(#filter0_f_1628_1940)">
<path d="M49.861 85.7376C48.0677 85.2196 46.4089 84.2737 44.8845 82.9C43.3602 81.5263 42.1497 79.9166 41.253 78.0709C40.3564 76.2252 39.908 74.369 39.908 72.5023V67.8123L50.3318 70.8236V74.9536L77.7698 82.8802V74.0602L49.861 65.9976C48.0677 65.4796 46.4089 64.5337 44.8845 63.16C43.3602 61.7863 42.1497 60.1999 41.253 58.4009C40.3564 56.5552 39.908 54.6757 39.908 52.7623V42.8223C39.908 40.909 40.3564 39.3118 41.253 38.0309C42.1497 36.7032 43.3602 35.7929 44.8845 35.3C46.4089 34.807 48.0677 34.8196 49.861 35.3376L78.375 43.575C80.1684 44.0931 81.8048 45.0325 83.2843 46.3932C84.8086 47.7669 86.0191 49.3766 86.9158 51.2223C87.8573 53.0343 88.328 54.897 88.328 56.8103V61.5003L77.7698 58.4502V54.3202L50.3318 46.3936V55.2136L78.375 63.315C80.1684 63.8331 81.8048 64.7725 83.2843 66.1332C84.8086 67.5069 86.0191 69.1166 86.9158 70.9623C87.8573 72.7743 88.328 74.637 88.328 76.5503V86.4903C88.328 88.357 87.8573 89.9477 86.9158 91.2623C86.0191 92.59 84.8086 93.5003 83.2843 93.9932C81.8048 94.4992 80.1684 94.4931 78.375 93.975L49.861 85.7376ZM95.8684 99.0287V48.6287L140.59 61.5481V72.4681L106.427 62.5988V71.4188L133.932 79.3648V90.2848L106.427 82.3388V91.1588L140.59 101.028V111.948L95.8684 99.0287ZM147.222 113.864V63.5342L185.622 74.6275C187.46 75.1585 189.119 76.1044 190.598 77.4651C192.123 78.8388 193.333 80.4485 194.23 82.2942C195.171 84.1529 195.642 86.0155 195.642 87.8822V100.902C195.642 102.769 195.171 104.36 194.23 105.674C193.333 107.002 192.123 107.912 190.598 108.405C189.119 108.911 187.46 108.898 185.622 108.367L157.646 100.356V116.876L147.222 113.864ZM157.646 89.3655L185.084 97.292V85.322L157.646 77.3955V89.3655ZM43.7221 171.964C41.9288 171.446 40.2924 170.507 38.8129 169.146C37.3334 167.785 36.1453 166.205 35.2486 164.406C34.3519 162.607 33.9036 160.798 33.9036 158.978V148.338C33.9036 147.544 34.0157 146.783 34.2399 146.055C34.464 145.28 34.733 144.564 35.0469 143.908C34.733 143.071 34.464 142.223 34.2399 141.365C34.0157 140.46 33.9036 139.588 33.9036 138.748V128.878C33.9036 127.011 34.3519 125.437 35.2486 124.156C36.1453 122.875 37.3334 122.005 38.8129 121.546C40.2924 121.04 41.9288 121.046 43.7221 121.564L71.6309 129.627C73.2449 130.093 74.7468 130.9 76.1366 132.048C77.5264 133.15 78.6921 134.467 79.6336 135.999C80.5751 137.531 81.1804 139.129 81.4494 140.793V152.483C81.4494 154.116 81.0683 155.616 80.3061 156.983C81.0683 158.603 81.4494 160.3 81.4494 162.073V172.713C81.4494 174.533 81.001 176.084 80.1044 177.365C79.2077 178.646 78.0196 179.539 76.5401 180.045C75.0606 180.551 73.4242 180.545 71.6309 180.027L43.7221 171.964ZM44.1929 161.39L71.1601 169.181V159.731L44.1929 151.94V161.39ZM44.1929 141.86L71.1601 149.651V140.271L44.1929 132.48V141.86ZM90.1236 170.039V159.329L118.167 167.43V178.14L90.1236 170.039ZM136.836 198.864V164.774L134.616 167.002L120.965 163.059L136.432 148.347L147.125 151.436V201.836L136.836 198.864ZM160.751 205.773C158.958 205.255 157.299 204.309 155.775 202.935C154.25 201.561 153.04 199.952 152.143 198.106C151.247 196.26 150.798 194.404 150.798 192.537V162.857C150.798 160.944 151.247 159.347 152.143 158.066C153.04 156.738 154.25 155.828 155.775 155.335C157.299 154.842 158.958 154.855 160.751 155.373L189.265 163.61C191.059 164.128 192.695 165.067 194.175 166.428C195.699 167.802 196.909 169.412 197.806 171.257C198.748 173.069 199.218 174.932 199.218 176.845V206.525C199.218 208.392 198.748 209.983 197.806 211.297C196.909 212.625 195.699 213.535 194.175 214.028C192.695 214.534 191.059 214.528 189.265 214.01L160.751 205.773ZM161.222 194.989L188.66 202.915V174.355L161.222 166.429V194.989Z" fill="#E7374D"/>
</g>
<path fill-rule="evenodd" clip-rule="evenodd" d="M44.8845 82.9C46.4089 84.2737 48.0677 85.2196 49.861 85.7377L78.375 93.975C80.1684 94.4931 81.8048 94.4992 83.2843 93.9933C84.8086 93.5003 86.0191 92.59 86.9158 91.2624C87.8573 89.9477 88.328 88.357 88.328 86.4903V76.5503C88.328 74.637 87.8573 72.7744 86.9158 70.9624C86.0191 69.1167 84.8086 67.507 83.2843 66.1333C81.8048 64.7725 80.1684 63.8331 78.375 63.315L50.3318 55.2137V46.3937L77.7698 54.3202V58.4502L88.328 61.5003V56.8103C88.328 54.897 87.8573 53.0344 86.9158 51.2224C86.0191 49.3767 84.8086 47.767 83.2843 46.3933C81.8048 45.0325 80.1684 44.0931 78.375 43.575L49.861 35.3377C48.0677 34.8196 46.4089 34.807 44.8845 35.3C43.3602 35.793 42.1497 36.7033 41.253 38.0309C40.3564 39.3119 39.908 40.909 39.908 42.8223V52.7623C39.908 54.6757 40.3564 56.5552 41.253 58.4009C42.1497 60.1999 43.3602 61.7863 44.8845 63.16C46.4089 64.5337 48.0677 65.4796 49.861 65.9977L77.7698 74.0602V82.8802L50.3318 74.9537V70.8237L39.908 67.8123V72.5023C39.908 74.369 40.3564 76.2252 41.253 78.0709C42.1497 79.9166 43.3602 81.5263 44.8845 82.9ZM95.8684 48.6287V99.0287L140.59 111.948V101.028L106.427 91.1588V82.3388L133.932 90.2848V79.3648L106.427 71.4188V62.5988L140.59 72.4682V61.5482L95.8684 48.6287ZM147.222 63.5342V113.864L157.646 116.876V100.356L185.622 108.367C187.46 108.899 189.119 108.911 190.598 108.405C192.123 107.912 193.333 107.002 194.23 105.674C195.171 104.36 195.642 102.769 195.642 100.902V87.8822C195.642 86.0156 195.171 84.1529 194.23 82.2942C193.333 80.4485 192.123 78.8388 190.598 77.4651C189.119 76.1044 187.46 75.1585 185.622 74.6275L147.222 63.5342ZM185.084 97.2921L157.646 89.3655V77.3955L185.084 85.3221V97.2921ZM38.8129 169.146C40.2924 170.507 41.9288 171.446 43.7221 171.964L71.6309 180.027C73.4242 180.545 75.0606 180.551 76.5401 180.045C78.0196 179.539 79.2077 178.646 80.1044 177.365C81.001 176.084 81.4494 174.533 81.4494 172.713V162.073C81.4494 160.3 81.0683 158.603 80.3061 156.983C81.0683 155.616 81.4494 154.117 81.4494 152.483V140.793C81.1804 139.129 80.5751 137.531 79.6336 135.999C78.6921 134.467 77.5264 133.15 76.1366 132.048C74.7468 130.9 73.2449 130.093 71.6309 129.627L43.7221 121.564C41.9288 121.046 40.2924 121.04 38.8129 121.546C37.3334 122.005 36.1453 122.875 35.2486 124.156C34.3519 125.437 33.9036 127.011 33.9036 128.878V138.748C33.9036 139.588 34.0157 140.46 34.2399 141.365C34.464 142.223 34.733 143.071 35.0469 143.908C34.733 144.564 34.464 145.28 34.2399 146.055C34.0157 146.783 33.9036 147.544 33.9036 148.338V158.978C33.9036 160.798 34.3519 162.607 35.2486 164.406C36.1453 166.205 37.3334 167.785 38.8129 169.146ZM71.1601 169.181L44.1929 161.39V151.94L71.1601 159.731V169.181ZM71.1601 149.651L44.1929 141.86V132.48L71.1601 140.271V149.651ZM90.1236 159.329V170.039L118.167 178.14V167.43L90.1236 159.329ZM136.836 164.774V198.864L147.125 201.836V151.436L136.432 148.347L120.965 163.059L134.616 167.003L136.836 164.774ZM155.775 202.935C157.299 204.309 158.958 205.255 160.751 205.773L189.265 214.01C191.059 214.528 192.695 214.534 194.175 214.028C195.699 213.535 196.909 212.625 197.806 211.297C198.748 209.983 199.218 208.392 199.218 206.525V176.845C199.218 174.932 198.748 173.069 197.806 171.257C196.909 169.412 195.699 167.802 194.175 166.428C192.695 165.067 191.059 164.128 189.265 163.61L160.751 155.373C158.958 154.855 157.299 154.842 155.775 155.335C154.25 155.828 153.04 156.738 152.143 158.066C151.247 159.347 150.798 160.944 150.798 162.857V192.537C150.798 194.404 151.247 196.26 152.143 198.106C153.04 199.952 154.25 201.561 155.775 202.935ZM188.66 202.915L161.222 194.989V166.429L188.66 174.355V202.915ZM0.5 52V193.5C0.5 194.287 0.870485 195.028 1.5 195.5L212.5 353.75V676H217.5V352.5C217.5 351.713 217.13 350.972 216.5 350.5L5.5 192.25V52H0.5Z" fill="white"/>
<defs>
<filter id="filter0_f_1628_1940" x="3.90363" y="0.727539" width="225.315" height="246.158" filterUnits="userSpaceOnUse" color-interpolation-filters="sRGB">
<feFlood flood-opacity="0" result="BackgroundImageFix"/>
<feBlend mode="normal" in="SourceGraphic" in2="BackgroundImageFix" result="shape"/>
<feGaussianBlur stdDeviation="15" result="effect1_foregroundBlur_1628_1940"/>
</filter>
</defs>
</svg>
