<svg width="402" height="193" viewBox="0 0 402 193" fill="none" xmlns="http://www.w3.org/2000/svg">
<path d="M37.9 181V145H71.05V151.65H44.55V159.65H65.85V166.35H44.55V174.35H71.05V181H37.9ZM76.1813 181V145H105.181C106.448 145 107.615 145.317 108.681 145.95C109.748 146.583 110.598 147.433 111.231 148.5C111.865 149.533 112.181 150.683 112.181 151.95V174.05C112.181 175.317 111.865 176.483 111.231 177.55C110.598 178.583 109.748 179.417 108.681 180.05C107.615 180.683 106.448 181 105.181 181H76.1813ZM83.3313 174.35H104.881C105.048 174.35 105.198 174.3 105.331 174.2C105.465 174.067 105.531 173.917 105.531 173.75V152.25C105.531 152.083 105.465 151.95 105.331 151.85C105.198 151.717 105.048 151.65 104.881 151.65H83.3313C83.1646 151.65 83.0146 151.717 82.8813 151.85C82.7813 151.95 82.7313 152.083 82.7313 152.25V173.75C82.7313 173.917 82.7813 174.067 82.8813 174.2C83.0146 174.3 83.1646 174.35 83.3313 174.35ZM124.63 181C123.364 181 122.197 180.683 121.13 180.05C120.097 179.417 119.264 178.583 118.63 177.55C117.997 176.483 117.68 175.317 117.68 174.05V145H124.28V173.75C124.28 173.917 124.33 174.067 124.43 174.2C124.564 174.3 124.714 174.35 124.88 174.35H146.38C146.547 174.35 146.697 174.3 146.83 174.2C146.964 174.067 147.03 173.917 147.03 173.75V145H153.68V174.05C153.68 175.317 153.364 176.483 152.73 177.55C152.097 178.583 151.247 179.417 150.18 180.05C149.147 180.683 147.997 181 146.73 181H124.63ZM166.137 181C164.87 181 163.703 180.683 162.637 180.05C161.603 179.417 160.77 178.583 160.137 177.55C159.503 176.483 159.187 175.317 159.187 174.05V151.95C159.187 150.683 159.503 149.533 160.137 148.5C160.77 147.433 161.603 146.583 162.637 145.95C163.703 145.317 164.87 145 166.137 145H195.087V151.65H167.537C167.003 151.65 166.57 151.8 166.237 152.1C165.937 152.4 165.787 152.833 165.787 153.4V172.6C165.787 173.133 165.937 173.567 166.237 173.9C166.57 174.2 167.003 174.35 167.537 174.35H195.087V181H166.137ZM200.4 181V151.95C200.4 150.683 200.717 149.533 201.35 148.5C201.983 147.433 202.817 146.583 203.85 145.95C204.917 145.317 206.083 145 207.35 145H229.4C230.667 145 231.833 145.317 232.9 145.95C233.967 146.583 234.817 147.433 235.45 148.5C236.083 149.533 236.4 150.683 236.4 151.95V181H229.75V168.9H207V181H200.4ZM207 162.3H229.75V152.25C229.75 152.083 229.683 151.95 229.55 151.85C229.417 151.717 229.267 151.65 229.1 151.65H207.6C207.433 151.65 207.283 151.717 207.15 151.85C207.05 151.95 207 152.083 207 152.25V162.3ZM254.997 181V151.65H240.297V145H276.297V151.65H261.647V181H254.997ZM279.336 181V145H285.886V181H279.336ZM297.58 181C296.313 181 295.146 180.683 294.08 180.05C293.046 179.417 292.213 178.583 291.58 177.55C290.946 176.483 290.63 175.317 290.63 174.05V151.95C290.63 150.683 290.946 149.533 291.58 148.5C292.213 147.433 293.046 146.583 294.08 145.95C295.146 145.317 296.313 145 297.58 145H319.68C320.946 145 322.096 145.317 323.13 145.95C324.196 146.583 325.046 147.433 325.68 148.5C326.313 149.533 326.63 150.683 326.63 151.95V174.05C326.63 175.317 326.313 176.483 325.68 177.55C325.046 178.583 324.196 179.417 323.13 180.05C322.096 180.683 320.946 181 319.68 181H297.58ZM297.83 174.35H319.33C319.496 174.35 319.646 174.3 319.78 174.2C319.913 174.067 319.98 173.917 319.98 173.75V152.25C319.98 152.083 319.913 151.95 319.78 151.85C319.646 151.717 319.496 151.65 319.33 151.65H297.83C297.663 151.65 297.513 151.717 297.38 151.85C297.28 151.95 297.23 152.083 297.23 152.25V173.75C297.23 173.917 297.28 174.067 297.38 174.2C297.513 174.3 297.663 174.35 297.83 174.35ZM332.136 181V145H339.386L361.486 171.3V145H368.136V181H360.886L338.736 154.65V181H332.136Z" fill="#F04565"/>
<path d="M284 1.5L175 68V129.5" stroke="#F04565" stroke-width="3"/>
<path d="M3 156L19.6865 131H381.228L400 156" stroke="#F04565" stroke-width="5"/>
</svg>
