<svg width="196" height="196" viewBox="0 0 196 196" fill="none" xmlns="http://www.w3.org/2000/svg">
<path d="M131.399 130.291C113.105 148.585 83.2089 148.478 64.6229 129.892C46.0368 111.306 45.9302 81.4094 64.2237 63.1159C82.5172 44.8224 112.414 44.929 131 63.5151C149.586 82.1011 149.692 111.998 131.399 130.291Z" stroke="#FCAA84" stroke-width="10"/>
<path d="M55.8304 138.684C79.251 162.105 117.042 162.326 140.238 139.129C163.435 115.933 163.214 78.1417 139.794 54.7211C116.373 31.3005 78.5822 31.0797 55.3856 54.2763C32.189 77.4729 32.4097 115.264 55.8304 138.684Z" stroke="#FCAA84" stroke-width="3"/>
<path d="M73.6716 121.549C87.5243 135.402 109.886 135.54 123.618 121.808C137.349 108.076 137.212 85.7146 123.359 71.8618C109.506 58.0091 87.1447 57.8717 73.4131 71.6033C59.6814 85.3349 59.8188 107.697 73.6716 121.549Z" stroke="#FCAA84" stroke-width="3"/>
<path d="M145.37 47.7295L115.991 77.1086" stroke="#FCAA84" stroke-width="5"/>
<path d="M77.5225 116.285L48.1433 145.664" stroke="#FCAA84" stroke-width="5"/>
<path d="M116.907 116.498L146.606 146.197" stroke="#FCAA84" stroke-width="5"/>
<path d="M48.3262 49.3145L78.0247 79.0129" stroke="#FCAA84" stroke-width="5"/>
</svg>
