<svg width="486" height="145" viewBox="0 0 486 145" fill="none" xmlns="http://www.w3.org/2000/svg">
<path d="M32.9 133V97H66.05V103.65H39.55V111.65H60.85V118.35H39.55V126.35H66.05V133H32.9ZM71.0813 133V97H78.3313L100.431 123.3V97H107.081V133H99.8313L77.6813 106.65V133H71.0813ZM132.483 133L111.633 97H119.333L135.433 125L151.583 97H159.233L138.383 133H132.483ZM162.129 133V97H168.679V133H162.129ZM202.223 133L191.373 120.05H200.023L209.423 131.15V133H202.223ZM173.523 133V97.05H202.523C203.789 97.05 204.956 97.3667 206.023 98C207.089 98.6333 207.939 99.4833 208.573 100.55C209.206 101.583 209.523 102.733 209.523 104V113.7C209.523 114.967 209.206 116.133 208.573 117.2C207.939 118.267 207.089 119.117 206.023 119.75C204.956 120.35 203.789 120.65 202.523 120.65L180.123 120.7V133H173.523ZM180.723 114H202.223C202.389 114 202.539 113.95 202.673 113.85C202.806 113.75 202.873 113.617 202.873 113.45V104.25C202.873 104.083 202.806 103.95 202.673 103.85C202.539 103.717 202.389 103.65 202.223 103.65H180.723C180.556 103.65 180.406 103.717 180.273 103.85C180.173 103.95 180.123 104.083 180.123 104.25V113.45C180.123 113.617 180.173 113.75 180.273 113.85C180.406 113.95 180.556 114 180.723 114ZM221.632 133C220.366 133 219.199 132.683 218.132 132.05C217.099 131.417 216.266 130.583 215.632 129.55C214.999 128.483 214.682 127.317 214.682 126.05V103.95C214.682 102.683 214.999 101.533 215.632 100.5C216.266 99.4333 217.099 98.5833 218.132 97.95C219.199 97.3167 220.366 97 221.632 97H243.732C244.999 97 246.149 97.3167 247.182 97.95C248.249 98.5833 249.099 99.4333 249.732 100.5C250.366 101.533 250.682 102.683 250.682 103.95V126.05C250.682 127.317 250.366 128.483 249.732 129.55C249.099 130.583 248.249 131.417 247.182 132.05C246.149 132.683 244.999 133 243.732 133H221.632ZM221.882 126.35H243.382C243.549 126.35 243.699 126.3 243.832 126.2C243.966 126.067 244.032 125.917 244.032 125.75V104.25C244.032 104.083 243.966 103.95 243.832 103.85C243.699 103.717 243.549 103.65 243.382 103.65H221.882C221.716 103.65 221.566 103.717 221.432 103.85C221.332 103.95 221.282 104.083 221.282 104.25V125.75C221.282 125.917 221.332 126.067 221.432 126.2C221.566 126.3 221.716 126.35 221.882 126.35ZM256.189 133V97H263.439L285.539 123.3V97H292.189V133H284.939L262.789 106.65V133H256.189ZM297.79 133V97H305.04L318.09 112.55L331.09 97H338.39V133H331.74V106.6L318.09 122.85L304.39 106.65V133H297.79ZM344.277 133V97H377.427V103.65H350.927V111.65H372.227V118.35H350.927V126.35H377.427V133H344.277ZM382.458 133V97H389.708L411.808 123.3V97H418.458V133H411.208L389.058 106.65V133H382.458ZM436.96 133V103.65H422.26V97H458.26V103.65H443.61V133H436.96Z" fill="#F04565"/>
<path d="M428 2L359.383 41.1023L326 84.5" stroke="#F04565" stroke-width="3"/>
<path d="M3 108L19.6865 82.9995L465 82.9993L483.772 107.999" stroke="#F04565" stroke-width="5"/>
</svg>
