<svg xmlns="http://www.w3.org/2000/svg" xmlns:xlink="http://www.w3.org/1999/xlink" fill="none" viewBox="0 0 1440 3581">
  <defs>
    <path id="u" fill="#D74C55" d="m154.32 537.08-6.84 2.04c.4 3.45 3.35 5.58 6.84 4.96v-7Zm-4.08-5.98-3.78 6.53 3.78-6.53Zm-15.44 1.61-2.73-5.94-.02.01 2.75 5.93Zm-4.42 4.23-5.54-3.18-.03.05 5.57 3.13Zm-.48 9.06-5.75 4.88.08.1 5.67-4.98Zm2.86 2.25-3.67 6.57.07.03 3.6-6.6Zm3.63 1.14-2.38 7h.09l2.3-7Zm3.5.49 1.8-7.08h-.05l-1.75 7.08Zm5.82.55-1.8 7.08a.6.6 0 0 0 .05 0l1.75-7.08Zm4.98.77-2.44 6.98h.02l2.42-6.98Zm5.28 1.92-4 6.42.08.04 3.92-6.46Zm4.2 3.86 5.92-4.63-5.92 4.63Zm-.78 15.57-5.79-2.79-.01.04 5.8 2.75Zm-7.05 7.3-2.97-5.8-.01.02 2.98 5.78Zm-21.88 4.12-2.8 6.9h.02l2.78-6.9Zm-7.05-4.38-5.6 5.08.02.02 5.59-5.1Zm-2.88-7.86v-7a8.43 8.43 0 0 0-5.04 3.12 8.24 8.24 0 0 0-1.83 5.6l6.87-1.72Zm7.16-1.28 6.87-1.82c-.3-3.56-3.29-5.81-6.87-5.18v7Zm2.19 5.07-5.14 5.58.06.06 5.08-5.64Zm4.86 2.32-2.29 7 .08.02 2.21-7.02Zm13.51-2.69 2.6 6.02c.02 0 .03-.02.05-.03l-2.65-5.99Zm5-4.58 5.4 3.4.03-.04-5.42-3.36Zm.26-10.33 5.15-5.57-5.15 5.57Zm-4.2-2.21-2.72 6.91 2.73-6.91Zm-5.62-.99-1.89 7.07h.05l1.84-7.07Zm-7.04-.8-1.9 7.07 1.9-7.06Zm-10.63-3.7-4.65 6 4.65-6Zm-1.32-17.8-5.57-3.14v.01l5.57 3.13Zm7.05-6.94 2.82 5.88h.02l-2.84-5.88Zm19.78-3.54-2.89 6.87h.03l2.86-6.87Zm6.82 4.24-5.55 5.14.03.02 5.52-5.16Zm2.69 7.39v7a8.4 8.4 0 0 0 4.95-3.01c1.3-1.6 2-3.56 1.93-5.44l-6.88 1.45Zm.13-.85c-.58-4.83-3.06-8.46-7.15-10.46l-7.56 13.05c.68.33.92.69 1.02 1.5l13.69-4.09Zm-7.15-10.46c-3.73-1.82-8.04-2.1-12.56-1.3v14c2.41-.43 3.95-.16 5 .35l7.56-13.05Zm-12.56-1.3a26.64 26.64 0 0 0-9.4 3.49l5.47 11.88c.87-.53 2.12-1.05 3.93-1.37v-14Zm-9.41 3.5a22.73 22.73 0 0 0-7.21 6.98l11.08 6.36c.24-.38.69-.9 1.63-1.48l-5.5-11.86Zm-7.24 7.03a17.8 17.8 0 0 0-2.89 9.6l13.79-2.45c0-.42.08-.64.24-.9l-11.14-6.25Zm-2.89 9.6c0 2.7.65 5.32 2.23 7.47l11.5-9.76c.03.02.04.06.06.09l.02.05s-.02-.08-.02-.3l-13.79 2.45Zm2.31 7.57a12.88 12.88 0 0 0 4.86 3.84l7.34-13.15a2.1 2.1 0 0 1-.85-.65l-11.35 9.96Zm4.93 3.88a22.8 22.8 0 0 0 4.85 1.52l4.76-13.98c-.84-.17-1.64-.42-2.41-.76l-7.2 13.22Zm4.94 1.54c1.4.25 2.76.44 4.04.56l3.5-14.17a32.7 32.7 0 0 1-2.95-.4l-4.6 14Zm4 .55 5.82.56 3.58-14.15-5.82-.56-3.58 14.15Zm5.86.56c1.2.11 2.63.33 4.3.67l4.86-13.97c-2-.4-3.89-.7-5.66-.86l-3.5 14.16Zm4.31.67c1.26.25 2.5.7 3.7 1.36l8-12.83a24.39 24.39 0 0 0-6.87-2.5l-4.83 13.97Zm3.78 1.4c.85.44 1.58 1.1 2.2 2.04l11.84-9.27a16.53 16.53 0 0 0-6.2-5.68l-7.84 12.9Zm2.2 2.04c.32.5.68 1.42.68 3.2l13.78-2.45c0-3.68-.75-7.16-2.62-10.02l-11.84 9.27Zm.68 3.2a9.6 9.6 0 0 1-1.33 4.94l11.56 5.57a25.82 25.82 0 0 0 3.55-12.96l-13.78 2.45Zm-1.34 4.98a12.7 12.7 0 0 1-4.22 4.26l5.93 11.59a30.53 30.53 0 0 0 9.88-10.35l-11.6-5.5Zm-4.23 4.27c-1.92 1.27-4.58 2.37-8.24 3.02v14a37.13 37.13 0 0 0 14.2-5.46l-5.96-11.56Zm-8.24 3.02c-3.38.6-5.94.5-7.88-.02l-5.56 13.8c4.07 1.1 8.61 1.08 13.44.22v-14Zm-7.86-.02a7.96 7.96 0 0 1-4.26-2.57l-11.17 10.2a18.74 18.74 0 0 0 9.84 6.16l5.59-13.79Zm-4.24-2.55a7.78 7.78 0 0 1-1.61-4.51l-13.75 3.44c.3 4.3 1.66 8.12 4.15 11.22l11.2-10.15Zm-8.49 4.2 7.16-1.27v-14l-7.16 1.28v14Zm.3-6.45c.3 3.44 1.5 6.53 3.91 8.83l10.27-11.16c-.13-.13-.37-.41-.45-1.3l-13.73 3.63Zm3.97 8.9a14.94 14.94 0 0 0 7.65 3.68l4.58-14.02c-1-.18-1.63-.53-2.08-.95l-10.15 11.28Zm7.73 3.69c2.75.46 5.63.4 8.59-.13v-14c-1.59.28-2.96.28-4.16.08l-4.43 14.05Zm8.59-.13c3.4-.6 6.67-1.75 9.73-3.56l-5.2-12.04a13.41 13.41 0 0 1-4.53 1.6v14Zm9.78-3.59a24.75 24.75 0 0 0 7.75-7.17l-10.78-6.8a6.99 6.99 0 0 1-2.26 1.99l5.29 11.98Zm7.78-7.21a18.5 18.5 0 0 0 3.32-10.48l-13.79 2.45c0 .63-.14.97-.37 1.3l10.84 6.73Zm3.32-10.48c0-3.3-.95-6.48-3.34-8.78l-10.3 11.14a.83.83 0 0 1-.17-.26c-.02-.05.02.03.02.35l13.79-2.45Zm-3.34-8.78a14.69 14.69 0 0 0-6.62-3.55l-5.45 13.82c.98.26 1.5.6 1.77.87l10.3-11.14Zm-6.62-3.55a43.34 43.34 0 0 0-6.5-1.15l-3.7 14.14c1.75.18 3.33.47 4.75.83l5.45-13.83Zm-6.45-1.15-7.05-.79-3.79 14.14 7.05.79 3.79-14.14Zm-7.04-.79c-3.77-.43-6.27-1.42-7.88-2.63l-9.3 11.98c3.6 2.7 8.18 4.2 13.37 4.78l3.8-14.13Zm-7.88-2.63c-1.05-.78-1.68-1.9-1.68-4.05l-13.78 2.45c0 5.68 1.98 10.45 6.16 13.58l9.3-11.98Zm-1.68-4.05a8.3 8.3 0 0 1 1.29-4.64l-11.15-6.25a24.6 24.6 0 0 0-3.92 13.34l13.78-2.46Zm1.28-4.63a13.5 13.5 0 0 1 4.3-4.19l-5.64-11.76a31.43 31.43 0 0 0-9.8 9.68l11.14 6.27Zm4.32-4.2a19.26 19.26 0 0 1 7.09-2.68v-14c-4.52.8-8.81 2.41-12.77 4.94l5.68 11.74Zm7.09-2.68c2.86-.5 5.13-.4 6.96.14l5.77-13.74c-3.91-1.14-8.2-1.2-12.73-.4v14Zm7 .15a7.98 7.98 0 0 1 4.12 2.5l11.1-10.28a18.75 18.75 0 0 0-9.52-5.98l-5.7 13.76Zm4.15 2.52c.83 1 1.27 2.15 1.32 3.68l13.77-2.9a17.67 17.67 0 0 0-4.05-11.11l-11.04 10.33Zm8.2-4.77-6.7 1.2v14l6.7-1.2v-14ZM123 683.29l-6.9 1.22a5.66 5.66 0 0 0 6.9 5.78v-7Zm0-58.18v-7a8.66 8.66 0 0 0-6.9 8.22l6.9-1.22Zm30.37-2.93-3.4 6.69.04.02 3.36-6.71Zm6.38 5.48-6.16 4.25 6.16-4.25Zm0 18.67-6.17-2.04-.01.04 6.18 2Zm-6.32 7.83 3.4 5.48.03-.03-3.43-5.45Zm-24.84 6.88-6.9 1.23a5.66 5.66 0 0 0 6.9 5.77v-7Zm0-6.25v-7a8.66 8.66 0 0 0-6.9 8.23l6.9-1.23Zm21.06-5.36-3.41-5.47 3.41 5.47Zm4.06-5.1-6.24-1.86-.01.03 6.25 1.83Zm0-12.52-6.25 4.05.02.05 6.23-4.1Zm-4.09-3.6-3.34 6.72.05.02 3.3-6.74Zm-19.69 1.91v-7a8.66 8.66 0 0 0-6.89 8.23l6.9-1.23Zm0 51.93v7a8.66 8.66 0 0 0 6.9-8.22l-6.9 1.22Zm-.04.01v-58.18l-13.79 2.45v58.18l13.79-2.45Zm-6.9-49.95 19.36-3.45v-14L123 618.12v14Zm19.36-3.45c3.72-.66 6.11-.4 7.62.2l6.8-13.37c-4.2-1.68-9.15-1.76-14.42-.83v14Zm7.66.23a6.52 6.52 0 0 1 3.58 3.01l12.31-8.48a17.26 17.26 0 0 0-9.17-7.95l-6.72 13.42Zm3.58 3.01a12.18 12.18 0 0 1 1.34 5.94l13.78-2.45c0-4.41-.9-8.45-2.8-11.97l-12.32 8.49Zm1.34 5.94c0 2.44-.49 4.56-1.35 6.45l12.33 4.07a31.2 31.2 0 0 0 2.8-12.97l-13.78 2.45Zm-1.36 6.5a11.1 11.1 0 0 1-3.58 4.36l6.87 10.91a29.06 29.06 0 0 0 9.07-11.28l-12.36-4Zm-3.55 4.34c-1.5 1.14-3.89 2.25-7.56 2.9v14c5.24-.93 10.18-2.77 14.37-5.94l-6.8-10.96Zm-7.56 2.9-13.87 2.46v14l13.87-2.46v-14Zm-6.98 8.24v-6.25l-13.78 2.45v6.25l13.78-2.45Zm-6.9 1.97 13.66-2.42v-14l-13.65 2.42v14Zm13.66-2.42a25 25 0 0 0 10.82-4.47l-6.82-10.94c-.47.35-1.63.99-4 1.4v14Zm10.82-4.47a21.28 21.28 0 0 0 6.9-8.73l-12.5-3.67c-.2.45-.5.91-1.22 1.46l6.82 10.94Zm6.89-8.7a24.26 24.26 0 0 0 1.94-9.6l-13.79 2.45c0 1.44-.26 2.55-.63 3.42l12.48 3.73Zm1.94-9.6c0-3.21-.6-6.24-1.96-8.9l-12.45 8.21c.36.71.62 1.7.62 3.14l13.79-2.45Zm-1.93-8.85a12.56 12.56 0 0 0-7.04-6.27l-6.6 13.47c.7.26.97.57 1.14.91l12.5-8.11Zm-7-6.25c-3.26-1.26-7.04-1.22-10.83-.54v14c2.43-.44 3.65-.23 4.15-.03l6.69-13.43Zm-10.83-.54-12.2 2.16v14l12.2-2.16v-14Zm-19.09 10.39v51.93l13.78-2.45V628.9l-13.78 2.45Zm6.9 43.7L123 676.3v14l6.93-1.24v-14ZM123 780.3l-6.9 1.22a5.66 5.66 0 0 0 6.9 5.78v-7Zm0-58.18v-7a8.66 8.66 0 0 0-6.9 8.22l6.9-1.22Zm34.57-6.15 6.89-1.23a5.66 5.66 0 0 0-6.9-5.77v7Zm0 6.25v7a8.66 8.66 0 0 0 6.89-8.23l-6.9 1.23Zm-27.64 4.91v-7a8.66 8.66 0 0 0-6.89 8.23l6.9-1.23Zm0 19.66-6.89 1.23a5.66 5.66 0 0 0 6.9 5.77v-7Zm25.85-4.6 6.89-1.22a5.66 5.66 0 0 0-6.9-5.77v7Zm0 6.26v7a8.66 8.66 0 0 0 6.89-8.23l-6.9 1.23Zm-25.85 4.6v-7a8.66 8.66 0 0 0-6.89 8.22l6.9-1.23Zm0 19.76-6.89 1.23a5.66 5.66 0 0 0 6.9 5.77v-7Zm28.08-4.99 6.9-1.22a5.66 5.66 0 0 0-6.9-5.78v7Zm0 6.25v7a8.66 8.66 0 0 0 6.9-8.22l-6.9 1.22Zm-28.12 5v-58.18l-13.79 2.45v58.18l13.79-2.45Zm-6.9-49.95 34.58-6.15v-14L123 715.11v14Zm27.69-11.92v6.25l13.78-2.46v-6.25l-13.78 2.46Zm6.89-1.98-27.64 4.91v14l27.64-4.91v-14Zm-34.53 13.14V748l13.78-2.45V725.9l-13.78 2.45Zm6.9 25.43 25.84-4.6v-14l-25.85 4.6v14Zm18.94-10.37v6.25l13.79-2.45v-6.25l-13.78 2.45Zm6.9-1.97-25.85 4.6v14l25.85-4.6v-14Zm-32.74 12.82v19.77l13.78-2.45v-19.77l-13.78 2.45Zm6.9 25.54 28.07-4.99v-14l-28.08 5v14Zm21.18-10.76v6.25l13.79-2.45v-6.25l-13.79 2.45Zm6.9-1.98-35.03 6.23v14l35.02-6.23v-14Zm-32.68 109.81v7a8.7 8.7 0 0 0 6.5-5.81l-6.5-1.19Zm-7.27 1.3-6.47-1.27c-.77 2.29-.47 4.63.82 6.27a5.73 5.73 0 0 0 5.65 2v-7Zm21.04-61.93v-7a8.7 8.7 0 0 0-6.47 5.74l6.47 1.26Zm7.16-1.27 6.47-3.56c-1-2.58-3.58-3.95-6.47-3.44v7Zm21.03 54.44v7a8.56 8.56 0 0 0 5.65-4 7.53 7.53 0 0 0 .82-6.56l-6.47 3.56Zm-7.27 1.3-6.5 3.5c.98 2.61 3.58 4.01 6.5 3.5v-7Zm-17.12-45.94 6.5-3.5c-.98-2.62-3.58-4.02-6.5-3.5v7Zm-.45.08v-7a8.7 8.7 0 0 0-6.5 5.81l6.5 1.19Zm-14.43 28.82v-7a8.66 8.66 0 0 0-6.9 8.22l6.9-1.22Zm29.31-5.21 6.9-1.23a5.66 5.66 0 0 0-6.9-5.77v7Zm0 6.25v7a8.66 8.66 0 0 0 6.9-8.23l-6.9 1.23Zm-29.31 5.2-6.9 1.23a5.66 5.66 0 0 0 6.9 5.78v-7Zm-2.69 9.96-7.27 1.3v14l7.28-1.3v-14Zm-.8 9.56 21.04-61.92-12.94-2.53-21.04 61.92 12.94 2.53Zm14.57-56.19 7.16-1.27v-14l-7.16 1.27v14Zm.69-4.7 21.03 54.44 12.94-7.13-21.03-54.44-12.94 7.12Zm27.5 43.87-7.27 1.3v14l7.27-1.3v-14Zm-.78 4.8-17.12-45.94-12.99 7 17.12 45.93 13-7Zm-23.61-49.44-.45.08v14l.45-.08v-14Zm-6.94 5.9-17.12 52.01 12.99 2.38 17.12-52.02-13-2.38Zm-7.94 37 29.31-5.21v-14l-29.31 5.2v14Zm22.42-10.99v6.25l13.79-2.45v-6.25l-13.79 2.45Zm6.9-1.97-29.32 5.2v14l29.31-5.2v-14Zm-22.43 10.98v-6.25l-13.78 2.45v6.25l13.78-2.45ZM123 974.3l-6.9 1.22a5.66 5.66 0 0 0 6.9 5.78v-7Zm0-58.18v-7a8.66 8.66 0 0 0-6.9 8.22l6.9-1.22Zm6.93-1.24 6.9-1.22a5.66 5.66 0 0 0-6.9-5.78v7Zm0 28.87-6.89 1.22a5.66 5.66 0 0 0 6.9 5.78v-7Zm.67-.12v7a8.45 8.45 0 0 0 5.11-3.21l-5.1-3.8Zm25.74-33.44v-7a8.45 8.45 0 0 0-5.11 3.2l5.1 3.8Zm9.06-1.61 5.04 3.87c1.87-2.37 2.37-5.43 1.28-7.79-1.1-2.36-3.58-3.57-6.32-3.08v7Zm-24.06 30.52-5.04-3.87c-2.3 2.9-2.47 6.75-.43 9.1l5.47-5.23Zm24.06 27.66v7a8.66 8.66 0 0 0 6.18-5c1.16-2.6.89-5.4-.7-7.23l-5.48 5.23Zm-8.4 1.5-5.51 5.16a5.76 5.76 0 0 0 5.52 1.83v-7Zm-19.9-23.51 5.51-5.18a5.71 5.71 0 0 0-5.23-1.87 8.4 8.4 0 0 0-5.44 3.31l5.15 3.74Zm-7.17 9.45-5.15-3.73a8.31 8.31 0 0 0-1.74 4.96l6.9-1.23Zm0 18.86v7a8.66 8.66 0 0 0 6.9-8.22l-6.9 1.22Zm-.04.01v-58.18l-13.79 2.45v58.18l13.79-2.45Zm-6.9-49.95 6.94-1.24v-14l-6.94 1.24v14Zm.05-7.01v28.86l13.78-2.45v-28.86l-13.78 2.45Zm6.9 34.64.66-.12v-14l-.67.12v14Zm5.77-3.33 25.73-33.44-10.21-7.58-25.73 33.44 10.21 7.58Zm20.63-30.23 9.06-1.61v-14l-9.06 1.6v14Zm4.01-12.48-24.05 30.52 10.09 7.75 24.05-30.53-10.09-7.74Zm-24.48 39.62 24.06 27.66 10.94-10.46-24.05-27.65-10.95 10.45Zm29.53 15.43-8.4 1.5v14l8.4-1.5v-14Zm-2.87 3.32-19.92-23.5-11.04 10.34 19.92 23.5 11.04-10.34ZM131.94 941l-7.16 9.46 10.3 7.47 7.16-9.46-10.3-7.47Zm-8.9 14.42v18.86l13.78-2.45v-18.86l-13.78 2.45Zm6.9 10.63L123 967.3v14l6.93-1.24v-14ZM123 1071.3l-6.9 1.22a5.66 5.66 0 0 0 6.9 5.78v-7Zm0-58.18v-7a8.65 8.65 0 0 0-6.9 8.22l6.9-1.22Zm34.57-6.15 6.89-1.22a5.66 5.66 0 0 0-6.9-5.78v7Zm0 6.25v7a8.66 8.66 0 0 0 6.89-8.22l-6.9 1.22Zm-27.64 4.91v-7a8.67 8.67 0 0 0-6.89 8.23l6.9-1.23Zm0 19.66-6.89 1.23a5.66 5.66 0 0 0 6.9 5.77v-7Zm25.85-4.59 6.89-1.23a5.66 5.66 0 0 0-6.9-5.77v7Zm0 6.25v7a8.67 8.67 0 0 0 6.89-8.23l-6.9 1.23Zm-25.85 4.59v-7a8.67 8.67 0 0 0-6.89 8.23l6.9-1.23Zm0 19.78-6.89 1.22a5.66 5.66 0 0 0 6.9 5.78v-7Zm28.08-5 6.9-1.22a5.66 5.66 0 0 0-6.9-5.78v7Zm0 6.25v7a8.65 8.65 0 0 0 6.9-8.22l-6.9 1.22Zm-28.12 5v-58.18l-13.79 2.45v58.18l13.79-2.45Zm-6.9-49.95 34.58-6.15v-14l-34.57 6.15v14Zm27.69-11.92v6.25l13.78-2.45v-6.25l-13.78 2.45Zm6.89-1.98-27.64 4.91v14l27.64-4.91v-14Zm-34.53 13.14v19.66l13.78-2.45v-19.66l-13.78 2.45Zm6.9 25.43 25.84-4.59v-14l-25.85 4.59v14Zm18.94-10.37v6.25l13.79-2.45v-6.25l-13.78 2.45Zm6.9-1.97-25.85 4.59v14l25.85-4.59v-14Zm-32.74 12.82v19.77l13.78-2.45v-19.77l-13.78 2.45Zm6.9 25.55 28.07-5v-14l-28.08 5v14Zm21.18-10.77v6.25l13.79-2.45v-6.25l-13.79 2.45Zm6.9-1.98-35.03 6.23v14l35.02-6.23v-14Zm-35.03 110.23-6.89 1.22a5.66 5.66 0 0 0 6.9 5.78v-7Zm0-58.18v-7a8.65 8.65 0 0 0-6.89 8.22l6.9-1.22Zm30.38-3.07-3.24 6.75.03.01 3.21-6.76Zm6.38 5.2-6.11 4.32 6.1-4.32Zm0 18.29-6.1-2.19 6.1 2.19Zm-6.35 7.38 3.16 5.66.03-.02-3.2-5.64Zm-26.6 6.97-6.9 1.23a5.65 5.65 0 0 0 6.9 5.77v-7Zm0-6.36v-7a8.67 8.67 0 0 0-6.9 8.23l6.9-1.23Zm22.82-5.42-2.96-5.8-.02.02 2.98 5.78Zm4.09-4.59-6.13-2.13v.03l6.13 2.1Zm-4.12-15.43-3.1 6.8.05.01 3.06-6.81Zm-19.66 2.04v-7a8.67 8.67 0 0 0-6.89 8.23l6.9-1.23Zm0 51.94v7a8.67 8.67 0 0 0 6.9-8.23l-6.9 1.23Zm20.03-29.7 6.04-4.44a5.66 5.66 0 0 0-6.04-2.56v7Zm14.1 23.63v7a8.61 8.61 0 0 0 5.93-4.49c1.24-2.35 1.28-4.99.11-6.95l-6.04 4.44Zm-8.06 1.43-6.07 4.4a5.67 5.67 0 0 0 6.07 2.6v-7Zm-13.87-23.67v-7a8.63 8.63 0 0 0-5.92 4.46c-1.24 2.34-1.3 4.98-.15 6.94l6.07-4.4Zm-12.24 28.31v-58.18l-13.79 2.45v58.18l13.79-2.45Zm-6.9-49.95 19.36-3.44v-14l-19.35 3.44v14Zm19.36-3.44c3.75-.67 6.21-.45 7.78.12l6.48-13.51c-4.17-1.51-9.06-1.54-14.26-.61v14Zm7.81.13a6.04 6.04 0 0 1 3.48 2.76l12.22-8.64a16.8 16.8 0 0 0-9.28-7.65l-6.42 13.53Zm3.48 2.76a11.4 11.4 0 0 1 1.29 5.71l13.78-2.45c0-4.41-.9-8.44-2.85-11.9l-12.22 8.64Zm1.29 5.71c0 2.45-.49 4.43-1.28 6.07l12.2 4.38a29.74 29.74 0 0 0 2.86-12.9l-13.78 2.45Zm-1.28 6.07a10.04 10.04 0 0 1-3.44 3.94l6.38 11.27a28.06 28.06 0 0 0 9.25-10.83l-12.19-4.38Zm-3.41 3.91c-1.58 1.11-4.04 2.19-7.78 2.85v14c5.14-.91 9.97-2.63 14.1-5.53l-6.32-11.32Zm-7.78 2.85-15.66 2.78v14l15.66-2.78v-14Zm-8.77 8.56v-6.36l-13.78 2.45v6.36l13.78-2.45Zm-6.9 1.86 15.45-2.74v-14l-15.44 2.74v14Zm15.45-2.74a27.26 27.26 0 0 0 10.37-3.9l-5.97-11.56c-.6.4-1.92 1.02-4.4 1.46v14Zm10.34-3.88a20.08 20.08 0 0 0 7.26-8.29l-12.27-4.2c-.06.13-.2.43-.9.89l5.91 11.6Zm7.25-8.26a22.56 22.56 0 0 0 2.06-9.61l-13.79 2.45c0 1.47-.27 2.37-.52 2.9l12.25 4.26Zm2.06-9.61c0-3.2-.6-6.24-2.02-8.88l-12.33 8.46c.3.54.56 1.42.56 2.87l13.79-2.45Zm-2.02-8.88a12.23 12.23 0 0 0-7.22-5.89l-6.11 13.63c.67.22.88.49 1 .72l12.33-8.46Zm-7.17-5.87c-3.19-1.07-6.86-.98-10.57-.32v14c2.48-.45 3.78-.28 4.36-.08l6.21-13.6Zm-10.57-.32-12.2 2.16v14l12.2-2.16v-14Zm-19.09 10.39v51.93l13.78-2.45v-51.93l-13.78 2.45Zm6.9 43.71-6.94 1.23v14l6.93-1.23v-14Zm13.97-18.26 14.1 23.63 12.09-8.88-14.1-23.63-12.09 8.88Zm20.15 12.19-8.06 1.43v14l8.06-1.43v-14Zm-2 4.03-13.87-23.67-12.13 8.8 13.87 23.67 12.14-8.8Zm-19.93-12.27 7.83-1.39v-14l-7.83 1.39v14Zm12.2 70.33-6.85 2.04c.4 3.45 3.35 5.58 6.84 4.96v-7Zm-4.1-5.98-3.77 6.53 3.78-6.53Zm-15.43 1.61-2.73-5.94-.02.01 2.75 5.93Zm-4.42 4.23-5.54-3.18a.22.22 0 0 0-.03.05l5.57 3.13Zm-.48 9.06-5.75 4.88.08.1 5.67-4.98Zm2.86 2.25-3.67 6.57.07.03 3.6-6.6Zm3.63 1.14-2.38 6.99.09.02 2.3-7.01Zm3.5.49 1.8-7.08-.05-.01-1.75 7.09Zm5.82.55-1.8 7.08h.05l1.75-7.08Zm4.98.77-2.44 6.98h.02l2.42-6.98Zm5.28 1.92-4 6.42.08.04 3.92-6.46Zm4.2 3.86 5.92-4.64-5.92 4.64Zm-.78 15.57-5.79-2.79-.01.04 5.8 2.75Zm-7.05 7.3-2.97-5.79-.01.01 2.98 5.78Zm-21.88 4.12-2.8 6.89.02.01 2.78-6.9Zm-7.05-4.38-5.6 5.08.02.02 5.59-5.1Zm-2.88-7.86v-7a8.44 8.44 0 0 0-5.04 3.12 8.25 8.25 0 0 0-1.83 5.6l6.87-1.72Zm7.16-1.28 6.87-1.82c-.3-3.56-3.29-5.81-6.87-5.18v7Zm2.19 5.07-5.14 5.58.06.06 5.08-5.64Zm4.86 2.32-2.29 7.01a.2.2 0 0 1 .08.01l2.21-7.02Zm13.51-2.69 2.6 6.02.05-.03-2.65-5.99Zm5-4.58 5.4 3.39.03-.03-5.42-3.36Zm.26-10.33 5.15-5.57-5.15 5.57Zm-4.2-2.21-2.72 6.91 2.73-6.91Zm-5.62-.99-1.89 7.07h.05l1.84-7.07Zm-7.04-.79-1.9 7.06v.01l1.9-7.07Zm-10.63-3.71-4.65 5.99 4.65-5.99Zm-1.32-17.81-5.57-3.13v.01l5.57 3.12Zm7.05-6.93 2.82 5.88.02-.01-2.84-5.87Zm19.78-3.54-2.89 6.87.03.01 2.86-6.88Zm6.82 4.24-5.55 5.14.03.02 5.52-5.16Zm2.69 7.39v7a8.4 8.4 0 0 0 4.95-3.01c1.3-1.59 2-3.56 1.93-5.44l-6.88 1.45Zm.13-.85c-.58-4.83-3.06-8.46-7.15-10.46l-7.56 13.05c.68.33.92.69 1.02 1.49l13.69-4.08Zm-7.15-10.46c-3.73-1.82-8.04-2.1-12.56-1.3v14c2.41-.43 3.95-.16 5 .35l7.56-13.05Zm-12.56-1.3a26.56 26.56 0 0 0-9.4 3.49l5.47 11.88c.87-.53 2.12-1.05 3.93-1.37v-14Zm-9.41 3.5a22.74 22.74 0 0 0-7.21 6.98l11.08 6.36c.24-.38.69-.89 1.63-1.48l-5.5-11.86Zm-7.24 7.03a17.79 17.79 0 0 0-2.89 9.6l13.79-2.45c0-.42.08-.64.24-.9l-11.14-6.25Zm-2.89 9.6c0 2.7.65 5.32 2.23 7.47l11.5-9.76c.03.02.04.06.06.09l.02.05s-.02-.08-.02-.3l-13.79 2.45Zm2.31 7.57a12.84 12.84 0 0 0 4.86 3.84l7.34-13.15c-.4-.18-.66-.4-.85-.66l-11.35 9.97Zm4.93 3.87c1.54.69 3.16 1.2 4.85 1.53l4.76-13.98a11.7 11.7 0 0 1-2.41-.76l-7.2 13.21Zm4.94 1.55c1.4.25 2.76.44 4.04.56l3.5-14.17a33.1 33.1 0 0 1-2.95-.41l-4.6 14.02Zm4 .55 5.82.56 3.58-14.16-5.82-.55-3.58 14.15Zm5.86.56c1.2.11 2.63.33 4.3.67l4.86-13.97c-2-.41-3.89-.7-5.66-.86l-3.5 14.16Zm4.31.67c1.26.26 2.5.7 3.7 1.36l8-12.83a24.3 24.3 0 0 0-6.87-2.5l-4.83 13.97Zm3.78 1.4a5.9 5.9 0 0 1 2.2 2.04l11.84-9.28a16.63 16.63 0 0 0-6.2-5.67l-7.84 12.91Zm2.2 2.04c.32.49.68 1.42.68 3.2l13.78-2.45c0-3.68-.75-7.16-2.62-10.03l-11.84 9.28Zm.68 3.2a9.6 9.6 0 0 1-1.33 4.94l11.56 5.57a25.8 25.8 0 0 0 3.55-12.96l-13.78 2.45Zm-1.34 4.98a12.7 12.7 0 0 1-4.22 4.26l5.93 11.58a30.52 30.52 0 0 0 9.88-10.34l-11.6-5.5Zm-4.23 4.27c-1.92 1.27-4.58 2.37-8.24 3.02v14a37.26 37.26 0 0 0 14.2-5.45l-5.96-11.57Zm-8.24 3.02c-3.38.6-5.94.5-7.88-.02l-5.56 13.8c4.07 1.09 8.61 1.08 13.44.22v-14Zm-7.86-.02a8.02 8.02 0 0 1-4.26-2.57l-11.17 10.19a18.68 18.68 0 0 0 9.84 6.17l5.59-13.79Zm-4.24-2.55a7.76 7.76 0 0 1-1.61-4.51l-13.75 3.44c.3 4.31 1.66 8.12 4.15 11.22l11.2-10.15Zm-8.49 4.21 7.16-1.28v-14l-7.16 1.28v14Zm.3-6.46c.3 3.44 1.5 6.53 3.91 8.83l10.27-11.16c-.13-.13-.37-.41-.45-1.31l-13.73 3.64Zm3.97 8.89a15 15 0 0 0 7.65 3.69l4.58-14.02c-1-.18-1.63-.53-2.08-.95l-10.15 11.28Zm7.73 3.7c2.75.46 5.63.39 8.59-.13v-14c-1.59.28-2.96.28-4.16.08l-4.43 14.05Zm8.59-.13a29 29 0 0 0 9.73-3.56l-5.2-12.04a13.56 13.56 0 0 1-4.53 1.6v14Zm9.78-3.59a24.75 24.75 0 0 0 7.75-7.18l-10.78-6.79a7.02 7.02 0 0 1-2.26 1.99l5.29 11.98Zm7.78-7.21a18.53 18.53 0 0 0 3.32-10.48l-13.79 2.45c0 .63-.14.97-.37 1.31l10.84 6.72Zm3.32-10.48c0-3.31-.95-6.48-3.34-8.78l-10.3 11.14a1.25 1.25 0 0 1-.1-.14l-.07-.12c-.02-.05.02.03.02.35l13.79-2.45Zm-3.34-8.78a14.58 14.58 0 0 0-6.62-3.55l-5.45 13.82c.98.26 1.5.6 1.77.87l10.3-11.14Zm-6.62-3.55a43.26 43.26 0 0 0-6.5-1.15l-3.7 14.14c1.75.19 3.33.47 4.75.83l5.45-13.82Zm-6.45-1.15-7.05-.79-3.79 14.14 7.05.79 3.79-14.14Zm-7.04-.79c-3.77-.43-6.27-1.42-7.88-2.63l-9.3 11.98c3.6 2.71 8.18 4.19 13.37 4.78l3.8-14.13Zm-7.88-2.63c-1.05-.79-1.68-1.9-1.68-4.06l-13.78 2.46c0 5.68 1.98 10.45 6.16 13.58l9.3-11.98Zm-1.68-4.06c0-1.91.48-3.37 1.29-4.63l-11.15-6.25a24.63 24.63 0 0 0-3.92 13.34l13.78-2.46Zm1.28-4.62a13.58 13.58 0 0 1 4.3-4.19l-5.64-11.76a31.48 31.48 0 0 0-9.8 9.68l11.14 6.27Zm4.32-4.2a19.38 19.38 0 0 1 7.09-2.68v-14c-4.52.8-8.81 2.41-12.77 4.94l5.68 11.74Zm7.09-2.68c2.86-.51 5.13-.39 6.96.14l5.77-13.74c-3.91-1.14-8.2-1.2-12.73-.4v14Zm7 .15a7.95 7.95 0 0 1 4.12 2.5l11.1-10.28a18.68 18.68 0 0 0-9.52-5.98l-5.7 13.76Zm4.15 2.52a5.7 5.7 0 0 1 1.32 3.68l13.77-2.9a17.7 17.7 0 0 0-4.05-11.11l-11.04 10.33Zm8.2-4.77-6.7 1.19v14l6.7-1.19v-14Z"/>
  </defs>
  <path fill="#190208" d="m1283 88.24 196 177.52v4005.33l-196-178.58V88.24Z"/>
  <path fill="#480D16" d="M1283 88.3 1779.66.02l195.91 179.93-496.66 88.27z"/>
  <path fill="#340404" d="m125.21 503.2 199 181.31V3833.6l-199-181.31z"/>
  <path fill="url(#a)" d="M0 0h1141.62v3254.97H0z" transform="matrix(.9846 -.175 0 1 321.21 683.22)"/>
  <path fill="url(#b)" d="m125.21 503.2 1120.7-199 195.91 179.92L321.13 683.35 125.21 503.2Z"/>
  <path fill="#2C0A02" fill-rule="evenodd" d="M1099 1790h10.57v1909H1099V1790Zm61.67 0h10.57v1909h-10.57V1790Zm69.9 10h-10.58v1909h10.58V1800Zm51.09 0h10.58v1909h-10.58V1800Zm66.67 56h-10.57v1909h10.57V1856Zm51.1 0H1410v1909h-10.57V1856Zm-1013.86-44H375v1909h10.57V1812Zm61.67 0h-10.57v1909h10.57V1812Zm48.75 10h10.58v1909h-10.58V1822Zm72.25 0h-10.58v1909h10.58V1822Zm45.52 56h10.57v1909h-10.57V1878Zm72.24 0h-10.57v1909H686V1878Zm61.57-66H737v1909h10.57V1812Zm61.67 0h-10.57v1909h10.57V1812Zm48.75 10h10.58v1909h-10.58V1822Zm72.25 0h-10.58v1909h10.58V1822Zm45.52 56h10.57v1909h-10.57V1878Zm72.24 0h-10.57v1909H1048V1878Z" clip-rule="evenodd"/>
  <path fill="url(#c)" d="M0 0h1108.11v824.79H0z" transform="matrix(.9846 -.175 0 1 338 705.96)"/>
  <path fill="url(#d)" d="M0 0h1108.11v1843.48H0z" transform="matrix(.9846 -.175 0 1 336 1568.91)"/>
  <path stroke="#270000" stroke-width="10" d="M4.92 4.12h1024v1643.55H4.92z" transform="matrix(.9846 -.175 0 1 375.08 1684.26)"/>
  <path fill="#E49B8C" d="m579 1581.4 615.38-109.38v154L579 1735.4z"/>
  <path fill="#270000" d="M642.77 1680.08c-5.85 1.04-10.78.99-14.8-.16-4.01-1.2-7.05-3.24-9.12-6.12-2.07-2.93-3.1-6.52-3.1-10.78l14.09-2.51a7.6 7.6 0 0 0 1.32 4.44 7.9 7.9 0 0 0 4.26 2.76c1.89.5 4.34.49 7.35-.05 2.72-.48 5-1.25 6.83-2.29a12 12 0 0 0 4.16-3.71 8.71 8.71 0 0 0 1.42-4.75c0-2.1-.89-3.6-2.66-4.48-1.77-.95-4.64-1.25-8.6-.9l-4.87.41c-6.44.61-11.58-.52-15.42-3.38-3.84-2.85-5.76-7.19-5.76-13.01 0-4.2.98-8.01 2.93-11.41a25 25 0 0 1 8.33-8.5 33.52 33.52 0 0 1 12.58-4.76c5.08-.9 9.42-.77 13.03.38a14.86 14.86 0 0 1 8.41 5.98c1.95 2.83 2.93 6.41 2.93 10.73l-14.18 2.52c0-1.62-.38-3.02-1.15-4.21a6.56 6.56 0 0 0-3.46-2.71c-1.47-.58-3.33-.67-5.58-.27a14.17 14.17 0 0 0-5.4 2.04 9.5 9.5 0 0 0-4.26 7.69c0 1.86.65 3.36 1.95 4.51 1.3 1.15 3.43 1.58 6.38 1.3l4.96-.44c4.73-.42 8.9-.11 12.5.93 3.6.98 6.4 2.73 8.41 5.26 2.07 2.45 3.1 5.72 3.1 9.8 0 4.2-1.09 8.08-3.27 11.65a26.97 26.97 0 0 1-9.13 8.91c-3.96 2.44-8.68 4.15-14.18 5.13Zm75.14-13.36c-5.84 1.04-10.87.92-15.06-.38a23.37 23.37 0 0 1-10.28-6.36 29.32 29.32 0 0 1-5.94-9.93 35.35 35.35 0 0 1-1.86-11.19v-1.98c0-4.08.65-8.21 1.95-12.4a41.02 41.02 0 0 1 5.94-11.95 38.35 38.35 0 0 1 10.19-9.55c4.14-2.71 9-4.57 14.62-5.57 5.85-1.04 11.02-.85 15.5.57a21.13 21.13 0 0 1 10.73 7.37c2.72 3.42 4.31 7.72 4.78 12.92l-14.62 2.6a11.7 11.7 0 0 0-2.83-6.25 11.45 11.45 0 0 0-5.76-3.29c-2.3-.62-4.9-.66-7.8-.15a20.32 20.32 0 0 0-13.38 8.23 25.71 25.71 0 0 0-3.46 7.27 31.15 31.15 0 0 0-1.15 8.67c0 3.06.39 5.81 1.15 8.25a16.7 16.7 0 0 0 3.55 6.03 12.78 12.78 0 0 0 5.85 3.28c2.3.56 4.93.57 7.88.04 4.5-.8 8.27-2.58 11.35-5.34a16.9 16.9 0 0 0 5.67-10.19l14.53-2.59a34.86 34.86 0 0 1-4.79 14.09 36.83 36.83 0 0 1-10.72 11.44c-4.49 3.14-9.83 5.26-16.04 6.36Zm91.88-18.04v-65.7l14.53-2.58v65.7l-14.53 2.58Zm-41.83 7.44v-65.7l14.53-2.59v65.7l-14.53 2.59Zm11.96-28.68v-12.96l32.44-5.77v12.96l-32.44 5.77Zm67.77 14.5v-65.7l14.18-2.52v65.7l-14.18 2.52Zm12.41-2.2v-12.24l28.27-5.03v12.24l-28.27 5.03Zm0-27.27v-12.24l26.23-4.67v12.24l-26.23 4.67Zm0-26.19v-12.24l27.65-4.92v12.24l-27.65 4.92Zm61.83 42.82v-13.77l12.05-2.14a26.27 26.27 0 0 0 8.15-2.8 23.76 23.76 0 0 0 6.2-5.06 21.86 21.86 0 0 0 3.9-6.9c.89-2.62 1.33-5.4 1.33-8.34 0-3.06-.44-5.71-1.33-7.95a12.78 12.78 0 0 0-3.9-5.43 13.2 13.2 0 0 0-6.2-2.68 22.44 22.44 0 0 0-8.15.1l-12.05 2.14v-13.77l11.25-2c5.85-1.04 10.96-1.08 15.33-.11 4.37.96 8.03 2.68 10.99 5.15a22.38 22.38 0 0 1 6.56 9.19 30.49 30.49 0 0 1 2.21 11.75v1.98c0 3.96-.74 8.03-2.21 12.19a38.27 38.27 0 0 1-6.56 11.6 42.51 42.51 0 0 1-10.99 9.34 44.62 44.62 0 0 1-15.33 5.51l-11.25 2Zm-12.76 2.27v-66.6l14.53-2.58v66.6l-14.53 2.58Zm105.2-17.35c-6.08 1.08-11.25.86-15.5-.66a18.04 18.04 0 0 1-9.58-8.2c-2.18-3.87-3.27-8.72-3.27-14.54v-38.97l14.53-2.58v39.51c0 2.88.53 5.3 1.59 7.27a9.2 9.2 0 0 0 4.7 4.03c2.07.77 4.58.89 7.53.37a17.58 17.58 0 0 0 7.53-3.05 14.54 14.54 0 0 0 4.7-5.69 18.5 18.5 0 0 0 1.59-7.85v-39.51l14.54-2.58v38.97c0 5.82-1.1 11.05-3.28 15.7a30.13 30.13 0 0 1-9.57 11.6c-4.2 3.03-9.37 5.09-15.51 6.18Zm50.54-10.7v-65.7l14.53-2.58v65.7l-14.53 2.58Zm12.76-2.26v-12.96l27.12-4.82v12.96l-27.12 4.82Zm45.51-8.1v-65.7l14.18-2.52v65.7l-14.18 2.52Zm12.41-2.2v-12.24l28.27-5.03v12.24l-28.27 5.03Zm0-27.27v-12.24l26.23-4.66v12.24l-26.23 4.66Zm0-26.19v-12.24l27.65-4.92v12.24l-27.65 4.92Z"/>
  <path fill="url(#e)" fill-rule="evenodd" d="M1294.38 1421.11c-2.91-8.77-15.85-6.47-18.76 3.34l-185.76 625.3-192.5-561.59c-2.97-8.65-15.75-6.38-18.71 3.32l-84.4 276.23-94.52-241.09c-3.18-8.11-15.27-5.96-18.46 3.28l-99.51 289.22-81.32-263.65c-2.79-9.04-16.09-6.68-18.88 3.35l-210.24 756.39c-1.87 6.75 2.86 12.34 9.44 11.17l420.48-74.75a12.3 12.3 0 0 0 8.51-6.48l239.81-42.64c6.86-1.22 11.62-9.02 9.23-15.13l-17.43-44.45 127.56-22.68-3.27 10.99c-2.02 6.81 2.72 12.55 9.38 11.36l419.94-74.65c6.66-1.19 11.4-8.61 9.38-14.7z" clip-rule="evenodd" style="mix-blend-mode:screen"/>
  <g filter="url(#f)">
    <path fill="#FFC29C" fill-rule="evenodd" d="M520.12 1544.58c0 15.74-12.56 30.73-28.06 33.49-15.5 2.75-28.06-7.78-28.06-23.52 0-15.74 12.56-30.73 28.06-33.48 15.5-2.76 28.06 7.77 28.06 23.51Zm172.8-2.22c15.49-2.76 28.05-17.75 28.05-33.49 0-15.74-12.56-26.27-28.06-23.51-15.5 2.75-28.06 17.75-28.06 33.49 0 15.74 12.56 26.26 28.06 23.51Zm592.7-105.37c15.49-2.76 28.06-17.75 28.06-33.49 0-15.74-12.57-26.27-28.06-23.51-15.5 2.75-28.06 17.75-28.06 33.49 0 15.74 12.56 26.26 28.06 23.51Zm-396.78 70.54c15.5-2.76 28.06-17.75 28.06-33.49 0-15.74-12.56-26.27-28.06-23.51-15.5 2.75-28.06 17.75-28.06 33.49 0 15.74 12.56 26.26 28.06 23.51Z" clip-rule="evenodd"/>
  </g>
  <g filter="url(#g)">
    <path fill="#FFFBDD" fill-rule="evenodd" d="M520.12 1544.58c0 15.74-12.56 30.73-28.06 33.49-15.5 2.75-28.06-7.78-28.06-23.52 0-15.74 12.56-30.73 28.06-33.48 15.5-2.76 28.06 7.77 28.06 23.51Zm172.8-2.22c15.49-2.76 28.05-17.75 28.05-33.49 0-15.74-12.56-26.27-28.06-23.51-15.5 2.75-28.06 17.75-28.06 33.49 0 15.74 12.56 26.26 28.06 23.51Zm592.7-105.37c15.49-2.76 28.06-17.75 28.06-33.49 0-15.74-12.57-26.27-28.06-23.51-15.5 2.75-28.06 17.75-28.06 33.49 0 15.74 12.56 26.26 28.06 23.51Zm-396.78 70.54c15.5-2.76 28.06-17.75 28.06-33.49 0-15.74-12.56-26.27-28.06-23.51-15.5 2.75-28.06 17.75-28.06 33.49 0 15.74 12.56 26.26 28.06 23.51Z" clip-rule="evenodd"/>
  </g>
  <g filter="url(#h)">
    <circle cx="28.5" cy="28.5" r="28.5" fill="url(#i)" transform="matrix(.9846 -.175 0 1 1059.66 1420.16)"/>
  </g>
  <path fill="url(#j)" d="M1078.03 1450.53c2.91-9.61 15.51-12.02 18.65-3.56l95.82 258.4-96.1 321.95c-2.93 9.79-15.85 12.08-18.76 3.32L986 1754.91l92.03-304.38Z" class="flicker-fast" style="mix-blend-mode:color-dodge"/>
  <g class="flicker-fast" filter="url(#k)">
    <circle cx="28.5" cy="28.5" r="28.5" fill="#FFC29C" transform="matrix(.9846 -.175 0 1 1059.66 1420.16)"/>
  </g>
  <g class="flicker-fast" filter="url(#l)">
    <circle cx="28.5" cy="28.5" r="28.5" fill="#FFFBDD" transform="matrix(.9846 -.175 0 1 1059.66 1420.16)"/>
  </g>
  <path fill="url(#m)" d="M0 0h1092v819H0z" transform="matrix(.9846 -.175 0 1 593 743.14)"/>
  <path fill="#FEF2F2" d="m357 729 949.12-168.73-47.15 134.56c-7.21 20.6-25.38 36.64-45.71 40.39L357 893V729Z"/>
  <path fill="#51131C" d="M399.96 851.4v-93.6l38.9-6.9c.9-.17 2.1-.34 3.6-.51 1.53-.24 2.9-.35 4.09-.34 5.5-.12 10 .93 13.5 3.12a19.33 19.33 0 0 1 7.81 9.27c1.66 3.95 2.5 8.55 2.5 13.8 0 7.84-1.92 14.9-5.76 21.17-3.84 6.23-9.86 10.72-18.05 13.48l-7.68 1.88-21.5 3.83v31.72l-17.41 3.09Zm51.97-9.23-18.18-34.86 17.92-6.7 19.97 38.06-19.71 3.5Zm-34.56-42.08 20.73-3.7c.9-.15 1.88-.37 2.94-.64 1.07-.28 2.05-.63 2.95-1.05a13.49 13.49 0 0 0 5.44-4.22 16.07 16.07 0 0 0 2.62-5.6c.51-2 .77-3.84.77-5.53 0-1.69-.25-3.42-.77-5.2a10.06 10.06 0 0 0-2.62-4.66c-1.28-1.33-3.1-2.12-5.44-2.35-.9-.1-1.88-.1-2.94 0-1.07.1-2.05.24-2.95.4l-20.73 3.69v28.86Zm107.88 31c-9.21 1.63-17.17 1.01-23.87-1.87a31.53 31.53 0 0 1-15.42-14.36c-3.58-6.68-5.38-14.88-5.38-24.58 0-9.71 1.8-18.54 5.38-26.5a52.64 52.64 0 0 1 15.42-19.84c6.7-5.27 14.66-8.72 23.88-10.36 9.21-1.63 17.15-1 23.8 1.88 6.7 2.88 11.84 7.67 15.43 14.36 3.62 6.67 5.43 14.87 5.43 24.57 0 9.71-1.8 18.55-5.43 26.51a51.93 51.93 0 0 1-15.43 19.84c-6.65 5.26-14.59 8.7-23.8 10.34Zm0-16.65c5.85-.95 10.71-3.1 14.6-6.43a30.38 30.38 0 0 0 8.7-12.79c1.96-5.2 2.94-11.05 2.94-17.55s-.98-11.96-2.94-16.38c-1.92-4.42-4.82-7.61-8.7-9.56-3.89-1.96-8.75-2.46-14.6-1.5-5.84.95-10.7 3.09-14.59 6.42a30.9 30.9 0 0 0-8.76 12.8c-1.92 5.2-2.88 11.05-2.88 17.55s.96 11.96 2.88 16.39c1.96 4.41 4.88 7.6 8.76 9.55 3.89 1.96 8.75 2.46 14.6 1.5Zm57.45 4.48v-93.6l36.86-6.55c6.57-1.17 11.88-.77 15.94 1.2a18.5 18.5 0 0 1 8.9 8.42c1.87 3.7 2.8 7.6 2.8 11.72 0 5.25-1.17 9.81-3.51 13.7a21.38 21.38 0 0 1-9.54 8.65v-3.25c5.76.18 10.07 2.13 12.93 5.82 2.9 3.69 4.35 8.13 4.35 13.33 0 5.6-1.02 10.7-3.07 15.3-2 4.6-5.08 8.49-9.22 11.65-4.13 3.12-9.34 5.24-15.61 6.35l-40.83 7.26Zm17.66-19.78 21.38-3.8a15.08 15.08 0 0 0 6.27-2.6 14.63 14.63 0 0 0 5.89-11.9c0-2.22-.45-4.11-1.35-5.69a7.48 7.48 0 0 0-4.1-3.36c-1.79-.72-4.03-.85-6.71-.37l-21.38 3.8v23.92Zm0-40.43 18.95-3.37c1.96-.35 3.7-1 5.24-1.97a10.62 10.62 0 0 0 3.65-3.83c.9-1.63 1.34-3.6 1.34-5.9 0-2.86-.87-5.1-2.62-6.75-1.75-1.63-4.29-2.16-7.61-1.57l-18.95 3.37v20.02Zm63.84 45.72v-93.6l60.15-10.7v16.52l-42.75 7.6v20.02l35.07-6.24v16.51l-35.07 6.24v24.05l42.75-7.6v16.5l-60.15 10.7Zm75.5-13.42v-93.6l38.9-6.91c.9-.16 2.1-.33 3.58-.51 1.54-.23 2.9-.34 4.1-.34 5.5-.11 10 .93 13.5 3.12a19.33 19.33 0 0 1 7.81 9.28c1.67 3.95 2.5 8.54 2.5 13.79 0 7.84-1.92 14.9-5.76 21.17-3.84 6.23-9.86 10.72-18.05 13.48l-7.68 1.88-21.5 3.83v31.72l-17.4 3.1Zm51.96-9.24-18.18-34.86 17.92-6.69 19.97 38.05-19.71 3.5ZM757.1 739.7l20.73-3.69c.9-.16 1.88-.38 2.95-.65 1.06-.28 2.05-.63 2.94-1.05a13.49 13.49 0 0 0 5.44-4.21 16.07 16.07 0 0 0 2.63-5.6c.5-2 .76-3.85.76-5.53 0-1.7-.25-3.43-.76-5.2a10.06 10.06 0 0 0-2.63-4.67c-1.28-1.33-3.1-2.11-5.44-2.35-.9-.1-1.88-.1-2.94 0-1.07.11-2.05.24-2.95.4l-20.73 3.69v28.86Zm89.71 32.28v-77.1l-29.05 5.17v-16.5l75.51-13.43v16.5l-29.05 5.17v77.1l-17.4 3.09Zm98.34-17.48-28.16-88.6 17.92-3.18 23.04 72.86 23.42-81.12 17.92-3.19-28.16 98.6-25.99 4.63Zm65.06-11.57v-93.6l17.4-3.1v93.6l-17.4 3.1Zm37.87-6.73v-93.6l17.41-3.1v77.1l39.67-7.06v16.5l-57.08 10.16Zm61.57-10.95 28.15-98.6 25.99-4.62 28.16 88.6-17.92 3.18-25.09-78.1 3.33-.59-24.7 86.95-17.92 3.18Zm16.89-22.5v-16.51l48.64-8.65v16.51l-48.64 8.65Z"/>
  <path fill="#AE6D6D" d="M398.4 949.55a27.46 27.46 0 0 1-5.42 1.42 12.1 12.1 0 0 1-4.73-.09 5 5 0 0 1-3.15-2.31 7.37 7.37 0 0 1-1.03-3.57c-.03-1.28-.05-2.73-.05-4.34V917.6l6.7-1.2v22.66c0 1.05 0 2 .02 2.84.03.83.2 1.47.52 1.91.59.85 1.53 1.2 2.83 1.05a23.2 23.2 0 0 0 4.3-.97v5.65Zm-18.9-18.39v-5.25l18.9-3.36v5.25l-18.9 3.36Zm42.94 14.12v-12.75c0-.62-.04-1.4-.1-2.33a9.63 9.63 0 0 0-.62-2.8 4.27 4.27 0 0 0-1.7-2.12c-.77-.51-1.87-.64-3.3-.39-.57.1-1.18.3-1.84.6a5.7 5.7 0 0 0-1.85 1.41 7.18 7.18 0 0 0-1.42 2.55 13.32 13.32 0 0 0-.55 4.15l-3.84-1.17c0-2.13.43-4.2 1.28-6.22a13.84 13.84 0 0 1 3.84-5.21 13.52 13.52 0 0 1 6.5-2.88c2.09-.37 3.78-.32 5.1.17a6.46 6.46 0 0 1 3.05 2.18 9.15 9.15 0 0 1 1.57 3.17c.32 1.13.5 2.18.57 3.15.07.97.1 1.68.1 2.13v15.15l-6.8 1.2Zm-18.17 3.23v-36l5.96-1.06v18.5l.83-.15v17.5l-6.79 1.2Zm43.7-7.02c-2.72.48-5.13.32-7.2-.5a10.06 10.06 0 0 1-4.88-4.05 12.9 12.9 0 0 1-1.75-6.9c0-2.94.57-5.61 1.72-8a16.26 16.26 0 0 1 4.75-5.92 15.56 15.56 0 0 1 6.97-3.06c2.79-.5 5.16-.25 7.11.73a9.1 9.1 0 0 1 4.33 4.86c.94 2.25 1.27 5.03.99 8.35l-6.62 1.18v-2.5c0-2.75-.44-4.65-1.3-5.7-.86-1.06-2.26-1.42-4.22-1.07-2.28.4-3.96 1.4-5.04 3.02-1.07 1.59-1.6 3.76-1.6 6.5 0 2.52.53 4.38 1.6 5.57 1.08 1.18 2.67 1.58 4.75 1.2a7.35 7.35 0 0 0 3.37-1.47 7.16 7.16 0 0 0 2.14-2.9l6.7.76c-1 2.64-2.59 4.84-4.75 6.6a15.32 15.32 0 0 1-7.07 3.3Zm-8.8-10.78v-5.06l17.61-3.13v5.05l-17.62 3.13Zm47.62 15.88c-1.5.26-2.94.27-4.3.01a9.98 9.98 0 0 1-3.67-1.4 8.44 8.44 0 0 1-2.61-2.58l6.2-4.15a3.34 3.34 0 0 0 1.82 1.5c.8.27 1.68.32 2.61.16 1-.18 1.95-.52 2.83-1.03.89-.5 1.6-1.13 2.12-1.9.54-.77.8-1.64.76-2.64v-7.85l.84-.15v-20.9l5.86-1.04v28.85a17.44 17.44 0 0 1-.4 3.72 10.17 10.17 0 0 1-2.38 4.5 13.73 13.73 0 0 1-4.24 3.13 20.05 20.05 0 0 1-5.44 1.77Zm-.59-11.9c-2.44.44-4.58.2-6.42-.73a9.78 9.78 0 0 1-4.3-4.34 15.08 15.08 0 0 1-1.54-7c0-2.75.52-5.28 1.56-7.6a16.05 16.05 0 0 1 4.4-5.86 14.05 14.05 0 0 1 6.65-3.03c2.52-.45 4.65-.2 6.37.74a9 9 0 0 1 3.92 4.4c.88 2 1.33 4.35 1.33 7.05s-.46 5.2-1.36 7.51a14.6 14.6 0 0 1-3.99 5.81 13.28 13.28 0 0 1-6.62 3.05Zm1.09-6.24a6.76 6.76 0 0 0 3.56-1.66 7.14 7.14 0 0 0 1.95-3.22c.4-1.3.59-2.77.59-4.4 0-1.64-.2-3.04-.6-4.2a4.52 4.52 0 0 0-1.89-2.54c-.85-.53-1.97-.67-3.37-.42-1.5.26-2.72.86-3.69 1.78a8.22 8.22 0 0 0-2.12 3.35 12.7 12.7 0 0 0-.69 4.22c0 1.52.23 2.86.67 4.03a5.05 5.05 0 0 0 2.04 2.59c.92.57 2.1.73 3.55.47Zm28.75.99c-2.09.37-3.79.31-5.1-.17a6.63 6.63 0 0 1-3.08-2.18 9.47 9.47 0 0 1-1.55-3.15c-.3-1.14-.5-2.2-.56-3.17-.07-.98-.1-1.68-.1-2.13v-15.15l6.8-1.21v12.75c0 .61.02 1.4.1 2.35.06.94.26 1.87.6 2.77.35.9.9 1.62 1.68 2.13.79.5 1.9.64 3.32.38.58-.1 1.2-.3 1.85-.6a6 6 0 0 0 1.85-1.38 7.19 7.19 0 0 0 1.4-2.57c.38-1.1.56-2.49.56-4.15l3.84 1.16c0 2.14-.42 4.21-1.28 6.23a13.37 13.37 0 0 1-10.34 8.09Zm8.61-2.33v-8.95l-.84.14v-18.04l6.75-1.2v27l-5.9 1.05Zm16.18 9.12 5.12-15.21.1 4.18-11.57-26.84 6.94-1.24 7.78 19.07-1.57.28 7.73-21.82 6.7-1.2-15.02 41.68-6.2 1.1Zm35.03-48.98v-6l6.7-1.19v6l-6.7 1.2Zm0 30.75v-27l6.7-1.19v27l-6.7 1.2Zm33.82-5.21c-2.08.37-3.78.31-5.09-.17a6.63 6.63 0 0 1-3.08-2.18 9.49 9.49 0 0 1-1.55-3.15c-.3-1.14-.5-2.2-.56-3.17-.07-.97-.1-1.68-.1-2.13v-15.15l6.8-1.21v12.75c0 .62.02 1.4.09 2.36.06.93.27 1.86.61 2.76.35.9.9 1.62 1.68 2.13.79.5 1.9.64 3.32.38.58-.1 1.2-.3 1.85-.6.65-.3 1.27-.76 1.84-1.38a7.2 7.2 0 0 0 1.4-2.57c.38-1.1.57-2.49.57-4.15l3.84 1.16c0 2.14-.42 4.21-1.28 6.23a13.37 13.37 0 0 1-10.34 8.09Zm8.62-2.33v-8.95l-.84.15V883.6l6.75-1.2v27l-5.91 1.05Zm23.17-3.37c-3.34.6-6.05.3-8.12-.86-2.05-1.18-3.3-3.14-3.74-5.88l6.84-2.27a3.9 3.9 0 0 0 1.85 2.65c.97.54 2.19.68 3.67.42a5.64 5.64 0 0 0 2.8-1.2c.66-.6.99-1.32.99-2.17 0-.54-.13-.94-.4-1.2-.26-.3-.85-.51-1.77-.67a58.6 58.6 0 0 0-4.23-.5 20.8 20.8 0 0 1-5.2-.97 5.46 5.46 0 0 1-2.8-2 6.11 6.11 0 0 1-.86-3.4 8.9 8.9 0 0 1 1.3-4.73c.87-1.44 2.1-2.64 3.67-3.6a15.66 15.66 0 0 1 5.61-2.05c2.08-.37 3.93-.38 5.54-.01 1.6.36 2.9 1.06 3.89 2.08a6.83 6.83 0 0 1 1.84 3.92l-6.84 2.47a2.73 2.73 0 0 0-1.28-2.15 4.79 4.79 0 0 0-3-.49 6.1 6.1 0 0 0-2.98 1.03c-.74.55-1.1 1.22-1.1 2 0 .47.15.83.46 1.09.33.26 1 .47 2 .62 1.01.15 2.55.31 4.62.48 2.02.17 3.63.51 4.85 1.01a5.27 5.27 0 0 1 2.68 2.07c.56.89.84 2.03.84 3.43a9.5 9.5 0 0 1-2.96 7.05c-1.96 1.93-4.69 3.21-8.17 3.83Zm28.9-5.14c-2.73.49-5.13.32-7.22-.5a10.06 10.06 0 0 1-4.87-4.05 12.9 12.9 0 0 1-1.75-6.89c0-2.95.58-5.62 1.72-8a16.26 16.26 0 0 1 4.75-5.92 15.57 15.57 0 0 1 6.97-3.07c2.79-.5 5.16-.25 7.11.74a9.1 9.1 0 0 1 4.34 4.85c.93 2.25 1.26 5.04.98 8.35l-6.62 1.18v-2.5c0-2.75-.43-4.65-1.3-5.7-.86-1.06-2.26-1.42-4.21-1.07-2.28.4-3.97 1.41-5.05 3.02-1.07 1.6-1.6 3.76-1.6 6.51 0 2.52.53 4.37 1.6 5.57 1.08 1.17 2.67 1.57 4.75 1.2a7.34 7.34 0 0 0 3.37-1.47 7.15 7.15 0 0 0 2.14-2.9l6.7.75c-1 2.65-2.58 4.84-4.75 6.6a15.32 15.32 0 0 1-7.07 3.3Zm-8.82-10.78v-5.05l17.63-3.13v5.04l-17.63 3.14Zm38.48 4.76v-26.9c0-.68.01-1.46.05-2.34.03-.87.16-1.77.4-2.7.24-.92.68-1.8 1.32-2.63a8.25 8.25 0 0 1 2.66-2.37c.97-.52 1.9-.87 2.8-1.05.9-.2 1.68-.35 2.32-.46l3.3-.59v5.5l-3.05.55c-1.06.18-1.83.6-2.34 1.24-.51.62-.77 1.3-.77 2.06v28.5l-6.7 1.19Zm-4.18-21v-5.26l17.03-3.03v5.25l-17.03 3.03Zm31.95 16.81c-2.67.48-5.02.28-7.04-.57a9.81 9.81 0 0 1-4.72-4.19 14.1 14.1 0 0 1-1.67-7.1c0-2.82.57-5.4 1.72-7.73a16.37 16.37 0 0 1 4.75-5.87 15.71 15.71 0 0 1 6.96-3.04c2.68-.48 5.03-.28 7.04.57a9.74 9.74 0 0 1 4.75 4.2 13.77 13.77 0 0 1 1.7 7.08c0 2.8-.57 5.38-1.72 7.73a16.37 16.37 0 0 1-4.75 5.87 15.8 15.8 0 0 1-7.02 3.05Zm0-6.35a6.8 6.8 0 0 0 4.8-3.05 10.9 10.9 0 0 0 1.6-5.99c0-2.4-.54-4.22-1.62-5.46-1.07-1.24-2.66-1.68-4.78-1.3a7.1 7.1 0 0 0-3.59 1.64 7.62 7.62 0 0 0-2.1 3.15 12.76 12.76 0 0 0-.66 4.24c0 2.42.54 4.25 1.6 5.49 1.09 1.22 2.67 1.65 4.75 1.28Zm18.9 2.24v-27l5.91-1.05v6.6l-.64-.74c.35-1 .8-1.92 1.38-2.8a10.22 10.22 0 0 1 4.2-3.57 12.43 12.43 0 0 1 4.76-1.21v6.35a6.7 6.7 0 0 0-2.58.23 8.31 8.31 0 0 0-4.63 2.97 7.5 7.5 0 0 0-1.23 2.37 9.25 9.25 0 0 0-.42 2.85v13.8l-6.75 1.2Zm42.5-6.8c-2.72.48-5.12.31-7.2-.5a10.06 10.06 0 0 1-4.88-4.06 12.9 12.9 0 0 1-1.75-6.89c0-2.95.58-5.62 1.72-8a16.26 16.26 0 0 1 4.75-5.92 15.57 15.57 0 0 1 6.97-3.07c2.79-.5 5.16-.25 7.11.74a9.1 9.1 0 0 1 4.34 4.86c.93 2.25 1.26 5.03.98 8.35l-6.62 1.17v-2.5c0-2.75-.44-4.65-1.3-5.7-.86-1.06-2.26-1.41-4.21-1.07-2.28.4-3.97 1.41-5.05 3.02-1.07 1.6-1.6 3.76-1.6 6.51 0 2.52.53 4.38 1.6 5.57 1.08 1.17 2.67 1.57 4.75 1.2a7.34 7.34 0 0 0 3.37-1.47 7.15 7.15 0 0 0 2.14-2.9l6.7.75a15.3 15.3 0 0 1-4.75 6.6 15.31 15.31 0 0 1-7.07 3.3Zm-8.8-10.79V865l17.62-3.13v5.05l-17.63 3.13Zm32.62 5.8-9.64-25.29 6.69-1.18 6.3 17.58 6.3-19.83 6.7-1.19-9.65 28.72-6.7 1.19Zm32.2-4.97c-2.73.48-5.14.32-7.22-.5a10.07 10.07 0 0 1-4.88-4.05 12.9 12.9 0 0 1-1.74-6.9c0-2.94.57-5.61 1.72-8a16.26 16.26 0 0 1 4.75-5.92 15.57 15.57 0 0 1 6.97-3.06c2.79-.5 5.16-.25 7.11.73 1.95.99 3.4 2.6 4.33 4.86.94 2.25 1.27 5.03.99 8.35l-6.62 1.17v-2.5c0-2.75-.44-4.64-1.3-5.69-.86-1.06-2.26-1.42-4.22-1.07-2.28.4-3.96 1.4-5.04 3.02-1.07 1.59-1.6 3.76-1.6 6.5 0 2.52.53 4.38 1.6 5.57 1.08 1.18 2.66 1.58 4.75 1.2a7.34 7.34 0 0 0 3.37-1.47 7.16 7.16 0 0 0 2.14-2.9l6.7.76c-1 2.64-2.59 4.84-4.75 6.6a15.31 15.31 0 0 1-7.07 3.3Zm-8.82-10.78v-5.06l17.62-3.13v5.05l-17.62 3.13Zm26.4 6.9v-27l5.91-1.05v6.6l-.64-.74c.35-1 .8-1.92 1.38-2.8a10.18 10.18 0 0 1 4.2-3.57 12.43 12.43 0 0 1 4.76-1.21v6.35a6.7 6.7 0 0 0-2.58.23 8.31 8.31 0 0 0-4.63 2.97c-.54.7-.95 1.49-1.23 2.37a9.25 9.25 0 0 0-.42 2.85v13.8l-6.75 1.2Zm22.73 7.96 5.12-15.2.1 4.17-11.57-26.84 6.94-1.23 7.78 19.06-1.58.28 7.73-21.82 6.7-1.2-15.02 41.68-6.2 1.1Zm-490.04 143.87c-2.64.47-4.85.24-6.62-.7a8.94 8.94 0 0 1-4.01-4.39 17.2 17.2 0 0 1-1.33-7.04c0-2.7.44-5.2 1.33-7.5a14.75 14.75 0 0 1 3.91-5.8 12.57 12.57 0 0 1 6.38-3.01c2.54-.45 4.76-.23 6.64.67a9.48 9.48 0 0 1 4.38 4.3 14.66 14.66 0 0 1 1.58 7.04c0 2.7-.52 5.22-1.55 7.55a16.1 16.1 0 0 1-4.28 5.86 13.27 13.27 0 0 1-6.43 3.02Zm-13.1 13.58v-39l5.91-1.05v18.5l.84-.15v20.5l-6.74 1.2Zm12.02-19.44a6.58 6.58 0 0 0 3.54-1.73c.92-.9 1.6-2 2.05-3.31.44-1.33.66-2.75.66-4.27 0-1.5-.23-2.83-.69-3.98a4.98 4.98 0 0 0-2.14-2.6 5.16 5.16 0 0 0-3.67-.47c-1.4.25-2.53.8-3.4 1.63a7.39 7.39 0 0 0-1.87 3.21c-.39 1.3-.59 2.77-.59 4.41 0 1.63.2 3.03.6 4.19a4.45 4.45 0 0 0 1.92 2.53c.9.53 2.1.66 3.59.39Zm19.25 1.88v-36.75l6.7-1.2v36.76l-6.7 1.19Zm21.46-3.07c-1.9.34-3.52.26-4.85-.23a6 6 0 0 1-3-2.45 7.55 7.55 0 0 1-1.01-3.94c0-1.25.18-2.43.56-3.53.38-1.1.99-2.11 1.82-3.04.86-.96 2-1.83 3.42-2.61.99-.55 2.16-1.08 3.52-1.6 1.37-.53 2.9-1.07 4.63-1.63l5.69-1.88-2.41 1.78c0-1.6-.38-2.71-1.14-3.33-.75-.61-2.02-.76-3.79-.45-.98.18-2 .6-3.07 1.27a5.33 5.33 0 0 0-2.24 2.98l-6.06-.88c.67-2.35 1.94-4.4 3.8-6.12 1.84-1.73 4.37-2.88 7.57-3.45a15.8 15.8 0 0 1 6.25-.01c1.83.4 3.2 1.43 4.14 3.07a7 7 0 0 1 .94 2.83c.1.98.14 2.09.14 3.32v16.5l-5.86 1.04v-5.55l.84 1a16.53 16.53 0 0 1-4.2 4.7 13.66 13.66 0 0 1-5.7 2.21Zm1.42-5.6a7.78 7.78 0 0 0 3.1-1.2 8.82 8.82 0 0 0 2.02-1.89c.51-.65.86-1.19 1.04-1.6.34-.8.54-1.68.59-2.66.06-1 .1-1.82.1-2.47l1.97.15a283.3 283.3 0 0 0-7.8 2.84c-.76.32-1.43.64-2 .96-.66.38-1.19.76-1.6 1.15-.4.37-.69.76-.89 1.16-.18.4-.27.83-.27 1.28 0 .61.15 1.12.45 1.52.3.37.74.63 1.3.76.56.14 1.22.14 2 0Zm31.6-.27c-2.75.49-5.11.29-7.08-.61a9.5 9.5 0 0 1-4.53-4.3 14.62 14.62 0 0 1-1.57-7c0-2.73.54-5.26 1.62-7.6a16.29 16.29 0 0 1 4.63-5.9 15.38 15.38 0 0 1 7.04-3.1c3.13-.56 5.76-.22 7.87 1.02 2.14 1.22 3.5 3.17 4.09 5.85l-6.7 2.99a4.87 4.87 0 0 0-2.06-2.91 4.5 4.5 0 0 0-3.3-.59c-1.41.25-2.57.8-3.47 1.67-.9.84-1.57 1.9-2 3.18a12.84 12.84 0 0 0-.64 4.14c0 2.35.51 4.16 1.53 5.45 1.03 1.27 2.56 1.72 4.58 1.36a6.01 6.01 0 0 0 3.45-1.66 7.98 7.98 0 0 0 1.77-3.32l6.84.24a14.5 14.5 0 0 1-4.28 7.38 15.13 15.13 0 0 1-7.78 3.71Zm28.63-5.09a13.2 13.2 0 0 1-7.21-.49 10.07 10.07 0 0 1-4.88-4.06 12.9 12.9 0 0 1-1.75-6.89c0-2.95.58-5.62 1.73-8a16.27 16.27 0 0 1 4.75-5.92 15.57 15.57 0 0 1 6.96-3.07c2.8-.5 5.17-.25 7.12.74a9.1 9.1 0 0 1 4.33 4.85c.94 2.25 1.26 5.04.98 8.35l-6.62 1.18V985c0-2.75-.43-4.65-1.3-5.7-.86-1.06-2.26-1.42-4.21-1.07-2.28.4-3.96 1.41-5.05 3.02-1.06 1.6-1.6 3.76-1.6 6.51 0 2.52.54 4.37 1.6 5.57 1.09 1.17 2.67 1.57 4.75 1.2a7.33 7.33 0 0 0 3.38-1.47 7.16 7.16 0 0 0 2.14-2.9l6.7.75c-1 2.65-2.6 4.85-4.76 6.6a15.26 15.26 0 0 1-7.06 3.3Zm-8.81-10.78v-5.05l17.62-3.13v5.05l-17.62 3.13Zm44.52 3.69v-12.75c0-.62-.03-1.4-.1-2.34a9.63 9.63 0 0 0-.62-2.79 4.27 4.27 0 0 0-1.7-2.12c-.76-.51-1.86-.64-3.3-.39-.57.1-1.18.3-1.84.6-.65.3-1.27.77-1.84 1.4a7.18 7.18 0 0 0-1.43 2.56 13.32 13.32 0 0 0-.54 4.15l-3.84-1.17c0-2.13.42-4.21 1.28-6.23a13.86 13.86 0 0 1 3.84-5.2 13.52 13.52 0 0 1 6.5-2.89c2.08-.37 3.78-.31 5.09.17a6.46 6.46 0 0 1 3.05 2.19 9.16 9.16 0 0 1 1.58 3.17c.3 1.12.5 2.17.56 3.14.07.98.1 1.69.1 2.14v15.15l-6.8 1.2Zm-18.17 3.22v-36l5.96-1.06v18.5l.84-.14v17.5l-6.8 1.2Zm43.31-6.95a12.2 12.2 0 0 1-7.04-.57 9.81 9.81 0 0 1-4.73-4.18 14.1 14.1 0 0 1-1.67-7.1c0-2.82.58-5.4 1.73-7.74a16.36 16.36 0 0 1 4.75-5.87 15.7 15.7 0 0 1 6.96-3.03 12.2 12.2 0 0 1 7.04.57 9.73 9.73 0 0 1 4.75 4.2 13.77 13.77 0 0 1 1.7 7.08c0 2.8-.58 5.37-1.72 7.73a16.36 16.36 0 0 1-4.75 5.87 15.81 15.81 0 0 1-7.02 3.04Zm0-6.35a6.8 6.8 0 0 0 4.8-3.05 10.9 10.9 0 0 0 1.6-5.98c0-2.4-.54-4.22-1.62-5.46-1.07-1.25-2.66-1.68-4.78-1.3-1.46.25-2.66.8-3.6 1.63a7.6 7.6 0 0 0-2.09 3.15 12.75 12.75 0 0 0-.66 4.24c0 2.42.53 4.25 1.6 5.5 1.08 1.22 2.67 1.65 4.75 1.27Zm19.4 2.16v-36.75l6.69-1.2v36.76l-6.7 1.19Zm24.85-3.67a10.1 10.1 0 0 1-6.42-.73 9.77 9.77 0 0 1-4.31-4.34 15.07 15.07 0 0 1-1.53-7c0-2.75.52-5.29 1.55-7.6a16.07 16.07 0 0 1 4.4-5.86 14.05 14.05 0 0 1 6.65-3.03c2.53-.45 4.66-.2 6.38.74a9 9 0 0 1 3.91 4.4c.89 2 1.33 4.34 1.33 7.04s-.45 5.2-1.35 7.52a14.6 14.6 0 0 1-3.99 5.8 13.28 13.28 0 0 1-6.62 3.06Zm1.08-6.24a6.76 6.76 0 0 0 3.57-1.66 7.14 7.14 0 0 0 1.95-3.22c.39-1.3.59-2.78.59-4.4 0-1.64-.2-3.04-.6-4.2a4.49 4.49 0 0 0-1.89-2.54c-.85-.53-1.98-.68-3.37-.43-1.5.27-2.73.86-3.7 1.78a8.22 8.22 0 0 0-2.11 3.36 12.7 12.7 0 0 0-.69 4.22c0 1.51.22 2.86.66 4.03a5.05 5.05 0 0 0 2.05 2.59c.92.57 2.1.72 3.54.47Zm6.1 4.21v-18.5l-.83.15v-17.5l6.74-1.2v36l-5.9 1.05Zm25.16-3.72c-2.72.48-5.13.32-7.2-.5a10.06 10.06 0 0 1-4.88-4.05 12.9 12.9 0 0 1-1.75-6.9c0-2.94.57-5.61 1.72-8a16.27 16.27 0 0 1 4.75-5.92 15.57 15.57 0 0 1 6.97-3.06c2.79-.5 5.16-.25 7.11.73a9.1 9.1 0 0 1 4.33 4.86c.94 2.25 1.27 5.03.99 8.35l-6.62 1.18v-2.5c0-2.75-.44-4.65-1.3-5.7-.86-1.06-2.26-1.42-4.22-1.07-2.28.4-3.96 1.4-5.04 3.02-1.07 1.59-1.6 3.76-1.6 6.5 0 2.52.53 4.38 1.6 5.57 1.08 1.18 2.66 1.58 4.75 1.2a7.34 7.34 0 0 0 3.37-1.47 7.15 7.15 0 0 0 2.14-2.9l6.7.76c-1 2.64-2.59 4.84-4.75 6.6a15.32 15.32 0 0 1-7.07 3.3Zm-8.8-10.78v-5.06l17.61-3.13v5.05l-17.62 3.13Zm26.4 6.9v-27l5.9-1.05v6.6l-.64-.73c.35-1 .8-1.93 1.38-2.8a10.18 10.18 0 0 1 4.2-3.57 11.6 11.6 0 0 1 2.35-.84c.8-.21 1.6-.34 2.41-.38v6.35a6.7 6.7 0 0 0-2.58.23 8.32 8.32 0 0 0-4.63 2.97 7.5 7.5 0 0 0-1.23 2.37 9.25 9.25 0 0 0-.42 2.85v13.8l-6.74 1.2Z"/>
  <path fill="#51131C" d="M391.33 1122.28a9.77 9.77 0 0 1-5.63-.46 7.85 7.85 0 0 1-3.79-3.35 11.26 11.26 0 0 1-1.34-5.68c0-2.25.47-4.32 1.38-6.19a13.13 13.13 0 0 1 3.8-4.69 12.5 12.5 0 0 1 5.58-2.43 9.77 9.77 0 0 1 5.63.46c1.63.68 2.9 1.8 3.8 3.36.9 1.55 1.36 3.43 1.36 5.66 0 2.24-.46 4.3-1.38 6.18a13.06 13.06 0 0 1-3.8 4.7 12.65 12.65 0 0 1-5.61 2.44Zm0-5.08c1.72-.31 3-1.12 3.84-2.44a8.74 8.74 0 0 0 1.28-4.79c0-1.92-.44-3.38-1.3-4.37-.86-1-2.13-1.34-3.82-1.04a5.7 5.7 0 0 0-2.88 1.31c-.75.67-1.3 1.5-1.67 2.52a10.2 10.2 0 0 0-.53 3.39c0 1.93.42 3.4 1.28 4.39.86.98 2.13 1.32 3.8 1.03Zm29.61-.79v-10.2c0-.49-.03-1.11-.08-1.86a7.79 7.79 0 0 0-.5-2.24 3.37 3.37 0 0 0-1.35-1.69c-.62-.41-1.5-.52-2.64-.31a6.1 6.1 0 0 0-1.48.48c-.52.24-1.01.61-1.47 1.12a5.8 5.8 0 0 0-1.14 2.04c-.3.87-.44 1.97-.44 3.32l-3.07-.93c0-1.71.34-3.37 1.03-4.99.68-1.61 1.7-3 3.07-4.16a10.85 10.85 0 0 1 5.2-2.31 7.95 7.95 0 0 1 4.07.14c1.05.39 1.87.97 2.44 1.75.6.77 1.01 1.62 1.26 2.53.25.9.4 1.74.46 2.52.05.78.07 1.35.07 1.71v12.12l-5.43.96Zm-14.53 2.59v-21.6l4.76-.85v7.16l.67-.12v14.44l-5.43.97Zm43.4-7.12c-2.12.38-3.88.19-5.3-.56a7.1 7.1 0 0 1-3.21-3.51 13.74 13.74 0 0 1-1.06-5.63c0-2.16.35-4.16 1.06-6.01.7-1.84 1.75-3.39 3.13-4.63a10.02 10.02 0 0 1 5.1-2.41 8.62 8.62 0 0 1 5.32.54 7.54 7.54 0 0 1 3.5 3.43 11.74 11.74 0 0 1 1.26 5.64c0 2.16-.41 4.17-1.24 6.04a12.89 12.89 0 0 1-3.43 4.69 10.62 10.62 0 0 1-5.13 2.41Zm-10.48 1.26v-28.8l5.4-.96v14l-.67.12v14.8l-4.73.84Zm9.6-5.94a5.29 5.29 0 0 0 2.84-1.39 6.6 6.6 0 0 0 1.64-2.65c.35-1.06.53-2.2.53-3.41a8.6 8.6 0 0 0-.55-3.19 4 4 0 0 0-1.71-2.07 4.1 4.1 0 0 0-2.94-.38 5.1 5.1 0 0 0-2.72 1.3 5.94 5.94 0 0 0-1.5 2.57 12.16 12.16 0 0 0-.46 3.52c0 1.31.15 2.43.47 3.36a3.6 3.6 0 0 0 1.53 2.03c.73.41 1.68.52 2.88.31Zm24.9.41c-2.18.39-4.1.26-5.77-.39a8.07 8.07 0 0 1-3.9-3.25 10.3 10.3 0 0 1-1.4-5.51c0-2.36.46-4.5 1.38-6.41a12.93 12.93 0 0 1 3.8-4.73 12.42 12.42 0 0 1 5.57-2.45c2.24-.4 4.13-.2 5.7.58a7.3 7.3 0 0 1 3.46 3.89c.75 1.8 1.01 4.03.79 6.68l-5.3.94v-2c0-2.2-.35-3.72-1.04-4.55-.69-.86-1.8-1.14-3.37-.87a5.84 5.84 0 0 0-4.04 2.42c-.85 1.27-1.28 3.01-1.28 5.21 0 2.01.43 3.5 1.28 4.45.87.94 2.14 1.26 3.8.97a5.9 5.9 0 0 0 2.7-1.18 5.73 5.73 0 0 0 1.72-2.33l5.35.61a12.26 12.26 0 0 1-3.8 5.28 12.3 12.3 0 0 1-5.65 2.64Zm-7.05-8.63v-4.04l14.1-2.5v4.04l-14.1 2.5Zm21.52-19.14v-4.8l5.35-.95v4.8l-5.35.95Zm0 24.6v-21.6l5.35-.95v21.6l-5.35.95Zm25.75-4.58v-10.2c0-.49-.02-1.12-.08-1.87a7.76 7.76 0 0 0-.49-2.23 3.45 3.45 0 0 0-1.36-1.7c-.62-.41-1.5-.51-2.64-.31a6.1 6.1 0 0 0-1.47.48c-.53.24-1.02.62-1.48 1.13a5.66 5.66 0 0 0-1.14 2.04c-.3.87-.44 1.97-.44 3.32l-3.07-.94c0-1.7.34-3.36 1.03-4.98.68-1.61 1.7-3 3.07-4.16a10.76 10.76 0 0 1 5.2-2.31 7.84 7.84 0 0 1 4.07.14c1.05.38 1.87.97 2.44 1.74a7.2 7.2 0 0 1 1.26 2.54c.25.9.4 1.74.46 2.52.05.78.08 1.34.08 1.7v12.12l-5.44.97Zm-14.53 2.58v-21.6l4.76-.84v7.16l.67-.12v14.44l-5.43.96Zm34.17 4.13a9.5 9.5 0 0 1-3.44.01 7.8 7.8 0 0 1-2.94-1.12 6.7 6.7 0 0 1-2.08-2.07l4.96-3.32c.34.58.82.98 1.45 1.2a4.2 4.2 0 0 0 2.1.13c.8-.14 1.55-.42 2.26-.82.7-.39 1.27-.9 1.69-1.52.43-.61.64-1.32.61-2.11v-6.28l.67-.12v-16.72l4.69-.83v23.08a13.98 13.98 0 0 1-.32 2.97 8.14 8.14 0 0 1-1.9 3.6 10.9 10.9 0 0 1-3.4 2.5 15.95 15.95 0 0 1-4.35 1.42Zm-.47-9.52a8.1 8.1 0 0 1-5.14-.58 7.84 7.84 0 0 1-3.45-3.47 12.06 12.06 0 0 1-1.22-5.6c0-2.2.42-4.23 1.24-6.08a12.81 12.81 0 0 1 3.53-4.69 11.18 11.18 0 0 1 5.32-2.43c2.02-.36 3.72-.16 5.1.6a7.18 7.18 0 0 1 3.13 3.52 13.9 13.9 0 0 1 1.06 5.63c0 2.16-.36 4.17-1.08 6.01a11.65 11.65 0 0 1-3.2 4.65 10.59 10.59 0 0 1-5.29 2.44Zm.87-4.99a5.42 5.42 0 0 0 2.85-1.33 5.65 5.65 0 0 0 1.56-2.58c.31-1.04.47-2.21.47-3.52s-.16-2.43-.47-3.36a3.64 3.64 0 0 0-1.52-2.03c-.68-.42-1.58-.54-2.7-.34-1.2.22-2.18.69-2.95 1.43a6.54 6.54 0 0 0-1.7 2.68 10.19 10.19 0 0 0-.54 3.38c0 1.21.17 2.29.53 3.22a4 4 0 0 0 1.63 2.07c.74.46 1.68.58 2.84.38Zm35.73-2.11a22.8 22.8 0 0 1-4.34 1.13c-1.4.22-2.66.2-3.78-.07a4.02 4.02 0 0 1-2.52-1.85c-.52-.9-.8-1.85-.82-2.86-.03-1.02-.04-2.18-.04-3.47v-18.44l5.35-.95v18.12c0 .84 0 1.6.02 2.28.03.66.16 1.17.41 1.52.48.68 1.23.96 2.27.84s2.18-.38 3.45-.77v4.52Zm-15.13-14.72v-4.2l15.13-2.68v4.2l-15.13 2.68Zm34.36 11.3v-10.2c0-.5-.03-1.12-.08-1.87a7.69 7.69 0 0 0-.5-2.23 3.4 3.4 0 0 0-1.35-1.7c-.62-.41-1.5-.51-2.64-.31a6.1 6.1 0 0 0-1.48.48c-.52.24-1.02.62-1.48 1.12a5.8 5.8 0 0 0-1.14 2.05 10.6 10.6 0 0 0-.43 3.31l-3.07-.93c0-1.71.34-3.37 1.02-4.98.68-1.62 1.7-3 3.07-4.17a10.85 10.85 0 0 1 5.2-2.3 7.97 7.97 0 0 1 4.08.13c1.05.39 1.86.97 2.44 1.75.6.77 1.01 1.62 1.26 2.54.25.9.4 1.74.45 2.52.06.77.08 1.34.08 1.7v12.12l-5.43.97Zm-14.53 2.58v-28.8l4.76-.85v14.8l.67-.12v14l-5.44.97Zm34.96-5.61c-2.18.38-4.1.25-5.77-.4a8.02 8.02 0 0 1-3.9-3.25 10.3 10.3 0 0 1-1.4-5.51c0-2.36.46-4.49 1.38-6.4a13.05 13.05 0 0 1 3.8-4.74 12.41 12.41 0 0 1 5.57-2.45c2.23-.4 4.13-.2 5.7.59a7.29 7.29 0 0 1 3.46 3.88c.75 1.8 1 4.03.78 6.68l-5.3.95v-2c0-2.2-.34-3.72-1.03-4.56-.69-.85-1.81-1.14-3.37-.86a5.8 5.8 0 0 0-4.04 2.42c-.85 1.27-1.28 3-1.28 5.2 0 2.02.43 3.5 1.28 4.46.87.94 2.13 1.26 3.8.96a5.9 5.9 0 0 0 2.7-1.18 5.72 5.72 0 0 0 1.71-2.32l5.36.61a12.24 12.24 0 0 1-3.8 5.27 12.32 12.32 0 0 1-5.65 2.65Zm-7.05-8.63v-4.04l14.1-2.51v4.04l-14.1 2.51Zm30.78 3.81v-21.52c0-.55.01-1.17.04-1.87.02-.7.13-1.42.31-2.16a6 6 0 0 1 1.07-2.11 6.58 6.58 0 0 1 2.12-1.89c.78-.42 1.52-.7 2.25-.84a42.9 42.9 0 0 1 1.85-.37l2.64-.47v4.4l-2.45.43c-.83.15-1.46.48-1.87 1a2.5 2.5 0 0 0-.6 1.64v22.8l-5.36.96Zm-3.35-16.81v-4.2l13.63-2.42v4.2l-13.63 2.42Zm22.1 14.07a7.36 7.36 0 0 1-3.88-.19 4.77 4.77 0 0 1-2.4-1.95 6.04 6.04 0 0 1-.81-3.16c0-1 .15-1.94.45-2.82a7.1 7.1 0 0 1 1.46-2.44c.68-.76 1.6-1.45 2.74-2.08a21.6 21.6 0 0 1 2.81-1.28c1.1-.42 2.32-.86 3.7-1.3l4.55-1.51-1.93 1.42c0-1.28-.3-2.16-.9-2.66-.6-.49-1.62-.61-3.04-.36-.78.14-1.6.48-2.46 1.02a4.27 4.27 0 0 0-1.79 2.38l-4.84-.7a10.62 10.62 0 0 1 3.03-4.9c1.48-1.38 3.5-2.3 6.06-2.76a12.9 12.9 0 0 1 5-.01 4.91 4.91 0 0 1 3.31 2.46c.42.72.67 1.48.75 2.26.08.79.12 1.68.12 2.66v13.2l-4.69.84v-4.44l.67.8a13.27 13.27 0 0 1-3.36 3.75 10.9 10.9 0 0 1-4.55 1.77Zm1.14-4.48a6.2 6.2 0 0 0 2.48-.96 7 7 0 0 0 1.62-1.51c.4-.52.68-.95.82-1.28.28-.64.44-1.35.48-2.13.05-.79.07-1.45.07-1.97l1.58.12c-1.59.55-2.88 1-3.86 1.36-.99.35-1.78.65-2.38.91-.6.25-1.14.51-1.6.76-.52.31-.95.62-1.28.93a2.46 2.46 0 0 0-.93 1.94c0 .5.13.9.36 1.22.25.3.6.51 1.04.61.45.11.98.11 1.6 0Zm25.28-.21c-2.2.39-4.1.22-5.67-.5a7.6 7.6 0 0 1-3.62-3.43 11.72 11.72 0 0 1-1.26-5.6c0-2.18.43-4.22 1.3-6.09a13 13 0 0 1 3.7-4.72 12.34 12.34 0 0 1 5.63-2.48c2.51-.44 4.61-.17 6.3.82a6.77 6.77 0 0 1 3.27 4.68l-5.35 2.39a3.87 3.87 0 0 0-1.66-2.32 3.57 3.57 0 0 0-2.64-.47 5.2 5.2 0 0 0-2.77 1.33 5.99 5.99 0 0 0-1.6 2.54 10.28 10.28 0 0 0-.51 3.31c0 1.88.4 3.34 1.22 4.37.83 1.01 2.05 1.37 3.66 1.09a4.85 4.85 0 0 0 2.76-1.33 6.43 6.43 0 0 0 1.42-2.66l5.47.19c-.6 2.4-1.74 4.37-3.42 5.91a12.14 12.14 0 0 1-6.23 2.97Zm22.9-4.07c-2.18.38-4.1.25-5.77-.4a8.07 8.07 0 0 1-3.9-3.25 10.3 10.3 0 0 1-1.4-5.51c0-2.36.46-4.49 1.38-6.4a13.06 13.06 0 0 1 3.8-4.74 12.42 12.42 0 0 1 5.57-2.45c2.24-.4 4.13-.2 5.7.59a7.28 7.28 0 0 1 3.46 3.88c.75 1.8 1.01 4.03.79 6.68l-5.3.94v-2c0-2.2-.35-3.71-1.04-4.55-.69-.85-1.8-1.14-3.37-.86a5.8 5.8 0 0 0-4.04 2.42c-.85 1.27-1.28 3-1.28 5.2 0 2.02.43 3.5 1.28 4.46.87.94 2.14 1.26 3.8.96a5.91 5.91 0 0 0 2.7-1.18 5.72 5.72 0 0 0 1.72-2.32l5.35.6a12.2 12.2 0 0 1-3.8 5.28 12.3 12.3 0 0 1-5.65 2.65Zm-7.05-8.63v-4.04l14.1-2.51v4.04l-14.1 2.51Zm38.58 3.02a9.77 9.77 0 0 1-5.63-.46 7.85 7.85 0 0 1-3.78-3.35 11.25 11.25 0 0 1-1.34-5.68c0-2.25.46-4.31 1.38-6.18a13.08 13.08 0 0 1 3.8-4.7 12.5 12.5 0 0 1 5.57-2.43 9.77 9.77 0 0 1 5.63.46c1.63.68 2.9 1.8 3.8 3.36.9 1.55 1.36 3.43 1.36 5.66 0 2.24-.46 4.3-1.38 6.19a13.12 13.12 0 0 1-3.8 4.69 12.64 12.64 0 0 1-5.61 2.44Zm0-5.08c1.72-.31 3-1.12 3.84-2.44a8.74 8.74 0 0 0 1.28-4.79c0-1.92-.43-3.38-1.3-4.37-.86-.99-2.13-1.34-3.82-1.04a5.72 5.72 0 0 0-2.88 1.31 6.13 6.13 0 0 0-1.67 2.52 10.18 10.18 0 0 0-.53 3.39c0 1.94.42 3.4 1.28 4.4.86.97 2.13 1.32 3.8 1.02Zm16.9 1.48v-21.52c0-.55 0-1.17.03-1.87.03-.7.13-1.42.32-2.16a6 6 0 0 1 1.06-2.11 6.59 6.59 0 0 1 2.13-1.89c.77-.42 1.52-.7 2.24-.84a42.9 42.9 0 0 1 1.85-.37l2.64-.47v4.4l-2.44.43c-.84.15-1.46.48-1.87 1a2.5 2.5 0 0 0-.61 1.64v22.8l-5.36.96Zm-3.36-16.81v-4.2l13.63-2.42v4.2l-13.63 2.42Zm-350.1 134.64v-10.2c0-.49-.03-1.11-.08-1.86a7.79 7.79 0 0 0-.5-2.24 3.37 3.37 0 0 0-1.35-1.69c-.62-.41-1.5-.52-2.64-.32-.46.09-.95.25-1.48.49-.52.24-1.01.61-1.47 1.12a5.76 5.76 0 0 0-1.15 2.04c-.28.87-.43 1.97-.43 3.32l-3.07-.93c0-1.71.34-3.37 1.02-4.99.69-1.61 1.71-3 3.08-4.16a10.76 10.76 0 0 1 5.2-2.31 7.95 7.95 0 0 1 4.07.14 5.2 5.2 0 0 1 2.44 1.74c.6.78 1.01 1.63 1.26 2.54.25.9.4 1.74.46 2.52.05.78.07 1.35.07 1.71v12.12l-5.43.96Zm-14.53 2.59v-28.8l4.76-.85v14.8l.67-.12v14l-5.43.97Zm30.98-4.91a7.35 7.35 0 0 1-3.88-.19 4.84 4.84 0 0 1-2.4-1.96 6 6 0 0 1-.8-3.15c0-1 .14-1.94.44-2.82.3-.88.8-1.7 1.46-2.44.69-.76 1.6-1.46 2.74-2.09a23.7 23.7 0 0 1 2.81-1.28c1.1-.42 2.33-.85 3.7-1.3l4.56-1.51-1.93 1.43c0-1.28-.3-2.17-.91-2.66-.6-.49-1.61-.61-3.03-.36a6.9 6.9 0 0 0-2.46 1.02 4.24 4.24 0 0 0-1.8 2.37l-4.84-.69a10.53 10.53 0 0 1 3.03-4.9c1.49-1.39 3.5-2.31 6.07-2.76 1.88-.34 3.54-.34 5-.01a4.9 4.9 0 0 1 3.3 2.45c.43.73.68 1.48.76 2.27.08.78.11 1.67.11 2.66v13.2l-4.68.83v-4.44l.67.8a13.3 13.3 0 0 1-3.37 3.76c-1.2.85-2.71 1.44-4.55 1.77Zm1.14-4.49a6.05 6.05 0 0 0 2.48-.96 7.18 7.18 0 0 0 2.45-2.79c.27-.64.43-1.34.47-2.12.05-.8.08-1.46.08-1.98l1.57.12a240.2 240.2 0 0 0-6.24 2.27c-.6.26-1.13.51-1.6.76-.52.31-.95.62-1.27.93-.32.3-.56.61-.71.93-.15.32-.22.66-.22 1.02 0 .49.12.9.35 1.21.25.31.6.51 1.05.62.44.11.98.1 1.6-.01Zm25.29-.21c-2.2.39-4.1.23-5.67-.49a7.62 7.62 0 0 1-3.63-3.44 11.68 11.68 0 0 1-1.26-5.59c0-2.19.44-4.22 1.3-6.09a13.02 13.02 0 0 1 3.7-4.72 12.25 12.25 0 0 1 5.64-2.48c2.5-.45 4.6-.18 6.3.82 1.7.97 2.8 2.53 3.27 4.67l-5.36 2.4a3.9 3.9 0 0 0-1.65-2.33 3.57 3.57 0 0 0-2.64-.47 5.3 5.3 0 0 0-2.78 1.33 6.08 6.08 0 0 0-1.6 2.55c-.34 1-.5 2.11-.5 3.31 0 1.88.4 3.33 1.21 4.36.83 1.01 2.05 1.38 3.67 1.09a4.8 4.8 0 0 0 2.75-1.33 6.4 6.4 0 0 0 1.42-2.65l5.48.18a11.63 11.63 0 0 1-3.43 5.91 12.14 12.14 0 0 1-6.22 2.97Zm13.55-3.01.03-28.81 5.44-.96v17.6l7.2-11.68 6.62-1.18-7.68 12.17 8.2 9.34-6.98 1.24-7.36-9.09v10.4l-5.47.97Zm30-4.73a8.1 8.1 0 0 1-5.13-.59 7.8 7.8 0 0 1-3.45-3.47 12.03 12.03 0 0 1-1.22-5.6c0-2.2.41-4.23 1.24-6.08a12.9 12.9 0 0 1 3.52-4.69 11.26 11.26 0 0 1 5.32-2.42c2.02-.36 3.72-.16 5.1.59a7.23 7.23 0 0 1 3.13 3.52c.71 1.6 1.06 3.48 1.06 5.64 0 2.16-.36 4.16-1.08 6.01a11.68 11.68 0 0 1-3.19 4.64 10.6 10.6 0 0 1-5.3 2.45Zm.87-5a5.34 5.34 0 0 0 2.86-1.33 5.68 5.68 0 0 0 1.55-2.57c.32-1.04.47-2.22.47-3.53 0-1.3-.15-2.42-.47-3.35a3.62 3.62 0 0 0-1.51-2.03c-.69-.43-1.59-.54-2.7-.34-1.2.21-2.18.68-2.96 1.42a6.61 6.61 0 0 0-1.69 2.68 10.23 10.23 0 0 0-.55 3.38c0 1.21.18 2.29.53 3.23.36.92.9 1.61 1.63 2.07.74.45 1.69.58 2.84.37Zm4.88 3.37v-14.8l-.67.12v-14l5.4-.96v28.8l-4.73.84Zm18.16-2.58a7.95 7.95 0 0 1-4.08-.14 5.36 5.36 0 0 1-2.46-1.74 7.6 7.6 0 0 1-1.24-2.52 13.1 13.1 0 0 1-.45-2.54c-.05-.78-.08-1.35-.08-1.71v-12.12l5.44-.96v10.2c0 .49.02 1.12.07 1.88.06.75.22 1.49.5 2.22.27.72.72 1.29 1.33 1.7.63.41 1.52.51 2.66.31.46-.09.96-.25 1.48-.49a4.6 4.6 0 0 0 1.48-1.1c.46-.51.83-1.19 1.12-2.06.3-.88.45-1.99.45-3.32l3.07.93c0 1.71-.34 3.37-1.02 4.99a10.71 10.71 0 0 1-8.27 6.47Zm6.9-1.87v-7.16l-.68.12v-14.44l5.4-.96v21.6l-4.73.84Zm10.18-1.81.04-28.81 5.43-.96v17.6l7.21-11.68 6.62-1.18-7.68 12.16 8.2 9.35-6.98 1.24-7.37-9.09v10.4l-5.47.97Zm31.27-4.96c-2.18.39-4.1.26-5.77-.39a8.07 8.07 0 0 1-3.9-3.25 10.3 10.3 0 0 1-1.4-5.51c0-2.36.46-4.5 1.38-6.41a12.93 12.93 0 0 1 3.8-4.73 12.42 12.42 0 0 1 5.58-2.45c2.23-.4 4.12-.2 5.69.59a7.24 7.24 0 0 1 3.46 3.88c.75 1.8 1.01 4.03.79 6.68l-5.3.94v-2c0-2.2-.35-3.72-1.04-4.55-.68-.86-1.8-1.14-3.37-.87a5.88 5.88 0 0 0-4.03 2.42c-.86 1.27-1.29 3.01-1.29 5.21 0 2.01.43 3.5 1.29 4.45.86.94 2.13 1.26 3.8.97a5.9 5.9 0 0 0 2.7-1.18 5.73 5.73 0 0 0 1.7-2.33l5.36.61a12.27 12.27 0 0 1-3.8 5.28 12.2 12.2 0 0 1-5.65 2.64Zm-7.05-8.63v-4.04l14.1-2.5v4.04l-14.1 2.5Zm21.91-12.57.32-2.34a2.8 2.8 0 0 0 1.53-.57c.4-.34.67-.76.81-1.26.16-.53.2-1.1.1-1.72l-2.76.49v-5.44l5.36-.95v5.44c0 1.92-.44 3.45-1.32 4.59-.88 1.14-2.23 1.73-4.04 1.76Zm16.37 15.65c-2.68.47-4.84.25-6.5-.69-1.64-.94-2.63-2.51-2.99-4.7l5.47-1.82a3.1 3.1 0 0 0 1.48 2.12 4.3 4.3 0 0 0 2.94.34 4.45 4.45 0 0 0 2.24-.96c.53-.48.79-1.06.79-1.74 0-.43-.1-.75-.32-.96-.2-.23-.68-.41-1.41-.53a43.9 43.9 0 0 0-3.4-.4 17.13 17.13 0 0 1-4.15-.78 4.4 4.4 0 0 1-2.24-1.6 4.9 4.9 0 0 1-.7-2.72c0-1.39.36-2.65 1.05-3.79a8.56 8.56 0 0 1 2.94-2.88 12.9 12.9 0 0 1 4.49-1.64c1.66-.29 3.14-.29 4.43 0a5.55 5.55 0 0 1 4.59 4.8l-5.48 1.97a2.17 2.17 0 0 0-1.02-1.71 3.8 3.8 0 0 0-2.4-.4c-.99.11-1.78.39-2.39.83-.59.44-.88.97-.88 1.59 0 .38.12.67.37.88.26.2.8.37 1.6.49.8.13 2.04.25 3.7.39 1.61.14 2.9.41 3.88.81.98.38 1.7.93 2.14 1.66.45.7.67 1.62.67 2.74 0 2.21-.79 4.09-2.36 5.64-1.58 1.54-3.76 2.56-6.54 3.06Zm29.03-5.12a7.95 7.95 0 0 1-4.08-.14 5.22 5.22 0 0 1-2.46-1.74 7.6 7.6 0 0 1-1.24-2.52c-.25-.91-.4-1.76-.45-2.54-.05-.78-.08-1.34-.08-1.7v-12.12l5.43-.97v10.2c0 .49.03 1.12.08 1.89.06.75.22 1.48.5 2.21.27.72.72 1.29 1.33 1.7.63.41 1.52.51 2.66.31.46-.08.95-.25 1.48-.49a4.6 4.6 0 0 0 1.48-1.1c.46-.51.83-1.19 1.12-2.06.3-.88.45-1.98.45-3.32l3.07.94c0 1.7-.34 3.36-1.02 4.98a10.72 10.72 0 0 1-8.27 6.47Zm6.9-1.87v-7.16l-.68.12v-14.44l5.4-.96v21.6l-4.73.84Zm24.71-4.39v-10.2c0-.5-.02-1.12-.08-1.87a7.69 7.69 0 0 0-.49-2.23 3.45 3.45 0 0 0-1.36-1.7c-.61-.41-1.5-.51-2.63-.31a6.1 6.1 0 0 0-1.48.48c-.53.24-1.02.62-1.48 1.13a5.66 5.66 0 0 0-1.14 2.04c-.29.86-.43 1.97-.43 3.32l-3.08-.94c0-1.71.35-3.37 1.03-4.98.68-1.62 1.7-3 3.07-4.17a10.84 10.84 0 0 1 5.2-2.3 7.97 7.97 0 0 1 4.07.13c1.05.39 1.87.97 2.45 1.75.59.78 1 1.62 1.26 2.54.25.9.4 1.74.45 2.52.05.77.08 1.34.08 1.7v12.12l-5.44.97Zm-14.53 2.58v-21.6l4.77-.85v7.16l.67-.11v14.44l-5.44.96Zm25.08-4.46v-21.6l4.72-.84v5.28l-.5-.59c.27-.79.63-1.54 1.1-2.23a8.17 8.17 0 0 1 3.37-2.86 9.1 9.1 0 0 1 1.86-.67 9.93 9.93 0 0 1 1.93-.31v5.08a5.33 5.33 0 0 0-2.07.19 6.61 6.61 0 0 0-4.68 4.27c-.23.7-.34 1.46-.34 2.28v11.04l-5.4.96Zm25.73-3.97c-2.18.39-4.1.26-5.77-.4a8 8 0 0 1-3.9-3.24 10.33 10.33 0 0 1-1.4-5.51c0-2.36.46-4.5 1.38-6.41a12.93 12.93 0 0 1 3.8-4.73 12.42 12.42 0 0 1 5.57-2.45c2.23-.4 4.13-.21 5.7.58a7.3 7.3 0 0 1 3.46 3.89c.75 1.8 1.01 4.02.79 6.68l-5.3.94v-2c0-2.2-.35-3.72-1.04-4.56-.69-.85-1.8-1.13-3.37-.86a5.84 5.84 0 0 0-4.04 2.42c-.85 1.27-1.28 3.01-1.28 5.21 0 2.01.43 3.5 1.28 4.45.87.94 2.13 1.26 3.8.97a5.9 5.9 0 0 0 2.7-1.18 5.73 5.73 0 0 0 1.71-2.33l5.36.61a12.23 12.23 0 0 1-3.8 5.27 12.21 12.21 0 0 1-5.65 2.65Zm-7.05-8.63v-4.04l14.1-2.5v4.04l-14.1 2.5Zm21.52 5.46v-29.4l5.35-.96v29.4l-5.35.96Zm21.14-3.16c-2.18.39-4.1.25-5.77-.4a8 8 0 0 1-3.9-3.24 10.33 10.33 0 0 1-1.4-5.51c0-2.36.46-4.5 1.38-6.41a13.06 13.06 0 0 1 3.8-4.74 12.53 12.53 0 0 1 5.58-2.45c2.23-.39 4.13-.2 5.69.59a7.3 7.3 0 0 1 3.46 3.89c.75 1.8 1.01 4.02.79 6.68l-5.3.94v-2c0-2.2-.35-3.72-1.04-4.56-.68-.85-1.8-1.14-3.37-.86a5.84 5.84 0 0 0-4.03 2.42c-.86 1.27-1.28 3.01-1.28 5.21 0 2.01.42 3.49 1.28 4.45.86.94 2.13 1.26 3.8.96a5.72 5.72 0 0 0 4.41-3.5l5.35.61a12.24 12.24 0 0 1-3.8 5.27 12.32 12.32 0 0 1-5.65 2.65Zm-7.05-8.63v-4.04l14.1-2.51v4.04l-14.1 2.51Zm26.65 5.14a7.35 7.35 0 0 1-3.88-.19 4.77 4.77 0 0 1-2.4-1.95 6.04 6.04 0 0 1-.81-3.16c0-1 .15-1.94.45-2.82.3-.88.8-1.69 1.46-2.44.68-.76 1.6-1.45 2.74-2.08a21.6 21.6 0 0 1 2.81-1.28c1.1-.42 2.33-.86 3.7-1.3l4.55-1.51-1.93 1.42c0-1.28-.3-2.16-.9-2.66-.6-.49-1.62-.61-3.03-.36a6.9 6.9 0 0 0-2.46 1.02 4.26 4.26 0 0 0-1.8 2.38l-4.84-.7a10.63 10.63 0 0 1 3.03-4.9c1.48-1.38 3.5-2.3 6.07-2.76 1.87-.33 3.54-.33 5-.01a4.91 4.91 0 0 1 3.3 2.46c.43.72.67 1.48.75 2.26a27 27 0 0 1 .12 2.66v13.2l-4.68.84v-4.44l.67.8a13.44 13.44 0 0 1-3.37 3.76c-1.2.85-2.71 1.44-4.55 1.76Zm1.14-4.48a6.05 6.05 0 0 0 2.48-.96 6.99 6.99 0 0 0 1.62-1.51c.4-.52.68-.95.82-1.28.28-.64.44-1.35.48-2.13.05-.79.07-1.45.07-1.97l1.58.12c-1.59.55-2.87 1-3.86 1.36-.98.35-1.78.65-2.38.91-.6.25-1.14.51-1.6.76-.52.31-.95.62-1.28.93-.31.29-.55.6-.7.92-.15.32-.22.66-.22 1.02 0 .5.12.9.35 1.22.25.3.6.51 1.05.61.44.11.97.11 1.6 0Zm24.22-.03c-2.68.48-4.84.25-6.5-.68-1.64-.95-2.63-2.52-2.99-4.71l5.48-1.81c.22.97.71 1.68 1.47 2.12.78.43 1.75.54 2.94.33a4.54 4.54 0 0 0 2.24-.95c.53-.48.79-1.06.79-1.74 0-.43-.1-.75-.32-.97-.2-.23-.68-.4-1.41-.53-.73-.12-1.86-.25-3.4-.39a16.6 16.6 0 0 1-4.15-.79 4.28 4.28 0 0 1-2.24-1.6 4.86 4.86 0 0 1-.69-2.71c0-1.39.35-2.65 1.04-3.79a8.58 8.58 0 0 1 2.94-2.88 12.7 12.7 0 0 1 4.49-1.64c1.66-.3 3.14-.3 4.43-.01a6 6 0 0 1 3.1 1.67c.8.82 1.3 1.86 1.49 3.14l-5.48 1.97a2.2 2.2 0 0 0-1.02-1.72 3.84 3.84 0 0 0-2.4-.39c-.99.11-1.78.38-2.39.82-.59.44-.88.97-.88 1.6 0 .37.12.67.37.87.26.21.8.38 1.6.5s2.04.25 3.7.38c1.61.14 2.9.41 3.88.81.98.39 1.7.94 2.14 1.66.45.71.67 1.62.67 2.74 0 2.22-.78 4.1-2.36 5.64-1.58 1.55-3.75 2.57-6.54 3.06Zm23.11-4.1c-2.17.38-4.1.25-5.76-.4a8.02 8.02 0 0 1-3.9-3.25 10.3 10.3 0 0 1-1.4-5.51c0-2.36.46-4.49 1.38-6.4a13.05 13.05 0 0 1 3.8-4.74 12.52 12.52 0 0 1 5.57-2.45c2.23-.39 4.13-.2 5.69.59a7.28 7.28 0 0 1 3.47 3.88c.74 1.8 1 4.03.78 6.68l-5.3.95v-2c0-2.2-.34-3.72-1.04-4.56-.68-.85-1.8-1.14-3.36-.86a5.8 5.8 0 0 0-4.04 2.42c-.85 1.27-1.28 3.01-1.28 5.21 0 2.01.43 3.49 1.28 4.45.87.94 2.13 1.26 3.8.96a5.72 5.72 0 0 0 4.41-3.5l5.36.61a12.23 12.23 0 0 1-3.8 5.27 12.32 12.32 0 0 1-5.66 2.65Zm-7.04-8.63v-4.04l14.1-2.51v4.04l-14.1 2.51Zm29.74 4.59a8.03 8.03 0 0 1-5.13-.59 7.78 7.78 0 0 1-3.45-3.46 12.1 12.1 0 0 1-1.22-5.61c0-2.2.41-4.22 1.24-6.08a12.78 12.78 0 0 1 3.52-4.68 11.18 11.18 0 0 1 5.32-2.43c2.02-.36 3.72-.16 5.1.59a7.2 7.2 0 0 1 3.13 3.53 13.73 13.73 0 0 1 1.06 5.63c0 2.16-.36 4.16-1.08 6.01-.7 1.85-1.77 3.4-3.19 4.65a10.67 10.67 0 0 1-5.3 2.44Zm.87-4.99a5.5 5.5 0 0 0 2.86-1.33 5.76 5.76 0 0 0 1.55-2.58 12 12 0 0 0 .47-3.52c0-1.31-.15-2.43-.47-3.36a3.61 3.61 0 0 0-1.51-2.03 3.8 3.8 0 0 0-2.7-.34c-1.2.21-2.18.69-2.96 1.43a6.54 6.54 0 0 0-1.69 2.68 10.16 10.16 0 0 0-.55 3.38c0 1.21.18 2.28.53 3.22.36.92.9 1.61 1.63 2.07.74.46 1.69.58 2.84.38Zm4.88 3.37v-14.8l-.67.12v-14l5.4-.96v28.8l-4.73.84Zm-424.84 131.13a8.1 8.1 0 0 1-5.14-.59 7.8 7.8 0 0 1-3.44-3.47 12.03 12.03 0 0 1-1.23-5.6c0-2.2.42-4.23 1.25-6.08a12.89 12.89 0 0 1 3.52-4.69 11.25 11.25 0 0 1 5.32-2.42c2.02-.36 3.72-.16 5.1.59a7.22 7.22 0 0 1 3.13 3.52c.7 1.6 1.06 3.47 1.06 5.63 0 2.16-.36 4.17-1.08 6.02a11.67 11.67 0 0 1-3.2 4.64 10.6 10.6 0 0 1-5.29 2.45Zm.87-5a5.34 5.34 0 0 0 2.85-1.33 5.67 5.67 0 0 0 1.56-2.57c.31-1.05.47-2.22.47-3.53 0-1.3-.16-2.42-.47-3.35a3.61 3.61 0 0 0-1.52-2.03c-.68-.43-1.58-.54-2.7-.34a5.57 5.57 0 0 0-2.95 1.42 6.6 6.6 0 0 0-1.7 2.68 10.16 10.16 0 0 0-.54 3.38 9 9 0 0 0 .53 3.23c.35.92.9 1.61 1.63 2.07.74.45 1.68.58 2.84.37Zm4.88 3.37v-14.8l-.67.12v-14l5.4-.96v28.8l-4.73.84Zm20.13-2.97c-2.18.38-4.1.25-5.77-.4a8.02 8.02 0 0 1-3.9-3.25 10.3 10.3 0 0 1-1.4-5.51c0-2.36.46-4.49 1.38-6.4a13.05 13.05 0 0 1 3.8-4.74 12.53 12.53 0 0 1 5.57-2.45c2.23-.39 4.13-.2 5.7.59a7.28 7.28 0 0 1 3.46 3.88c.75 1.8 1 4.03.78 6.68l-5.3.95v-2c0-2.2-.34-3.72-1.04-4.56-.68-.85-1.8-1.14-3.36-.86a5.81 5.81 0 0 0-4.04 2.42c-.85 1.27-1.28 3.01-1.28 5.21 0 2.01.43 3.49 1.28 4.45.87.94 2.13 1.26 3.8.96a5.71 5.71 0 0 0 4.41-3.5l5.36.61a12.24 12.24 0 0 1-3.8 5.27 12.3 12.3 0 0 1-5.65 2.65Zm-7.05-8.63v-4.04l14.1-2.51v4.04l-14.1 2.51Zm29.43 4.65c-2.68.47-4.84.24-6.5-.69-1.64-.95-2.64-2.52-2.99-4.71l5.47-1.81c.23.97.72 1.68 1.48 2.12.77.43 1.75.55 2.94.34.97-.18 1.71-.5 2.24-.96.53-.48.79-1.06.79-1.74 0-.43-.1-.75-.32-.97-.2-.23-.68-.4-1.42-.52a43.9 43.9 0 0 0-3.38-.4 17.15 17.15 0 0 1-4.16-.78 4.4 4.4 0 0 1-2.24-1.6 4.92 4.92 0 0 1-.7-2.72c0-1.39.36-2.65 1.05-3.79a8.58 8.58 0 0 1 2.94-2.88 12.7 12.7 0 0 1 4.49-1.64c1.66-.29 3.14-.3 4.43-.01a6.1 6.1 0 0 1 3.1 1.67c.8.82 1.3 1.87 1.48 3.14l-5.47 1.97a2.2 2.2 0 0 0-1.02-1.72c-.6-.36-1.4-.49-2.4-.39a4.9 4.9 0 0 0-2.39.82c-.59.44-.88.98-.88 1.6 0 .38.12.67.37.88.26.2.8.37 1.6.49s2.04.25 3.7.38c1.61.14 2.9.41 3.88.81.98.39 1.7.94 2.14 1.66.45.71.67 1.62.67 2.74a7.6 7.6 0 0 1-2.36 5.64c-1.58 1.55-3.76 2.57-6.54 3.07Zm13.62-27.63v-4.8l5.36-.95v4.8l-5.36.95Zm0 24.6v-21.6l5.36-.95v21.6l-5.36.95Zm20.36 6.59c-1.2.21-2.36.21-3.45.01a7.97 7.97 0 0 1-2.93-1.12 6.7 6.7 0 0 1-2.09-2.07l4.96-3.32c.34.58.83.98 1.46 1.2.64.22 1.34.26 2.09.13.8-.14 1.55-.42 2.26-.82.71-.4 1.28-.9 1.7-1.52.43-.62.63-1.32.6-2.11v-6.28l.68-.12v-16.72l4.68-.84v23.08a14.03 14.03 0 0 1-.31 2.98 8.15 8.15 0 0 1-1.91 3.6 10.9 10.9 0 0 1-3.39 2.5 15.96 15.96 0 0 1-4.35 1.42Zm-.47-9.52a8.03 8.03 0 0 1-5.14-.59 7.83 7.83 0 0 1-3.45-3.46 12.1 12.1 0 0 1-1.22-5.61c0-2.2.41-4.22 1.24-6.08a12.78 12.78 0 0 1 3.53-4.68 11.18 11.18 0 0 1 5.31-2.43c2.02-.36 3.72-.16 5.1.59a7.2 7.2 0 0 1 3.13 3.53 13.73 13.73 0 0 1 1.07 5.63c0 2.16-.37 4.16-1.09 6.01-.7 1.85-1.77 3.4-3.19 4.65a10.67 10.67 0 0 1-5.3 2.44Zm.86-4.99a5.5 5.5 0 0 0 2.86-1.33 5.76 5.76 0 0 0 1.55-2.58c.32-1.04.48-2.22.48-3.52 0-1.31-.16-2.43-.48-3.36a3.61 3.61 0 0 0-1.51-2.03 3.78 3.78 0 0 0-2.7-.34 5.5 5.5 0 0 0-2.95 1.43 6.54 6.54 0 0 0-1.7 2.68 10.1 10.1 0 0 0-.55 3.37c0 1.22.18 2.29.53 3.23.36.92.9 1.61 1.64 2.07.73.46 1.68.58 2.83.38Zm29.58-1.02v-10.2c0-.5-.03-1.12-.08-1.87a7.69 7.69 0 0 0-.5-2.23 3.4 3.4 0 0 0-1.35-1.7c-.62-.41-1.5-.51-2.64-.31a6.1 6.1 0 0 0-1.47.48c-.53.24-1.02.62-1.48 1.12a5.8 5.8 0 0 0-1.14 2.05c-.3.86-.44 1.97-.44 3.31l-3.07-.93c0-1.71.34-3.37 1.02-4.98.69-1.62 1.71-3 3.08-4.17a10.84 10.84 0 0 1 5.2-2.3 7.97 7.97 0 0 1 4.07.13c1.05.39 1.86.97 2.44 1.75.6.77 1.01 1.62 1.26 2.54.25.9.4 1.74.46 2.52.05.77.07 1.34.07 1.7v12.12l-5.43.97Zm-14.53 2.58v-21.6l4.76-.85v7.16l.67-.12v14.44l-5.43.97Zm33.38-5.33c-2.67.47-4.84.24-6.5-.69-1.64-.95-2.63-2.52-2.99-4.71l5.48-1.81c.22.97.71 1.68 1.47 2.12.78.43 1.76.55 2.94.34a4.6 4.6 0 0 0 2.24-.96c.53-.48.79-1.06.79-1.74 0-.43-.1-.75-.32-.97-.2-.23-.68-.4-1.41-.53-.73-.12-1.85-.25-3.39-.39a17.13 17.13 0 0 1-4.15-.78 4.35 4.35 0 0 1-2.25-1.61 4.86 4.86 0 0 1-.69-2.71 7.1 7.1 0 0 1 1.05-3.79 8.58 8.58 0 0 1 2.93-2.88 12.7 12.7 0 0 1 4.49-1.64c1.67-.29 3.14-.3 4.43-.01a6.1 6.1 0 0 1 3.11 1.67c.8.82 1.3 1.86 1.48 3.14l-5.48 1.97a2.2 2.2 0 0 0-1.02-1.72 3.84 3.84 0 0 0-2.4-.39c-.99.11-1.78.38-2.39.82-.59.44-.88.98-.88 1.6 0 .38.12.67.37.88.26.2.8.37 1.6.49.81.12 2.04.25 3.7.38 1.61.14 2.9.41 3.88.81.98.39 1.7.94 2.14 1.66.45.71.67 1.62.67 2.74 0 2.22-.78 4.1-2.36 5.64-1.57 1.55-3.75 2.57-6.54 3.07Z"/>
  <path fill="#AE6D6D" fill-rule="evenodd" d="m355 1493.67 30.8-22.41.02 10.27 25.18-4.47v13l-25.16 4.47.02 10.49-30.86-11.35Zm1057.31-187.73-28.77-11.83-.02 10.29-23.52 4.18v13l23.5-4.18-.02 10.5 28.83-21.96Z" clip-rule="evenodd"/>
  <path fill="url(#n)" d="M0 0h585v2378.08H0z" transform="matrix(.9846 -.175 0 1 -280 1576.43)"/>
  <path fill="url(#o)" d="M0 0h560.65v2349.21H0z" transform="matrix(.9846 -.175 0 1 -280 1605.3)"/>
  <path fill="#51131C" d="m-396 1382.29 496.66-88.28 195.91 179.93-496.66 88.27z"/>
  <path fill="#3E0E15" d="m275.05 2049 4.98 27.55L-406 2200.61l-4.98-27.55zm5 511 4.98 27.55L-401 2711.61l-4.98-27.55zm-7 516 4.98 27.55L-408 3227.61l-4.98-27.55z"/>
  <mask id="r" fill="#fff">
    <path fill-rule="evenodd" d="m210 1623.99-234 41.6v377.98l234-41.6v-377.98Zm6 520.01-234 41.6v377.98l234-41.6V2144Zm-240 556.6 234-41.6v377.98l-234 41.6V2700.6ZM210 3169l-234 41.6v377.98l234-41.6V3169Z" clip-rule="evenodd"/>
  </mask>
  <path fill="url(#p)" fill-rule="evenodd" d="m210 1623.99-234 41.6v377.98l234-41.6v-377.98Zm6 520.01-234 41.6v377.98l234-41.6V2144Zm-240 556.6 234-41.6v377.98l-234 41.6V2700.6ZM210 3169l-234 41.6v377.98l234-41.6V3169Z" clip-rule="evenodd"/>
  <path fill="url(#q)" fill-opacity=".2" fill-rule="evenodd" d="m210 1623.99-234 41.6v377.98l234-41.6v-377.98Zm6 520.01-234 41.6v377.98l234-41.6V2144Zm-240 556.6 234-41.6v377.98l-234 41.6V2700.6ZM210 3169l-234 41.6v377.98l234-41.6V3169Z" clip-rule="evenodd"/>
  <path fill="#1E070B" d="m-24 1665.59-1.75-9.85-8.25 1.47v8.38h10Zm234-41.6h10v-11.94l-11.75 2.09 1.75 9.85Zm-234 419.58h-10v11.93l11.75-2.09-1.75-9.84Zm234-41.6 1.75 9.84 8.25-1.46v-8.38h-10ZM-18 2185.6l-1.75-9.85-8.25 1.47v8.38h10Zm234-41.6h10v-11.93l-11.75 2.08L216 2144Zm-234 419.58h-10v11.93l11.75-2.09-1.75-9.84Zm234-41.6 1.75 9.84 8.25-1.46v-8.38h-10ZM210 2659h10v-11.93l-11.75 2.08L210 2659Zm-234 41.6-1.75-9.85-8.25 1.47v8.38h10Zm234 336.38 1.75 9.84 8.25-1.46v-8.38h-10Zm-234 41.6h-10v11.93l11.75-2.09-1.75-9.84Zm0 132.02-1.75-9.85-8.25 1.47v8.38h10Zm234-41.6h10v-11.93l-11.75 2.08L210 3169Zm-234 419.58h-10v11.93l11.75-2.09-1.75-9.84Zm234-41.6 1.75 9.84 8.25-1.46v-8.38h-10ZM-22.25 1675.43l234-41.6-3.5-19.69-234 41.6 3.5 19.69Zm8.25 368.14v-377.98h-20v377.98h20Zm222.25-51.45-234 41.6 3.5 19.69 234-41.6-3.5-19.69ZM200 1623.99v377.98h20v-377.98h-20Zm-216.25 571.46 234-41.6-3.5-19.7-234 41.6 3.5 19.7ZM-8 2563.58V2185.6h-20v377.98h20Zm222.25-51.45-234 41.6 3.5 19.69 234-41.6-3.5-19.69ZM206 2144v377.98h20V2144h-20Zm2.25 505.15-234 41.6 3.5 19.7 234-41.6-3.5-19.7ZM220 3036.98V2659h-20v377.98h20Zm-242.25 51.44 234-41.6-3.5-19.69-234 41.6 3.5 19.69ZM-34 2700.6v377.98h20V2700.6h-20Zm11.75 519.85 234-41.6-3.5-19.7-234 41.6 3.5 19.7Zm8.25 368.13V3210.6h-20v377.98h20Zm222.25-51.45-234 41.6 3.5 19.69 234-41.6-3.5-19.69ZM200 3169v377.98h20V3169h-20Z" mask="url(#r)"/>
  <path fill="#1A0000" d="M262.5 1419c-1.5 0-149 37-176.5-93h98c5.6 38.8 51 26.17 78.5 19 22 19 1.5 74 0 74Z"/>
  <path fill="#1A0000" fill-rule="evenodd" d="M-14.1 430.36c-5.43.97-6.51 4.75-2.4 8.44l13.56 12.21v885.67l25.6 23.88V457.47l225.84-40.15c5.43-.96 6.51-4.74 2.4-8.44l-16.34-14.71c-4.11-3.7-11.85-5.91-17.28-4.94L-14.1 430.36Z" clip-rule="evenodd"/>
  <rect width="239.05" height="916.03" fill="#480D16" rx="10" transform="matrix(.9846 -.175 0 1 20.06 448.32)"/>
  <g filter="url(#s)">
    <rect width="177.34" height="875.51" stroke="#D74C55" stroke-linejoin="round" stroke-width="20" rx="10" transform="matrix(.9755 -.22 0 1 57 464)"/>
  </g>
  <rect width="177.34" height="875.51" stroke="#D74C55" stroke-linejoin="round" stroke-width="20" class="flicker-slow" rx="10" transform="matrix(.9755 -.22 0 1 57 464)"/>
  <rect width="177.34" height="875.51" stroke="#FFE9E9" stroke-linejoin="round" stroke-width="10" class="flicker-slow" rx="10" transform="matrix(.9755 -.22 0 1 57 464)"/>
  <g filter="url(#t)">
    <use xlink:href="#u"/>
  </g>
  <g filter="url(#v)">
    <use xlink:href="#u"/>
  </g>
  <use xlink:href="#u"/>
  <g fill="#FFE9E9" filter="url(#w)">
    <path d="M154.32 537.08a7.16 7.16 0 0 0-4.08-5.98c-2.39-1.16-5.32-1.44-8.78-.82a18.86 18.86 0 0 0-6.66 2.43 13.77 13.77 0 0 0-4.42 4.23 9.62 9.62 0 0 0-1.57 5.25 6.2 6.2 0 0 0 1.1 3.8c.74.97 1.7 1.72 2.85 2.26 1.15.51 2.37.9 3.63 1.14 1.27.23 2.44.4 3.5.49l5.82.55c1.49.14 3.15.39 4.98.77 1.84.37 3.6 1.01 5.28 1.92 1.7.9 3.1 2.18 4.2 3.86 1.1 1.68 1.65 3.88 1.65 6.61 0 3.14-.81 6.13-2.44 8.96a21.58 21.58 0 0 1-7.04 7.3 29.33 29.33 0 0 1-11.22 4.24c-4.1.73-7.65.69-10.66-.12a13.33 13.33 0 0 1-7.05-4.38 13.75 13.75 0 0 1-2.88-7.86l7.16-1.28c.2 2.17.92 3.86 2.19 5.07a9.44 9.44 0 0 0 4.86 2.32c1.98.33 4.1.29 6.38-.12a21.16 21.16 0 0 0 7.13-2.57 15.73 15.73 0 0 0 5-4.58 10.27 10.27 0 0 0 1.85-5.9c0-1.93-.53-3.4-1.59-4.43a9.26 9.26 0 0 0-4.2-2.21c-1.73-.45-3.6-.78-5.62-.99l-7.04-.8c-4.48-.5-8.02-1.74-10.63-3.7-2.61-1.96-3.92-4.9-3.92-8.82 0-3.26.87-6.25 2.6-8.99a22.47 22.47 0 0 1 7.05-6.93 27.08 27.08 0 0 1 9.93-3.81c3.7-.66 6.97-.57 9.84.27 2.88.81 5.15 2.23 6.83 4.24 1.7 2 2.6 4.47 2.69 7.39l-6.72 1.2ZM123 683.28v-58.17l19.35-3.45c4.5-.8 8.17-.62 11.02.52 2.87 1.12 5 2.95 6.38 5.48a18.48 18.48 0 0 1 2.07 8.95c0 3.43-.7 6.67-2.07 9.72a20.08 20.08 0 0 1-6.32 7.83c-2.86 2.15-6.51 3.63-10.97 4.42l-13.87 2.46v-6.25l13.65-2.42c3.08-.55 5.55-1.53 7.41-2.94a12.4 12.4 0 0 0 4.06-5.1c.85-2 1.28-4.17 1.28-6.5s-.43-4.34-1.28-6.02a7.17 7.17 0 0 0-4.09-3.6c-1.88-.72-4.38-.8-7.5-.25l-12.19 2.16v51.93L123 683.3Zm0 97v-58.17l34.57-6.15v6.25l-27.64 4.91v19.66l25.85-4.6v6.26l-25.85 4.6v19.76l28.08-4.99v6.25L123 780.3Zm2.34 96.6-7.27 1.28 21.04-61.92 7.16-1.27 21.03 54.44-7.27 1.3-17.12-45.94-.45.08-17.12 52.02Zm2.69-23.21 29.31-5.21v6.25l-29.31 5.2v-6.24ZM123 974.29V916.1l6.93-1.24v28.87l.67-.12 25.74-33.44 9.06-1.61-24.06 30.52 24.06 27.66-8.4 1.5-19.9-23.51-7.17 9.45v18.86L123 974.3Zm0 97v-58.18l34.57-6.15v6.25l-27.64 4.91v19.66l25.85-4.59v6.25l-25.85 4.59v19.78l28.08-5v6.25l-35.01 6.23Zm0 97v-58.18l19.35-3.44c4.48-.8 8.15-.68 11.02.37a11.4 11.4 0 0 1 6.38 5.2c1.38 2.44 2.07 5.38 2.07 8.81 0 3.42-.7 6.59-2.07 9.48a19 19 0 0 1-6.35 7.38c-2.85 2-6.5 3.4-10.94 4.19l-15.66 2.78v-6.36l15.44-2.74c3.06-.55 5.52-1.44 7.38-2.68a11 11 0 0 0 4.09-4.59 14.6 14.6 0 0 0 1.28-6.25c0-2.33-.43-4.29-1.28-5.88a6.85 6.85 0 0 0-4.12-3.3c-1.88-.63-4.37-.68-7.46-.12l-12.2 2.16v51.94l-6.94 1.23Zm26.96-30.93 14.1 23.63-8.06 1.43-13.87-23.67 7.83-1.39Zm4.36 78.72c-.33-2.82-1.7-4.81-4.08-5.98-2.39-1.16-5.32-1.44-8.78-.82a18.87 18.87 0 0 0-6.66 2.43 13.79 13.79 0 0 0-4.42 4.23 9.6 9.6 0 0 0-1.57 5.25c0 1.55.37 2.82 1.1 3.81.74.96 1.7 1.71 2.85 2.25 1.15.51 2.37.89 3.63 1.14 1.27.23 2.44.39 3.5.49l5.82.55c1.49.13 3.15.39 4.98.77 1.84.37 3.6 1.01 5.28 1.92 1.7.9 3.1 2.18 4.2 3.86 1.1 1.68 1.65 3.88 1.65 6.61 0 3.14-.81 6.13-2.44 8.96a21.62 21.62 0 0 1-7.04 7.3 29.33 29.33 0 0 1-11.22 4.24c-4.1.73-7.65.69-10.66-.12a13.38 13.38 0 0 1-7.05-4.38 13.72 13.72 0 0 1-2.88-7.86l7.16-1.28c.2 2.17.92 3.86 2.19 5.07a9.52 9.52 0 0 0 4.86 2.32c1.98.33 4.1.29 6.38-.11a21.28 21.28 0 0 0 7.13-2.58 15.78 15.78 0 0 0 5-4.58 10.29 10.29 0 0 0 1.85-5.9c0-1.93-.53-3.41-1.59-4.43a9.3 9.3 0 0 0-4.2-2.21c-1.73-.45-3.6-.78-5.62-.99l-7.04-.79c-4.48-.51-8.02-1.75-10.63-3.71-2.61-1.96-3.92-4.9-3.92-8.82 0-3.26.87-6.25 2.6-8.99a22.52 22.52 0 0 1 7.05-6.93 27.1 27.1 0 0 1 9.93-3.81c3.7-.66 6.97-.57 9.84.27 2.88.81 5.15 2.23 6.83 4.24 1.7 2.01 2.6 4.47 2.69 7.39l-6.72 1.19Z"/>
    <path d="m154.32 537.08-1.95.59c.11.98.95 1.59 1.95 1.41v-2Zm-4.08-5.98-1.08 1.87 1.08-1.87Zm-15.44 1.61-.78-1.7.78 1.7Zm-4.42 4.23-1.58-.91-.01.01 1.59.9Zm-.48 9.06-1.64 1.4.02.02 1.62-1.42Zm2.86 2.25-1.05 1.88h.02l1.03-1.88Zm3.63 1.14-.68 2h.03l.65-2Zm3.5.49.51-2.03-.51 2.03Zm5.82.55-.52 2.03h.02l.5-2.03Zm4.98.77-.7 1.99.7-2Zm5.28 1.92-1.14 1.84h.02l1.12-1.84Zm4.2 3.86 1.69-1.32-1.7 1.32Zm-.78 15.57-1.66-.8v.01l1.66.79Zm-7.05 7.3-.85-1.65.85 1.65Zm-21.88 4.12-.8 1.97.8-1.97Zm-7.05-4.38-1.6 1.45.01.01 1.6-1.46Zm-2.88-7.86v-2a2.4 2.4 0 0 0-1.44.89 2.35 2.35 0 0 0-.52 1.6l1.96-.5Zm7.16-1.28 1.97-.52a1.6 1.6 0 0 0-1.97-1.48v2Zm2.19 5.07-1.47 1.6.02.01 1.45-1.61Zm4.86 2.32-.65 2h.02l.63-2Zm13.51-2.69.75 1.72-.75-1.72Zm5-4.58 1.55.97v-.01l-1.54-.96Zm.26-10.33 1.47-1.6-1.47 1.6Zm-4.2-2.21-.77 1.98.78-1.98Zm-5.62-.99-.54 2.02h.02l.52-2.02Zm-7.04-.8-.55 2.03.55-2.02Zm-10.63-3.7-1.33 1.71 1.33-1.7Zm-1.32-17.8-1.59-.9 1.6.9Zm7.05-6.94.8 1.68h.01l-.81-1.68Zm19.78-3.54-.83 1.96h.01l.81-1.96Zm6.82 4.24-1.59 1.47h.01l1.58-1.47Zm2.69 7.39v2a2.4 2.4 0 0 0 1.41-.86c.37-.46.57-1.02.55-1.55l-1.97.4Zm-4.76.61c-.4-3.4-2.09-5.86-4.96-7.26l-2.16 3.73a5.55 5.55 0 0 1 3.2 4.7l3.92-1.17Zm-4.96-7.26c-2.77-1.35-6.1-1.63-9.86-.96v4c3.16-.56 5.7-.3 7.7.69l2.16-3.73Zm-9.86-.96a21.08 21.08 0 0 0-7.44 2.74l1.56 3.39c1.6-.99 3.55-1.72 5.88-2.13v-4Zm-7.45 2.74a16.3 16.3 0 0 0-5.21 5l3.16 1.82a11.25 11.25 0 0 1 3.63-3.43L134 531Zm-5.22 5.02a11.96 11.96 0 0 0-1.95 6.5l3.94-.7c0-1.45.4-2.76 1.2-4.01l-3.2-1.79Zm-1.95 6.5c0 1.88.45 3.53 1.42 4.85l3.29-2.79a4.52 4.52 0 0 1-.77-2.76l-3.94.7Zm1.44 4.88a9.04 9.04 0 0 0 3.43 2.7l2.1-3.75a5.98 5.98 0 0 1-2.28-1.8l-3.25 2.85Zm3.45 2.71c1.26.57 2.6.99 3.98 1.26l1.36-4a15.27 15.27 0 0 1-3.28-1.03l-2.06 3.77Zm4 1.26c1.32.24 2.53.4 3.66.5l1-4.04c-1-.09-2.11-.24-3.34-.46l-1.31 4Zm3.65.5 5.81.57 1.03-4.05-5.82-.56-1.02 4.05Zm5.83.57c1.4.12 3 .36 4.78.73l1.4-3.99a50.79 50.79 0 0 0-5.18-.8l-1 4.06Zm4.79.73c1.68.34 3.29.93 4.83 1.77l2.28-3.67a20.34 20.34 0 0 0-5.74-2.1l-1.37 4Zm4.85 1.78a9.66 9.66 0 0 1 3.63 3.34l3.38-2.65a12.72 12.72 0 0 0-4.77-4.38l-2.24 3.69Zm3.63 3.34c.88 1.34 1.37 3.18 1.37 5.63l3.94-.7c0-3-.6-5.57-1.93-7.58l-3.38 2.65Zm1.37 5.63c0 2.77-.71 5.36-2.12 7.81l3.3 1.6a20.04 20.04 0 0 0 2.76-10.1l-3.94.7Zm-2.12 7.82a19.02 19.02 0 0 1-6.24 6.44l1.7 3.3a24.14 24.14 0 0 0 7.85-8.17l-3.31-1.57Zm-6.24 6.44c-2.75 1.82-6.18 3.14-10.37 3.89v4a31.55 31.55 0 0 0 12.07-4.59l-1.7-3.3Zm-10.37 3.89c-3.9.7-7.16.63-9.86-.1l-1.6 3.95c3.32.9 7.15.91 11.46.15v-4Zm-9.86-.1a11.8 11.8 0 0 1-6.25-3.85l-3.19 2.91c1.94 2.38 4.58 4 7.84 4.89l1.6-3.94Zm-6.24-3.85a12.05 12.05 0 0 1-2.52-6.9l-3.93.98a15.46 15.46 0 0 0 3.24 8.82l3.2-2.9Zm-4.49-4.41 7.16-1.28v-4l-7.16 1.28v4Zm5.2-2.76c.22 2.53 1.09 4.62 2.68 6.14l2.93-3.19a5.97 5.97 0 0 1-1.68-3.99l-3.93 1.04Zm2.7 6.16a11 11 0 0 0 5.66 2.7l1.3-4a7.89 7.89 0 0 1-4.06-1.92l-2.9 3.22Zm5.68 2.71c2.2.37 4.54.32 7.01-.12v-4c-2.08.38-3.99.4-5.74.11l-1.27 4.01Zm7.01-.12c2.86-.5 5.5-1.44 7.88-2.85l-1.49-3.44a18.96 18.96 0 0 1-6.39 2.3v4Zm7.89-2.86a18.4 18.4 0 0 0 5.8-5.32l-3.1-1.94a13.37 13.37 0 0 1-4.21 3.84l1.5 3.42Zm5.8-5.33a12.62 12.62 0 0 0 2.26-7.2l-3.93.7c0 1.69-.48 3.19-1.43 4.58l3.1 1.92Zm2.26-7.2c0-2.33-.64-4.3-2.09-5.68l-2.94 3.18c.68.66 1.1 1.65 1.1 3.2l3.94-.7Zm-2.09-5.68a10.82 10.82 0 0 0-4.89-2.6l-1.55 3.96a7.72 7.72 0 0 1 3.5 1.82l2.94-3.18Zm-4.89-2.6a39.9 39.9 0 0 0-5.87-1.03l-1.05 4.04c1.93.2 3.72.52 5.37.95l1.55-3.96Zm-5.86-1.03-7.04-.8-1.09 4.05 7.05.79 1.08-4.04Zm-7.04-.8c-4.27-.48-7.52-1.64-9.84-3.4l-2.66 3.43c2.9 2.18 6.73 3.48 11.41 4.02l1.09-4.04Zm-9.84-3.4c-2.17-1.62-3.28-4.03-3.28-7.45l-3.94.7c0 4.42 1.5 7.89 4.56 10.18l2.66-3.42Zm-3.28-7.45c0-2.87.76-5.43 2.23-7.74l-3.2-1.79c-2 3.15-2.97 6.59-2.97 10.23l3.94-.7Zm2.22-7.74a19.9 19.9 0 0 1 6.27-6.15l-1.62-3.36a25.03 25.03 0 0 0-7.83 7.72l3.18 1.79Zm6.27-6.15a25.1 25.1 0 0 1 9.12-3.5v-4c-3.9.7-7.5 2.07-10.74 4.14l1.62 3.36Zm9.12-3.5c3.45-.6 6.45-.5 9.02.24l1.65-3.93c-3.17-.92-6.74-1-10.67-.3v4Zm9.03.24c2.6.74 4.6 2 6.05 3.75l3.18-2.94a14.9 14.9 0 0 0-7.6-4.74l-1.63 3.93Zm6.06 3.75a9.95 9.95 0 0 1 2.3 6.33l3.93-.82a13.39 13.39 0 0 0-3.07-8.46l-3.16 2.95Zm4.26 3.92-6.7 1.2v4l6.7-1.2v-4ZM123 683.29l-1.97.35c0 1.1.88 1.84 1.97 1.65v-2Zm0-58.18v-2a2.48 2.48 0 0 0-1.97 2.35l1.97-.35Zm30.37-2.93-.97 1.91h.01l.96-1.91Zm6.38 5.48-1.76 1.22 1.76-1.22Zm0 18.67-1.76-.58 1.76.58Zm-6.32 7.83.97 1.56-.97-1.56Zm-24.84 6.88-1.97.35c0 1.1.88 1.85 1.97 1.65v-2Zm0-6.25v-2a2.47 2.47 0 0 0-1.97 2.35l1.97-.35Zm21.06-5.36-.97-1.56.97 1.56Zm4.06-5.1-1.79-.53v.01l1.79.52Zm0-12.52-1.79 1.16 1.79-1.16Zm-4.09-3.6-.95 1.92h.01l.94-1.92Zm-19.69 1.91v-2a2.47 2.47 0 0 0-1.97 2.35l1.97-.35Zm0 51.93v2a2.47 2.47 0 0 0 1.97-2.34l-1.97.34Zm-4.97.89v-58.18l-3.93.7v58.18l3.93-.7ZM123 627.1l19.35-3.45v-4L123 623.12v4Zm19.35-3.45c4.27-.75 7.58-.56 10.05.43l1.94-3.82c-3.24-1.3-7.27-1.44-11.99-.6v4Zm10.06.44c2.56.99 4.39 2.59 5.58 4.77l3.52-2.42a13.42 13.42 0 0 0-7.18-6.19l-1.92 3.84Zm5.58 4.77a16.67 16.67 0 0 1 1.86 8.1l3.94-.7c0-3.72-.75-7-2.28-9.82l-3.52 2.42Zm1.86 8.1c0 3.14-.63 6.06-1.86 8.78l3.52 1.16a25.55 25.55 0 0 0 2.28-10.65l-3.94.7Zm-1.87 8.79a17.5 17.5 0 0 1-5.53 6.84l1.96 3.12a22.65 22.65 0 0 0 7.1-8.82l-3.53-1.14Zm-5.53 6.83c-2.46 1.87-5.75 3.24-9.99 3.99v4c4.68-.84 8.7-2.41 11.94-4.86l-1.95-3.13Zm-9.99 3.99-13.87 2.46v4l13.87-2.46v-4Zm-11.9 4.11v-6.25l-3.94.7v6.25l3.94-.7Zm-1.97-3.9 13.65-2.42v-4l-13.65 2.42v4Zm13.65-2.42c3.28-.59 6.12-1.66 8.39-3.38l-1.95-3.12c-1.47 1.1-3.57 1.99-6.44 2.5v4Zm8.39-3.38a14.94 14.94 0 0 0 4.86-6.13l-3.57-1.05a9.84 9.84 0 0 1-3.24 4.06l1.95 3.12Zm4.86-6.12c1-2.34 1.47-4.81 1.47-7.4l-3.94.7c0 2.08-.38 3.95-1.1 5.63l3.57 1.07Zm1.47-7.4c0-2.58-.47-4.87-1.47-6.84l-3.56 2.35c.71 1.4 1.1 3.12 1.1 5.2l3.93-.7Zm-1.47-6.82a8.72 8.72 0 0 0-4.93-4.36l-1.88 3.85a5.64 5.64 0 0 1 3.24 2.83l3.57-2.32Zm-4.91-4.36c-2.28-.87-5.14-.92-8.45-.33v4c2.92-.52 5.05-.4 6.54.17l1.9-3.84Zm-8.45-.33-12.2 2.16v4l12.2-2.16v-4Zm-14.17 4.51v51.93l3.94-.7v-51.93l-3.94.7Zm1.97 49.58L123 681.3v4l6.94-1.24v-4ZM123 780.3l-1.96.35c0 1.1.88 1.84 1.97 1.65v-2Zm0-58.18v-2a2.48 2.48 0 0 0-1.96 2.35l1.97-.35Zm34.58-6.15 1.97-.35c0-1.1-.89-1.84-1.97-1.65v2Zm0 6.25v2a2.47 2.47 0 0 0 1.97-2.35l-1.97.35Zm-27.64 4.91v-2a2.47 2.47 0 0 0-1.97 2.35l1.97-.35Zm0 19.66-1.97.35c0 1.1.88 1.85 1.97 1.65v-2Zm25.85-4.6 1.97-.34c0-1.1-.89-1.85-1.97-1.65v2Zm0 6.26v2a2.48 2.48 0 0 0 1.97-2.35l-1.97.35Zm-25.85 4.6v-2a2.47 2.47 0 0 0-1.97 2.34l1.97-.35Zm0 19.76-1.97.36c0 1.1.88 1.84 1.97 1.64v-2Zm28.08-4.99 1.97-.35c0-1.1-.88-1.84-1.97-1.65v2Zm0 6.25v2a2.48 2.48 0 0 0 1.97-2.35l-1.97.35Zm-33.05 5.88v-58.18l-3.93.7v58.18l3.93-.7ZM123 724.1l34.57-6.15v-4L123 720.11v4Zm32.6-7.8v6.25l3.94-.7v-6.25l-3.94.7Zm1.97 3.9-27.64 4.91v4l27.64-4.91v-4Zm-29.6 7.26v19.66l3.93-.7v-19.66l-3.94.7Zm1.96 21.31 25.85-4.6v-4l-25.85 4.6v4Zm23.88-6.24v6.25l3.94-.7v-6.25l-3.94.7Zm1.97 3.9-25.85 4.6v4l25.85-4.6v-4Zm-27.82 6.94v19.77l3.94-.7v-19.77l-3.94.7Zm1.97 21.42 28.08-4.99v-4l-28.08 5v4Zm26.11-6.64v6.25l3.94-.7v-6.25l-3.94.7Zm1.97 3.9L123 778.3v4l35.01-6.23v-4Zm-32.66 104.81v2a2.49 2.49 0 0 0 1.85-1.66l-1.86-.34Zm-7.28 1.3-1.85-.37a1.9 1.9 0 0 0 .24 1.8c.37.47.97.68 1.61.56v-2Zm21.04-61.93v-2c-.83.15-1.57.8-1.85 1.64l1.85.36Zm7.16-1.27 1.84-1.02c-.28-.74-1.02-1.13-1.84-.98v2Zm21.03 54.44v2a2.45 2.45 0 0 0 1.61-1.14c.37-.6.46-1.3.24-1.88l-1.85 1.02Zm-7.27 1.3-1.86 1c.28.74 1.03 1.14 1.86 1v-2Zm-17.12-45.94 1.86-1c-.28-.75-1.03-1.15-1.86-1v2Zm-.45.08v-2c-.83.15-1.57.81-1.85 1.66l1.85.34Zm-14.43 28.82v-2a2.47 2.47 0 0 0-1.97 2.35l1.97-.35Zm29.31-5.21 1.97-.36a1.6 1.6 0 0 0-1.97-1.64v2Zm0 6.25v2a2.47 2.47 0 0 0 1.97-2.36l-1.97.36Zm-29.31 5.2-1.97.36c0 1.1.88 1.84 1.97 1.65v-2Zm-2.69 14.96-7.27 1.3v4l7.28-1.3v-4Zm-5.42 3.65 21.04-61.92-3.7-.72-21.04 61.92 3.7.72Zm19.19-60.28 7.16-1.27v-4l-7.16 1.27v4Zm5.3-2.25 21.04 54.44 3.7-2.04-21.03-54.44-3.7 2.04Zm22.9 51.42-7.28 1.3v4l7.27-1.3v-4Zm-5.43 2.3-17.11-45.94-3.72 2 17.12 45.93 3.71-2Zm-18.97-46.94-.45.08v4l.45-.08v-4Zm-2.3 1.74-17.12 52.02 3.71.68 17.12-52.02-3.71-.68Zm-12.58 31.16 29.31-5.21v-4l-29.31 5.2v4Zm27.34-6.87v6.25l3.94-.7v-6.25l-3.94.7Zm1.97 3.9-29.31 5.22v4l29.31-5.21v-4ZM130 859.58v-6.25l-3.94.7v6.25l3.94-.7Zm-7 114.72-1.97.35c0 1.1.88 1.84 1.97 1.65v-2Zm0-58.18v-2a2.48 2.48 0 0 0-1.97 2.35l1.97-.35Zm6.93-1.24 1.97-.35c0-1.1-.88-1.84-1.97-1.65v2Zm0 28.87-1.97.35c0 1.1.88 1.84 1.97 1.65v-2Zm.67-.12v2c.56-.1 1.09-.43 1.46-.92l-1.46-1.08Zm25.74-33.44v-2c-.56.1-1.09.43-1.46.92l1.46 1.08Zm9.06-1.61 1.44 1.1c.53-.67.68-1.55.36-2.22a1.61 1.61 0 0 0-1.8-.88v2Zm-24.06 30.52-1.44-1.1c-.65.83-.7 1.93-.12 2.6l1.56-1.5Zm24.06 27.66v2a2.47 2.47 0 0 0 1.76-1.43c.34-.74.26-1.54-.2-2.06l-1.56 1.49Zm-8.4 1.5-1.57 1.47c.37.44.96.63 1.58.52v-2Zm-19.9-23.51 1.57-1.48c-.35-.42-.9-.62-1.5-.54a2.4 2.4 0 0 0-1.55.95l1.47 1.07Zm-7.17 9.45-1.47-1.07c-.32.43-.5.93-.5 1.42l1.97-.35Zm0 18.86v2a2.47 2.47 0 0 0 1.97-2.34l-1.97.34Zm-4.97.89v-58.18l-3.93.7v58.18l3.93-.7ZM123 918.1l6.93-1.24v-4l-6.94 1.24v4Zm4.96-2.89v28.87l3.94-.7v-28.87l-3.94.7Zm1.97 30.52.67-.12v-4l-.67.12v4Zm2.13-1.04 25.74-33.44-2.92-2.16-25.74 33.43 2.92 2.17Zm24.28-32.52 9.06-1.61v-4l-9.06 1.6v4Zm7.62-4.72L139.9 938l2.88 2.21 24.06-30.53-2.88-2.2Zm-24.18 33.13 24.06 27.65 3.12-2.98-24.05-27.66-3.13 2.99Zm25.62 24.16-8.4 1.5v4l8.4-1.5v-4Zm-6.82 2.01-19.91-23.5-3.15 2.96 19.91 23.5 3.15-2.96Zm-22.96-23.09-7.16 9.45 2.94 2.14 7.16-9.46-2.94-2.13Zm-7.66 10.87v18.87l3.94-.7v-18.87l-3.94.7Zm1.97 16.51L123 972.3v4l6.94-1.24v-4ZM123 1071.3l-1.96.35c0 1.1.88 1.84 1.97 1.65v-2Zm0-58.18v-2a2.47 2.47 0 0 0-1.96 2.35l1.97-.35Zm34.58-6.15 1.97-.35c0-1.1-.89-1.84-1.97-1.65v2Zm0 6.25v2a2.48 2.48 0 0 0 1.97-2.35l-1.97.35Zm-27.64 4.91v-2a2.48 2.48 0 0 0-1.97 2.35l1.97-.35Zm0 19.66-1.97.35c0 1.11.88 1.85 1.97 1.65v-2Zm25.85-4.59 1.97-.35c0-1.11-.89-1.85-1.97-1.65v2Zm0 6.25v2a2.48 2.48 0 0 0 1.97-2.35l-1.97.35Zm-25.85 4.59v-2a2.48 2.48 0 0 0-1.97 2.35l1.97-.35Zm0 19.78-1.97.35c0 1.1.88 1.84 1.97 1.65v-2Zm28.08-5 1.97-.35c0-1.1-.88-1.84-1.97-1.65v2Zm0 6.25v2a2.47 2.47 0 0 0 1.97-2.35l-1.97.35Zm-33.05 5.88v-58.18l-3.93.7v58.18l3.93-.7Zm-1.96-55.83 34.57-6.15v-4l-34.57 6.15v4Zm32.6-7.8v6.25l3.94-.7v-6.25l-3.94.7Zm1.97 3.9-27.64 4.91v4l27.64-4.91v-4Zm-29.6 7.26v19.66l3.93-.7v-19.66l-3.94.7Zm1.96 21.31 25.85-4.59v-4l-25.85 4.59v4Zm23.88-6.24v6.25l3.94-.7v-6.25l-3.94.7Zm1.97 3.9-25.85 4.59v4l25.85-4.59v-4Zm-27.82 6.94v19.78l3.94-.7v-19.78l-3.94.7Zm1.97 21.43 28.08-5v-4l-28.08 5v4Zm26.11-6.65v6.25l3.94-.7v-6.25l-3.94.7Zm1.97 3.9-35.01 6.23v4l35.01-6.23v-4ZM123 1168.29l-1.97.35c0 1.1.88 1.84 1.97 1.65v-2Zm0-58.18v-2a2.47 2.47 0 0 0-1.97 2.35l1.97-.35Zm30.37-3.07-.92 1.93.92-1.93Zm6.38 5.2-1.75 1.23 1.75-1.23Zm0 18.29-1.74-.62 1.74.62Zm-6.35 7.38.9 1.62.01-.01-.91-1.61Zm-26.6 6.97-1.97.35c0 1.11.88 1.85 1.97 1.65v-2Zm0-6.36v-2a2.48 2.48 0 0 0-1.97 2.35l1.97-.35Zm22.82-5.42-.84-1.66v.01l.84 1.65Zm4.09-4.59-1.75-.61v.01l1.75.6Zm-4.12-15.43-.88 1.94h.01l.88-1.94Zm-19.66 2.04v-2a2.48 2.48 0 0 0-1.97 2.35l1.97-.35Zm0 51.94v2a2.48 2.48 0 0 0 1.97-2.35l-1.97.35Zm20.03-29.7 1.73-1.27a1.62 1.62 0 0 0-1.73-.73v2Zm14.1 23.63v2c.7-.13 1.34-.61 1.69-1.28.35-.67.37-1.43.03-1.99l-1.72 1.27Zm-8.06 1.43-1.73 1.26c.34.58 1 .87 1.73.74v-2Zm-13.87-23.67v-2c-.7.12-1.34.61-1.7 1.28a2.04 2.04 0 0 0-.04 1.98l1.74-1.26Zm-17.17 29.19v-58.18l-3.93.7v58.18l3.93-.7Zm-1.96-55.83 19.35-3.44v-4l-19.35 3.44v4Zm19.35-3.44c4.27-.76 7.6-.61 10.1.3l1.85-3.86c-3.25-1.18-7.27-1.28-11.95-.44v4Zm10.1.3a9.88 9.88 0 0 1 5.55 4.5l3.5-2.47a12.97 12.97 0 0 0-7.21-5.9l-1.83 3.87Zm5.55 4.5a15.86 15.86 0 0 1 1.85 7.93l3.94-.7c0-3.71-.75-6.96-2.3-9.7l-3.49 2.47Zm1.85 7.93c0 3.14-.63 5.97-1.84 8.51l3.48 1.25a24.07 24.07 0 0 0 2.3-10.46l-3.94.7Zm-1.84 8.51a16.42 16.42 0 0 1-5.52 6.39l1.82 3.22a21.61 21.61 0 0 0 7.18-8.36l-3.48-1.25Zm-5.51 6.39c-2.5 1.74-5.8 3.05-10.04 3.8v4c4.64-.82 8.62-2.31 11.84-4.57l-1.8-3.23Zm-10.04 3.8-15.66 2.78v4l15.66-2.78v-4Zm-13.7 4.43v-6.36l-3.93.7v6.36l3.94-.7Zm-1.96-4.01 15.44-2.74v-4l-15.44 2.74v4Zm15.44-2.74c3.22-.58 6-1.55 8.23-3.03l-1.7-3.3c-1.5 1-3.64 1.81-6.53 2.33v4Zm8.23-3.02a13.62 13.62 0 0 0 4.99-5.65l-3.5-1.2a8.5 8.5 0 0 1-3.18 3.53l1.69 3.32Zm4.99-5.64a16.85 16.85 0 0 0 1.5-7.21l-3.94.7c0 2.08-.38 3.83-1.06 5.29l3.5 1.22Zm1.5-7.21c0-2.58-.47-4.85-1.5-6.74l-3.51 2.42c.7 1.29 1.07 2.94 1.07 5.02l3.94-.7Zm-1.5-6.74a8.37 8.37 0 0 0-5-4.04l-1.74 3.89a5.34 5.34 0 0 1 3.23 2.57l3.52-2.42Zm-4.98-4.04c-2.25-.75-5.08-.76-8.35-.17v4c2.92-.52 5.07-.45 6.58.06l1.77-3.89Zm-8.35-.17-12.2 2.16v4l12.2-2.16v-4Zm-14.17 4.51v51.94l3.94-.7v-51.94l-3.94.7Zm1.97 49.59-6.94 1.23v4l6.94-1.23v-4Zm18.3-26.43 14.1 23.63 3.45-2.54-14.1-23.63-3.45 2.54Zm15.83 20.36-8.06 1.43v4l8.06-1.43v-4Zm-6.33 2.17-13.87-23.67-3.47 2.52 13.88 23.67 3.46-2.52Zm-15.6-20.41 7.83-1.39v-4l-7.83 1.39v4Zm12.2 75.33-1.96.59c.11.98.95 1.59 1.95 1.41v-2Zm-4.1-5.98-1.07 1.87 1.08-1.87Zm-15.43 1.61-.78-1.7v.01l.78 1.69Zm-4.42 4.23-1.58-.91-.01.01 1.59.9Zm-.48 9.06-1.64 1.39.02.03 1.62-1.42Zm2.86 2.25-1.05 1.88h.02l1.03-1.88Zm3.63 1.14-.68 2h.03l.65-2Zm3.5.49.51-2.03-.51 2.03Zm5.82.55-.52 2.02.02.01.5-2.03Zm4.98.77-.7 1.99.7-1.99Zm5.28 1.92-1.14 1.84.02.01 1.12-1.85Zm4.2 3.86 1.69-1.32-1.7 1.32Zm-.78 15.57-1.66-.8v.01l1.66.79Zm-7.05 7.3-.85-1.65.85 1.65Zm-21.88 4.12-.8 1.97.8-1.97Zm-7.05-4.38-1.6 1.45.01.01 1.6-1.46Zm-2.88-7.86v-2c-.54.09-1.06.42-1.44.89a2.34 2.34 0 0 0-.52 1.6l1.96-.49Zm7.16-1.28 1.97-.52a1.62 1.62 0 0 0-1.97-1.48v2Zm2.19 5.07-1.47 1.59.02.02 1.45-1.61Zm4.86 2.32-.65 2h.02l.63-2Zm13.51-2.69.75 1.72v-.01l-.75-1.71Zm5-4.58 1.55.97v-.01l-1.54-.96Zm.26-10.33 1.47-1.59-1.47 1.59Zm-4.2-2.21-.77 1.98.78-1.98Zm-5.62-.99-.54 2.02h.02l.52-2.02Zm-7.04-.79-.55 2.02.55-2.02Zm-10.63-3.71-1.33 1.71 1.33-1.71Zm-1.32-17.81-1.59-.89 1.6.89Zm7.05-6.93.8 1.68h.01l-.81-1.68Zm19.78-3.54-.83 1.96h.01l.81-1.96Zm6.82 4.24-1.59 1.47h.01l1.58-1.47Zm2.69 7.39v2a2.46 2.46 0 0 0 1.96-2.42l-1.97.42Zm-4.76.61c-.4-3.39-2.09-5.86-4.96-7.26l-2.16 3.73a5.55 5.55 0 0 1 3.2 4.7l3.92-1.17Zm-4.96-7.26c-2.77-1.35-6.1-1.63-9.86-.96v4c3.16-.56 5.7-.29 7.7.69l2.16-3.73Zm-9.86-.96a21.17 21.17 0 0 0-7.44 2.73l1.56 3.4c1.6-.99 3.55-1.72 5.88-2.13v-4Zm-7.45 2.74c-2.15 1.33-3.92 3-5.21 5.01l3.16 1.81a11.25 11.25 0 0 1 3.63-3.43l-1.58-3.39Zm-5.22 5.02a11.97 11.97 0 0 0-1.95 6.5l3.94-.7c0-1.45.4-2.76 1.2-4.01l-3.2-1.79Zm-1.95 6.5a8 8 0 0 0 1.42 4.85l3.29-2.79a4.5 4.5 0 0 1-.77-2.76l-3.94.7Zm1.44 4.88a9.13 9.13 0 0 0 3.43 2.71l2.1-3.76a5.99 5.99 0 0 1-2.28-1.8l-3.25 2.85Zm3.45 2.71c1.26.57 2.6.99 3.98 1.26l1.36-4a15.32 15.32 0 0 1-3.28-1.03l-2.06 3.77Zm4 1.26c1.32.24 2.53.41 3.66.51l1-4.05c-1-.09-2.11-.24-3.34-.46l-1.31 4Zm3.65.51 5.81.55 1.03-4.04-5.82-.56-1.02 4.05Zm5.83.56c1.4.12 3 .36 4.78.73l1.4-3.99a45.6 45.6 0 0 0-5.18-.79l-1 4.05Zm4.79.73c1.68.34 3.29.93 4.83 1.77l2.28-3.67a20.68 20.68 0 0 0-5.74-2.09l-1.37 3.99Zm4.85 1.78a9.62 9.62 0 0 1 3.63 3.34l3.38-2.65a12.75 12.75 0 0 0-4.77-4.38l-2.24 3.69Zm3.63 3.34c.88 1.34 1.37 3.18 1.37 5.63l3.94-.7c0-3-.6-5.57-1.93-7.58l-3.38 2.65Zm1.37 5.63c0 2.77-.71 5.36-2.12 7.81l3.3 1.59a20.02 20.02 0 0 0 2.76-10.1l-3.94.7Zm-2.12 7.82a19.13 19.13 0 0 1-6.24 6.44l1.7 3.31a24.17 24.17 0 0 0 7.85-8.18l-3.31-1.57Zm-6.24 6.44c-2.75 1.82-6.18 3.14-10.37 3.89v4a31.45 31.45 0 0 0 12.07-4.59l-1.7-3.3Zm-10.37 3.89c-3.9.69-7.16.63-9.86-.09l-1.6 3.94c3.32.89 7.15.91 11.46.15v-4Zm-9.86-.09a11.82 11.82 0 0 1-6.25-3.86l-3.19 2.91c1.94 2.38 4.58 4 7.84 4.89l1.6-3.94Zm-6.24-3.86a12.04 12.04 0 0 1-2.52-6.91l-3.93.99a15.44 15.44 0 0 0 3.24 8.82l3.2-2.9Zm-4.49-4.41 7.16-1.28v-4l-7.16 1.28v4Zm5.2-2.76c.22 2.53 1.09 4.62 2.68 6.14l2.93-3.18a6 6 0 0 1-1.68-4l-3.93 1.04Zm2.7 6.16a11.01 11.01 0 0 0 5.66 2.71l1.3-4.01a7.86 7.86 0 0 1-4.06-1.92l-2.9 3.22Zm5.68 2.71c2.2.37 4.54.32 7.01-.11v-4c-2.08.36-3.99.39-5.74.1l-1.27 4.01Zm7.01-.11c2.86-.51 5.5-1.45 7.88-2.86l-1.49-3.44a19 19 0 0 1-6.39 2.3v4Zm7.89-2.87a18.43 18.43 0 0 0 5.8-5.32l-3.1-1.94a13.37 13.37 0 0 1-4.21 3.84l1.5 3.42Zm5.8-5.33a12.63 12.63 0 0 0 2.26-7.21l-3.93.7c0 1.7-.48 3.2-1.43 4.59l3.1 1.92Zm2.26-7.21c0-2.32-.64-4.28-2.09-5.67l-2.94 3.18c.68.66 1.1 1.65 1.1 3.19l3.94-.7Zm-2.09-5.67a10.85 10.85 0 0 0-4.89-2.6l-1.55 3.96a7.67 7.67 0 0 1 3.5 1.82l2.94-3.18Zm-4.89-2.6a40.57 40.57 0 0 0-5.87-1.03l-1.05 4.04c1.93.2 3.72.52 5.37.95l1.55-3.96Zm-5.86-1.03-7.04-.79-1.09 4.04 7.05.79 1.08-4.04Zm-7.04-.79c-4.27-.49-7.52-1.65-9.84-3.4l-2.66 3.42c2.9 2.18 6.73 3.48 11.41 4.02l1.09-4.04Zm-9.84-3.4c-2.17-1.63-3.28-4.04-3.28-7.46l-3.94.7c0 4.42 1.5 7.89 4.56 10.18l2.66-3.42Zm-3.28-7.46c0-2.87.76-5.43 2.23-7.74l-3.2-1.79c-2 3.15-2.97 6.59-2.97 10.23l3.94-.7Zm2.22-7.74a19.94 19.94 0 0 1 6.27-6.15l-1.62-3.36a25.01 25.01 0 0 0-7.83 7.72l3.18 1.79Zm6.27-6.15a24.9 24.9 0 0 1 9.12-3.49v-4a29.3 29.3 0 0 0-10.74 4.13l1.62 3.36Zm9.12-3.49c3.45-.61 6.45-.52 9.02.23l1.65-3.93c-3.17-.92-6.74-1-10.67-.3v4Zm9.03.23c2.6.74 4.6 2 6.05 3.75l3.18-2.94a14.88 14.88 0 0 0-7.6-4.74l-1.63 3.93Zm6.06 3.75a9.96 9.96 0 0 1 2.3 6.33l3.93-.83a13.39 13.39 0 0 0-3.07-8.45l-3.16 2.95Zm4.26 3.92-6.7 1.19v4l6.7-1.19v-4Z"/>
  </g>
  <defs>
    <filter id="f" width="889.68" height="238.95" x="444" y="1359.55" color-interpolation-filters="sRGB" filterUnits="userSpaceOnUse">
      <feFlood flood-opacity="0" result="BackgroundImageFix"/>
      <feBlend in="SourceGraphic" in2="BackgroundImageFix" result="shape"/>
      <feGaussianBlur result="effect1_foregroundBlur_1406_1959" stdDeviation="10"/>
    </filter>
    <filter id="g" width="857.68" height="206.95" x="460" y="1375.55" color-interpolation-filters="sRGB" filterUnits="userSpaceOnUse">
      <feFlood flood-opacity="0" result="BackgroundImageFix"/>
      <feBlend in="SourceGraphic" in2="BackgroundImageFix" result="shape"/>
      <feGaussianBlur result="effect1_foregroundBlur_1406_1959" stdDeviation="2"/>
    </filter>
    <filter id="h" width="60.12" height="61.88" x="1057.66" y="1412.73" color-interpolation-filters="sRGB" filterUnits="userSpaceOnUse">
      <feFlood flood-opacity="0" result="BackgroundImageFix"/>
      <feBlend in="SourceGraphic" in2="BackgroundImageFix" result="shape"/>
      <feGaussianBlur result="effect1_foregroundBlur_1406_1959" stdDeviation="1"/>
    </filter>
    <filter id="k" width="96.12" height="97.88" x="1039.66" y="1394.73" color-interpolation-filters="sRGB" filterUnits="userSpaceOnUse">
      <feFlood flood-opacity="0" result="BackgroundImageFix"/>
      <feBlend in="SourceGraphic" in2="BackgroundImageFix" result="shape"/>
      <feGaussianBlur result="effect1_foregroundBlur_1406_1959" stdDeviation="10"/>
    </filter>
    <filter id="l" width="66.12" height="67.88" x="1054.66" y="1409.73" color-interpolation-filters="sRGB" filterUnits="userSpaceOnUse">
      <feFlood flood-opacity="0" result="BackgroundImageFix"/>
      <feBlend in="SourceGraphic" in2="BackgroundImageFix" result="shape"/>
      <feGaussianBlur result="effect1_foregroundBlur_1406_1959" stdDeviation="2.5"/>
    </filter>
    <filter id="s" width="232.51" height="971.08" x="27.25" y="396.71" color-interpolation-filters="sRGB" filterUnits="userSpaceOnUse">
      <feFlood flood-opacity="0" result="BackgroundImageFix"/>
      <feBlend in="SourceGraphic" in2="BackgroundImageFix" result="shape"/>
      <feGaussianBlur result="effect1_foregroundBlur_1406_1959" stdDeviation="10"/>
    </filter>
    <filter id="t" width="149.23" height="847.75" x="68.07" y="469.44" color-interpolation-filters="sRGB" filterUnits="userSpaceOnUse">
      <feFlood flood-opacity="0" result="BackgroundImageFix"/>
      <feBlend in="SourceGraphic" in2="BackgroundImageFix" result="shape"/>
      <feGaussianBlur result="effect1_foregroundBlur_1406_1959" stdDeviation="25"/>
    </filter>
    <filter id="v" width="69.23" height="767.75" x="108.07" y="509.44" color-interpolation-filters="sRGB" filterUnits="userSpaceOnUse">
      <feFlood flood-opacity="0" result="BackgroundImageFix"/>
      <feBlend in="SourceGraphic" in2="BackgroundImageFix" result="shape"/>
      <feGaussianBlur result="effect1_foregroundBlur_1406_1959" stdDeviation="5"/>
    </filter>
    <filter id="w" width="55.23" height="753.75" x="115.07" y="516.43" color-interpolation-filters="sRGB" filterUnits="userSpaceOnUse">
      <feFlood flood-opacity="0" result="BackgroundImageFix"/>
      <feBlend in="SourceGraphic" in2="BackgroundImageFix" result="shape"/>
      <feGaussianBlur result="effect1_foregroundBlur_1406_1959" stdDeviation="1.5"/>
    </filter>
    <linearGradient id="a" x1="570.81" x2="570.81" y1="0" y2="3254.97" gradientUnits="userSpaceOnUse">
      <stop stop-color="#4A190F"/>
      <stop offset="1" stop-color="#3B1007"/>
    </linearGradient>
    <linearGradient id="b" x1="685.35" x2="722.39" y1="403.62" y2="612.02" gradientUnits="userSpaceOnUse">
      <stop stop-color="#0F0402"/>
      <stop offset="1" stop-color="#3B0D0D"/>
    </linearGradient>
    <linearGradient id="d" x1="554.05" x2="554.56" y1="0" y2="1998.66" gradientUnits="userSpaceOnUse">
      <stop stop-color="#E59D8E"/>
      <stop offset="1" stop-color="#AD6151"/>
    </linearGradient>
    <linearGradient id="e" x1="783.5" x2="921.5" y1="1232.5" y2="2071" gradientUnits="userSpaceOnUse">
      <stop stop-color="#D0A6A6"/>
      <stop offset=".72" stop-color="#FFEDDD" stop-opacity="0"/>
    </linearGradient>
    <linearGradient id="j" x1="1089" x2="1162.47" y1="1240.18" y2="1778.47" gradientUnits="userSpaceOnUse">
      <stop stop-color="#FDD"/>
      <stop offset="1" stop-color="#FFEDDD" stop-opacity="0"/>
    </linearGradient>
    <linearGradient id="n" x1="292.5" x2="292.5" y1="0" y2="2378.08" gradientUnits="userSpaceOnUse">
      <stop stop-color="#430D15"/>
      <stop offset="1" stop-color="#360F15"/>
    </linearGradient>
    <linearGradient id="o" x1="280.33" x2="280.33" y1="0" y2="2349.21" gradientUnits="userSpaceOnUse">
      <stop stop-color="#7F3D47"/>
      <stop offset="1" stop-color="#360F15"/>
    </linearGradient>
    <linearGradient id="p" x1="96" x2="96" y1="1651" y2="3508.57" gradientUnits="userSpaceOnUse">
      <stop stop-color="#451920"/>
      <stop offset="1" stop-color="#220509"/>
    </linearGradient>
    <radialGradient id="c" cx="0" cy="0" r="1" gradientTransform="matrix(.497 949.2179 -1275.0398 .6676 554.05 412.4)" gradientUnits="userSpaceOnUse">
      <stop stop-color="#F2D3D4"/>
      <stop offset="1" stop-color="#C18C97"/>
    </radialGradient>
    <radialGradient id="i" cx="0" cy="0" r="1" gradientTransform="rotate(103.06 7.97 26.82) scale(32.7219 35.2433)" gradientUnits="userSpaceOnUse">
      <stop stop-color="#572313"/>
      <stop offset="1" stop-color="#090402"/>
    </radialGradient>
    <pattern id="m" width="1" height="1" patternContentUnits="objectBoundingBox">
      <use xlink:href="#image0_1406_1959" transform="scale(.0008 .0011)"/>
    </pattern>
    <pattern id="q" width="1" height="1" patternContentUnits="objectBoundingBox">
      <use xlink:href="#image1_1406_1959" transform="matrix(-.0182 0 0 -.0022 5.96 1)"/>
    </pattern>
  </defs>
</svg>
