<svg width="290" height="153" viewBox="0 0 290 153" fill="none" xmlns="http://www.w3.org/2000/svg">
<path d="M27.851 51V15H34.451V29.65H58.051V15H64.651V51H58.051V36.35H34.451V51H27.851ZM70.4303 51V15H103.58V21.65H77.0803V29.65H98.3803V36.35H77.0803V44.35H103.58V51H70.4303ZM108.712 51V21.95C108.712 20.6833 109.028 19.5333 109.662 18.5C110.295 17.4333 111.128 16.5833 112.162 15.95C113.228 15.3167 114.395 15 115.662 15H137.712C138.978 15 140.145 15.3167 141.212 15.95C142.278 16.5833 143.128 17.4333 143.762 18.5C144.395 19.5333 144.712 20.6833 144.712 21.95V51H138.062V38.9H115.312V51H108.712ZM115.312 32.3H138.062V22.25C138.062 22.0833 137.995 21.95 137.862 21.85C137.728 21.7167 137.578 21.65 137.412 21.65H115.912C115.745 21.65 115.595 21.7167 115.462 21.85C115.362 21.95 115.312 22.0833 115.312 22.25V32.3ZM150.458 51V14.95H157.058V44.35H186.458V51H150.458ZM202.273 51V21.65H187.573V15H223.573V21.65H208.923V51H202.273ZM227.363 51V15H233.963V29.65H257.563V15H264.163V51H257.563V36.35H233.963V51H227.363Z" fill="#3192FF"/>
<path d="M3.00098 151.5L67.501 114.5L97.001 63.5" stroke="#3192FF" stroke-width="3"/>
<path d="M2.50098 45L14.501 62.999H274.501L288.001 45" stroke="#3192FF" stroke-width="5"/>
</svg>
