<svg width="291" height="153" viewBox="0 0 291 153" fill="none" xmlns="http://www.w3.org/2000/svg">
<path d="M28.35 51V15H34.95V29.65H58.55V15H65.15V51H58.55V36.35H34.95V51H28.35ZM70.9293 51V15H104.079V21.65H77.5793V29.65H98.8793V36.35H77.5793V44.35H104.079V51H70.9293ZM109.211 51V21.95C109.211 20.6833 109.527 19.5333 110.161 18.5C110.794 17.4333 111.627 16.5833 112.661 15.95C113.727 15.3167 114.894 15 116.161 15H138.211C139.477 15 140.644 15.3167 141.711 15.95C142.777 16.5833 143.627 17.4333 144.261 18.5C144.894 19.5333 145.211 20.6833 145.211 21.95V51H138.561V38.9H115.811V51H109.211ZM115.811 32.3H138.561V22.25C138.561 22.0833 138.494 21.95 138.361 21.85C138.227 21.7167 138.077 21.65 137.911 21.65H116.411C116.244 21.65 116.094 21.7167 115.961 21.85C115.861 21.95 115.811 22.0833 115.811 22.25V32.3ZM150.957 51V14.95H157.557V44.35H186.957V51H150.957ZM202.772 51V21.65H188.072V15H224.072V21.65H209.422V51H202.772ZM227.862 51V15H234.462V29.65H258.062V15H264.662V51H258.062V36.35H234.462V51H227.862Z" fill="#F04565"/>
<path d="M3.5 151.5L68 114.5L97.5 63.5" stroke="#F04565" stroke-width="3"/>
<path d="M3 45L15 62.999H275L288.5 45" stroke="#F04565" stroke-width="5"/>
</svg>
