<svg width="196" height="196" viewBox="0 0 196 196" fill="none" xmlns="http://www.w3.org/2000/svg">
<path d="M131.4 130.291C113.106 148.585 83.2099 148.478 64.6239 129.892C46.0378 111.306 45.9312 81.4094 64.2247 63.1159C82.5182 44.8224 112.415 44.929 131.001 63.5151C149.587 82.1011 149.693 111.998 131.4 130.291Z" stroke="#3192FF" stroke-width="10"/>
<path d="M55.8313 138.684C79.252 162.105 117.043 162.326 140.239 139.129C163.436 115.933 163.215 78.1417 139.795 54.7211C116.374 31.3005 78.5831 31.0797 55.3866 54.2763C32.19 77.4729 32.4107 115.264 55.8313 138.684Z" stroke="#3192FF" stroke-width="3"/>
<path d="M73.6725 121.549C87.5253 135.402 109.887 135.54 123.619 121.808C137.35 108.076 137.213 85.7146 123.36 71.8618C109.507 58.0091 87.1457 57.8717 73.414 71.6033C59.6824 85.3349 59.8198 107.697 73.6725 121.549Z" stroke="#3192FF" stroke-width="3"/>
<path d="M145.371 47.7295L115.992 77.1086" stroke="#3192FF" stroke-width="5"/>
<path d="M77.5234 116.285L48.1443 145.664" stroke="#3192FF" stroke-width="5"/>
<path d="M116.908 116.498L146.607 146.197" stroke="#3192FF" stroke-width="5"/>
<path d="M48.3271 49.3145L78.0256 79.0129" stroke="#3192FF" stroke-width="5"/>
</svg>
