<svg width="377" height="145" viewBox="0 0 377 145" fill="none" xmlns="http://www.w3.org/2000/svg">
<path d="M22.1 51V15H28.65V51H22.1ZM33.4934 51V15H40.7434L62.8434 41.3V15H69.4934V51H62.2434L40.0934 24.65V51H33.4934ZM75.1949 51V15H108.345V21.65H81.8449V29.65H103.145V36.35H81.8449V44.35H108.345V51H75.1949ZM141.976 51V45.5L149.276 43.7V44.35H153.576V51H141.976ZM120.226 51C118.96 51 117.793 50.6833 116.726 50.05C115.693 49.4167 114.86 48.5833 114.226 47.55C113.593 46.4833 113.276 45.3167 113.276 44.05V21.95C113.276 20.6833 113.593 19.5333 114.226 18.5C114.86 17.4333 115.693 16.5833 116.726 15.95C117.793 15.3167 118.96 15 120.226 15H142.326C143.593 15 144.743 15.3167 145.776 15.95C146.843 16.5833 147.693 17.4333 148.326 18.5C148.96 19.5333 149.276 20.6833 149.276 21.95V44.05C149.276 45.3167 148.96 46.4833 148.326 47.55C147.693 48.5833 146.843 49.4167 145.776 50.05C144.743 50.6833 143.593 51 142.326 51H120.226ZM120.476 44.35H141.976C142.143 44.35 142.293 44.3 142.426 44.2C142.56 44.0667 142.626 43.9167 142.626 43.75V22.25C142.626 22.0833 142.56 21.95 142.426 21.85C142.293 21.7167 142.143 21.65 141.976 21.65H120.476C120.31 21.65 120.16 21.7167 120.026 21.85C119.926 21.95 119.876 22.0833 119.876 22.25V43.75C119.876 43.9167 119.926 44.0667 120.026 44.2C120.16 44.3 120.31 44.35 120.476 44.35ZM164.416 51C163.149 51 161.982 50.6833 160.916 50.05C159.882 49.4167 159.049 48.5833 158.416 47.55C157.782 46.4833 157.466 45.3167 157.466 44.05V15H164.066V43.75C164.066 43.9167 164.116 44.0667 164.216 44.2C164.349 44.3 164.499 44.35 164.666 44.35H186.166C186.332 44.35 186.482 44.3 186.616 44.2C186.749 44.0667 186.816 43.9167 186.816 43.75V15H193.466V44.05C193.466 45.3167 193.149 46.4833 192.516 47.55C191.882 48.5833 191.032 49.4167 189.966 50.05C188.932 50.6833 187.782 51 186.516 51H164.416ZM199.072 51V21.95C199.072 20.6833 199.389 19.5333 200.022 18.5C200.655 17.4333 201.489 16.5833 202.522 15.95C203.589 15.3167 204.755 15 206.022 15H228.072C229.339 15 230.505 15.3167 231.572 15.95C232.639 16.5833 233.489 17.4333 234.122 18.5C234.755 19.5333 235.072 20.6833 235.072 21.95V51H228.422V38.9H205.672V51H199.072ZM205.672 32.3H228.422V22.25C228.422 22.0833 228.355 21.95 228.222 21.85C228.089 21.7167 227.939 21.65 227.772 21.65H206.272C206.105 21.65 205.955 21.7167 205.822 21.85C205.722 21.95 205.672 22.0833 205.672 22.25V32.3ZM240.819 51V14.95H247.419V44.35H276.819V51H240.819ZM279.034 51V15H285.584V51H279.034ZM304.011 51V21.65H289.311V15H325.311V21.65H310.661V51H304.011ZM343.05 51V37.5L326.45 15H334.25L346.4 30.25L358.4 15H366.35L349.7 37.55V51H343.05Z" fill="#F04565"/>
<path d="M172 143.5L96.5 117L86 60" stroke="#F04565" stroke-width="3"/>
<path d="M3 43L15 60.999H361L374.5 43" stroke="#F04565" stroke-width="5"/>
</svg>
