<svg width="290" height="145" viewBox="0 0 290 145" fill="none" xmlns="http://www.w3.org/2000/svg">
<path d="M22.9 51V15H56.05V21.65H29.55V29.65H50.85V36.35H29.55V51H22.9ZM58.2328 51V15H64.7828V51H58.2328ZM69.6262 51V15H76.8762L98.9762 41.3V15H105.626V51H98.3762L76.2262 24.65V51H69.6262ZM111.328 51V21.95C111.328 20.6833 111.644 19.5333 112.278 18.5C112.911 17.4333 113.744 16.5833 114.778 15.95C115.844 15.3167 117.011 15 118.278 15H140.328C141.594 15 142.761 15.3167 143.828 15.95C144.894 16.5833 145.744 17.4333 146.378 18.5C147.011 19.5333 147.328 20.6833 147.328 21.95V51H140.678V38.9H117.928V51H111.328ZM117.928 32.3H140.678V22.25C140.678 22.0833 140.611 21.95 140.478 21.85C140.344 21.7167 140.194 21.65 140.028 21.65H118.528C118.361 21.65 118.211 21.7167 118.078 21.85C117.978 21.95 117.928 22.0833 117.928 22.25V32.3ZM153.025 51V15H160.275L182.375 41.3V15H189.025V51H181.775L159.625 24.65V51H153.025ZM201.576 51C200.31 51 199.143 50.6833 198.076 50.05C197.043 49.4167 196.21 48.5833 195.576 47.55C194.943 46.4833 194.626 45.3167 194.626 44.05V21.95C194.626 20.6833 194.943 19.5333 195.576 18.5C196.21 17.4333 197.043 16.5833 198.076 15.95C199.143 15.3167 200.31 15 201.576 15H230.526V21.65H202.976C202.443 21.65 202.01 21.8 201.676 22.1C201.376 22.4 201.226 22.8333 201.226 23.4V42.6C201.226 43.1333 201.376 43.5667 201.676 43.9C202.01 44.2 202.443 44.35 202.976 44.35H230.526V51H201.576ZM235.839 51V15H268.989V21.65H242.489V29.65H263.789V36.35H242.489V44.35H268.989V51H235.839Z" fill="#C492FE"/>
<path d="M172 143.5L96.5 117L86 60" stroke="#C492FE" stroke-width="3"/>
<path d="M3 43L12.1736 61H276.68L287 43" stroke="#C492FE" stroke-width="5"/>
</svg>
