<svg width="997" height="1061" viewBox="0 0 997 1061" fill="none" xmlns="http://www.w3.org/2000/svg">
<path d="M-12.4902 337.869C253.883 212.273 403.514 148.963 671.954 74.3574L940.5 288C675.721 421.516 256.177 677.128 -12.4902 905.957V337.869Z" fill="#65464C"/>
<path d="M-21.6741 858.976C227.782 669.199 541.704 453.137 912.138 298.383L993.5 343C751.316 439.711 313.199 739.461 -31.0788 992.111L-21.6741 858.976Z" fill="#3D1D26"/>
<path d="M-12.7452 810.626C363.356 552.46 658.145 382.666 852.548 312.218L860.821 322.828C618.636 419.539 328.398 602.355 -15.8801 855.005L-12.7452 810.626Z" fill="#7C565D"/>
<path d="M-26.1787 320.757C184.084 223.375 345.53 172.988 646.683 77.7793L665.11 84.5371C349.304 182.57 180.137 260.386 -26.1787 354.979V320.757Z" fill="#3D1D26"/>
<path d="M-70.6581 323.439C284.313 174.024 485.663 113.757 847.511 9.76514L847.801 18.3844C476.618 126.763 283.463 189.209 -71.0005 350.815L-70.6581 323.439Z" fill="#7C565D"/>
</svg>
