<svg width="486" height="266" viewBox="0 0 486 266" fill="none" xmlns="http://www.w3.org/2000/svg">
<path d="M51.002 232L40.5 226L445.502 40.5L454.002 48.5V150.5L51.002 232Z" fill="#060E18"/>
<g filter="url(#filter0_f_1655_9752)">
<path d="M445.499 40.498L40.498 124.619V225.933L445.499 143.5V40.498Z" fill="#F04565"/>
</g>
<path d="M445.499 40.498L40.498 124.619V225.933L445.499 143.5V40.498Z" fill="#F04565"/>
<path d="M108.712 175.444L100.2 166.786L106.986 165.429L114.36 172.834V174.314L108.712 175.444ZM86.1975 179.946V151.186L108.947 146.637C109.941 146.438 110.856 146.508 111.693 146.847C112.529 147.187 113.196 147.733 113.693 148.487C114.19 149.215 114.438 150.085 114.438 151.098V158.858C114.438 159.872 114.19 160.855 113.693 161.807C113.196 162.76 112.529 163.573 111.693 164.247C110.856 164.895 109.941 165.318 108.947 165.517L91.3749 169.071V178.911L86.1975 179.946ZM91.8456 163.617L108.712 160.244C108.842 160.217 108.96 160.154 109.065 160.053C109.169 159.952 109.222 159.835 109.222 159.702V152.342C109.222 152.208 109.169 152.112 109.065 152.053C108.96 151.967 108.842 151.937 108.712 151.964L91.8456 155.337C91.7149 155.363 91.5972 155.44 91.4926 155.567C91.4142 155.663 91.3749 155.778 91.3749 155.911V163.271C91.3749 163.404 91.4142 163.503 91.4926 163.567C91.5972 163.626 91.7149 163.643 91.8456 163.617ZM123.781 172.43C122.787 172.628 121.885 172.556 121.075 172.211C120.264 171.866 119.61 171.331 119.113 170.603C118.617 169.876 118.368 169.006 118.368 167.992V155.832C118.368 154.819 118.617 153.849 119.113 152.923C119.61 151.997 120.264 151.2 121.075 150.531C121.885 149.862 122.787 149.428 123.781 149.23L136.058 146.774C137.052 146.576 137.954 146.649 138.764 146.993C139.601 147.332 140.255 147.868 140.725 148.601C141.222 149.328 141.471 150.198 141.471 151.212V159.932L123.506 163.525V166.765C123.506 166.898 123.546 167.01 123.624 167.101C123.729 167.16 123.846 167.177 123.977 167.151L141.471 163.652V168.892L123.781 172.43ZM123.506 158.805L136.332 156.239V152.439C136.332 152.306 136.28 152.21 136.176 152.151C136.097 152.06 135.992 152.027 135.862 152.054L123.977 154.431C123.846 154.457 123.729 154.534 123.624 154.661C123.546 154.757 123.506 154.871 123.506 155.005V158.805ZM148.67 176.612V171.332L162.359 168.594C162.49 168.568 162.594 168.494 162.673 168.371C162.777 168.27 162.83 168.153 162.83 168.02V164.62L150.278 167.13C149.311 167.324 148.408 167.251 147.572 166.912C146.761 166.567 146.107 166.031 145.611 165.304C145.114 164.577 144.865 163.706 144.865 162.693V150.533C144.865 149.52 145.114 148.55 145.611 147.624C146.107 146.698 146.761 145.9 147.572 145.232C148.408 144.558 149.311 144.124 150.278 143.93L162.594 141.467C163.588 141.268 164.49 141.341 165.301 141.686C166.111 142.03 166.752 142.569 167.223 143.301C167.719 144.029 167.968 144.899 167.968 145.912V167.232C167.968 168.272 167.732 169.253 167.262 170.174C166.791 171.094 166.137 171.878 165.301 172.526C164.49 173.195 163.588 173.628 162.594 173.827L148.67 176.612ZM150.474 161.851L162.359 159.474C162.49 159.448 162.594 159.387 162.673 159.291C162.777 159.164 162.83 159.033 162.83 158.9V147.14C162.83 147.007 162.777 146.91 162.673 146.851C162.594 146.76 162.49 146.728 162.359 146.754L150.474 149.131C150.343 149.157 150.226 149.234 150.121 149.362C150.043 149.457 150.004 149.572 150.004 149.705V161.465C150.004 161.599 150.043 161.711 150.121 161.802C150.226 161.861 150.343 161.877 150.474 161.851ZM172.071 162.772V139.572L177.209 138.544V161.744L172.071 162.772ZM172.071 137.252V131.972L177.209 130.944V136.224L172.071 137.252ZM187.095 159.767C186.101 159.966 185.199 159.893 184.388 159.548C183.578 159.204 182.924 158.668 182.427 157.941C181.93 157.213 181.682 156.343 181.682 155.33V154.45L186.82 153.422V154.102C186.82 154.235 186.859 154.347 186.938 154.438C187.042 154.497 187.16 154.514 187.291 154.488L199.175 152.111C199.306 152.085 199.411 152.024 199.489 151.928C199.594 151.801 199.646 151.67 199.646 151.537V148.777C199.646 148.643 199.594 148.547 199.489 148.488C199.411 148.397 199.306 148.365 199.175 148.391L187.095 150.807C186.101 151.006 185.199 150.933 184.388 150.588C183.578 150.244 182.924 149.708 182.427 148.981C181.93 148.253 181.682 147.383 181.682 146.37V143.17C181.682 142.156 181.93 141.187 182.427 140.261C182.924 139.334 183.578 138.537 184.388 137.868C185.199 137.199 186.101 136.766 187.095 136.567L199.372 134.112C200.391 133.908 201.307 133.978 202.117 134.323C202.928 134.667 203.581 135.203 204.078 135.93C204.575 136.658 204.824 137.528 204.824 138.541V139.421L199.646 140.457V139.777C199.646 139.643 199.594 139.547 199.489 139.488C199.411 139.397 199.306 139.365 199.175 139.391L187.291 141.768C187.16 141.794 187.042 141.871 186.938 141.998C186.859 142.094 186.82 142.209 186.82 142.342V145.102C186.82 145.235 186.859 145.347 186.938 145.438C187.042 145.497 187.16 145.514 187.291 145.488L199.372 143.072C200.391 142.868 201.307 142.938 202.117 143.283C202.928 143.627 203.581 144.163 204.078 144.89C204.575 145.618 204.824 146.488 204.824 147.501V150.701C204.824 151.715 204.575 152.684 204.078 153.61C203.581 154.536 202.928 155.334 202.117 156.003C201.307 156.671 200.391 157.108 199.372 157.312L187.095 159.767ZM214.18 154.35C213.186 154.549 212.284 154.476 211.474 154.131C210.663 153.787 210.009 153.251 209.513 152.523C209.016 151.796 208.767 150.926 208.767 149.912V125.112L213.906 124.085V131.205L222.77 129.432V134.672L213.906 136.445V148.685C213.906 148.818 213.945 148.93 214.023 149.021C214.128 149.08 214.245 149.097 214.376 149.071L222.77 147.392V152.632L214.18 154.35ZM231.3 150.926C230.306 151.125 229.404 151.052 228.594 150.707C227.783 150.363 227.129 149.827 226.633 149.099C226.136 148.372 225.887 147.502 225.887 146.488V134.328C225.887 133.315 226.136 132.345 226.633 131.419C227.129 130.493 227.783 129.696 228.594 129.027C229.404 128.358 230.306 127.925 231.3 127.726L243.577 125.271C244.571 125.072 245.473 125.145 246.283 125.489C247.12 125.829 247.774 126.364 248.245 127.097C248.741 127.824 248.99 128.695 248.99 129.708V138.428L231.026 142.021V145.261C231.026 145.394 231.065 145.506 231.143 145.597C231.248 145.656 231.366 145.673 231.496 145.647L248.99 142.148V147.388L231.3 150.926ZM231.026 137.301L243.852 134.736V130.936C243.852 130.802 243.799 130.706 243.695 130.647C243.616 130.556 243.512 130.524 243.381 130.55L231.496 132.927C231.366 132.953 231.248 133.03 231.143 133.157C231.065 133.253 231.026 133.367 231.026 133.501V137.301ZM252.854 146.615V128.935C252.854 127.922 253.103 126.952 253.599 126.026C254.096 125.1 254.75 124.303 255.561 123.634C256.397 122.96 257.3 122.526 258.267 122.333L270.897 119.807V125.047L258.463 127.533C258.332 127.559 258.215 127.636 258.11 127.764C258.032 127.86 257.992 127.974 257.992 128.107V145.587L252.854 146.615ZM285.493 140.087V111.287L291.18 110.15L308.517 127.723V106.683L313.734 105.639V134.439L308.046 135.577L290.67 117.972V139.052L285.493 140.087ZM323.344 132.517C322.351 132.716 321.449 132.643 320.638 132.298C319.827 131.954 319.174 131.418 318.677 130.691C318.18 129.963 317.932 129.093 317.932 128.08V115.92C317.932 114.906 318.18 113.937 318.677 113.011C319.174 112.085 319.827 111.287 320.638 110.618C321.449 109.95 322.351 109.516 323.344 109.317L335.621 106.862C336.615 106.663 337.517 106.736 338.328 107.08C339.165 107.42 339.818 107.956 340.289 108.688C340.786 109.415 341.034 110.286 341.034 111.299V123.459C341.034 124.472 340.786 125.442 340.289 126.368C339.818 127.289 339.178 128.084 338.367 128.753C337.556 129.421 336.641 129.858 335.621 130.062L323.344 132.517ZM323.541 127.238L335.425 124.861C335.556 124.835 335.661 124.774 335.739 124.678C335.844 124.551 335.896 124.42 335.896 124.287V112.527C335.896 112.393 335.844 112.297 335.739 112.238C335.661 112.147 335.556 112.115 335.425 112.141L323.541 114.518C323.41 114.544 323.292 114.621 323.188 114.748C323.109 114.844 323.07 114.959 323.07 115.092V126.852C323.07 126.985 323.109 127.097 323.188 127.188C323.292 127.247 323.41 127.264 323.541 127.238ZM351.068 126.972L342.125 105.561L347.577 104.471L353.108 117.044L358.913 102.203L364.247 101.137L370.444 113.657L375.582 98.8694L381.034 97.779L372.484 122.689L368.483 123.489L361.619 109.382L355.069 126.172L351.068 126.972ZM384.549 112.196V91.4762L389.687 90.4486V111.169L384.549 112.196ZM384.549 120.276V115.036L389.687 114.009V119.249L384.549 120.276Z" fill="white"/>
<defs>
<filter id="filter0_f_1655_9752" x="0.498047" y="0.498047" width="485.001" height="265.435" filterUnits="userSpaceOnUse" color-interpolation-filters="sRGB">
<feFlood flood-opacity="0" result="BackgroundImageFix"/>
<feBlend mode="normal" in="SourceGraphic" in2="BackgroundImageFix" result="shape"/>
<feGaussianBlur stdDeviation="20" result="effect1_foregroundBlur_1655_9752"/>
</filter>
</defs>
</svg>
